ISO-10303-21;
HEADER;

/* File generated by Shapr3D Version 5.920.9294.0 */

FILE_DESCRIPTION(('HOOPS Exchange Step'),'2;1');

FILE_NAME('C:\\Users\\evanl\\AppData\\Local\\Packages\\Shapr3D.Shapr3D_j403pzjkqtqbj\\TempState\\export\\temp_export',
'2025-08-12T20:00:54+20:00',
('evanl'),
('Shapr3D Limited'),
'HOOPS Exchange 2025.5',
'Shapr3D',
'Authorized');

FILE_SCHEMA( ('AP242_MANAGED_MODEL_BASED_3D_ENGINEERING_MIM_LF {1 0 10303 442 1 1 4}') );

ENDSEC;

DATA;
#3=(NAMED_UNIT(*)PLANE_ANGLE_UNIT()SI_UNIT($,.RADIAN.));
#4=PLANE_ANGLE_MEASURE_WITH_UNIT(PLANE_ANGLE_MEASURE(0.0174532925),#3);
#5=(CONVERSION_BASED_UNIT('DEGREE',#4)NAMED_UNIT(#6)PLANE_ANGLE_UNIT());
#6=DIMENSIONAL_EXPONENTS(0.,0.,0.,0.,0.,0.,0.);
#7=(NAMED_UNIT(*)SI_UNIT($,.STERADIAN.)SOLID_ANGLE_UNIT());
#8=(LENGTH_UNIT()NAMED_UNIT(*)SI_UNIT(.MILLI.,.METRE.));
#9=UNCERTAINTY_MEASURE_WITH_UNIT(LENGTH_MEASURE(1.000000E-05),#8,'DISTANCE_ACCURACY_VALUE','Maximum Tolerance applied to model');
#10=(GEOMETRIC_REPRESENTATION_CONTEXT(3)GLOBAL_UNCERTAINTY_ASSIGNED_CONTEXT((#9))GLOBAL_UNIT_ASSIGNED_CONTEXT((#8,#5,#7))REPRESENTATION_CONTEXT('','root'));
#12=CARTESIAN_POINT('',(0.,0.,0.));
#13=DIRECTION('',(0.,0.,1.));
#14=DIRECTION('',(1.,0.,0.));
#15=AXIS2_PLACEMENT_3D('',#12,#13,#14);
#27=CARTESIAN_POINT('',(134.,15.,2.));
#28=DIRECTION('',(1.,0.,0.));
#29=DIRECTION('',(0.,0.,-1.));
#30=AXIS2_PLACEMENT_3D('',#27,#28,#29);
#31=PLANE('',#30);
#32=CARTESIAN_POINT('',(134.,67.5,0.));
#33=VERTEX_POINT('',#32);
#34=CARTESIAN_POINT('',(134.,10.,0.));
#35=VERTEX_POINT('',#34);
#36=CARTESIAN_POINT('',(134.,67.5,0.));
#37=DIRECTION('',(0.,-1.,0.));
#38=VECTOR('',#37,57.5);
#39=LINE('',#36,#38);
#40=EDGE_CURVE('',#33,#35,#39,.T.);
#41=ORIENTED_EDGE('',*,*,#40,.T.);
#42=CARTESIAN_POINT('',(134.,10.,2.));
#43=VERTEX_POINT('',#42);
#44=CARTESIAN_POINT('',(134.,10.,2.));
#45=DIRECTION('',(0.,0.,-1.));
#46=VECTOR('',#45,2.);
#47=LINE('',#44,#46);
#48=EDGE_CURVE('',#43,#35,#47,.T.);
#49=ORIENTED_EDGE('',*,*,#48,.F.);
#50=CARTESIAN_POINT('',(134.,67.5,2.));
#51=VERTEX_POINT('',#50);
#52=CARTESIAN_POINT('',(134.,67.5,2.));
#53=DIRECTION('',(0.,-1.,0.));
#54=VECTOR('',#53,57.5);
#55=LINE('',#52,#54);
#56=EDGE_CURVE('',#51,#43,#55,.T.);
#57=ORIENTED_EDGE('',*,*,#56,.F.);
#58=CARTESIAN_POINT('',(134.,67.5,2.));
#59=DIRECTION('',(0.,0.,-1.));
#60=VECTOR('',#59,2.);
#61=LINE('',#58,#60);
#62=EDGE_CURVE('',#51,#33,#61,.T.);
#63=ORIENTED_EDGE('',*,*,#62,.T.);
#64=EDGE_LOOP('',(#41,#49,#57,#63));
#65=FACE_BOUND('',#64,.T.);
#66=ADVANCED_FACE('',(#65),#31,.F.);
#67=CARTESIAN_POINT('',(146.,10.,2.));
#68=DIRECTION('',(-0.,1.,0.));
#69=DIRECTION('',(-1.,-0.,0.));
#70=AXIS2_PLACEMENT_3D('',#67,#68,#69);
#71=PLANE('',#70);
#72=CARTESIAN_POINT('',(158.,10.,0.));
#73=VERTEX_POINT('',#72);
#74=CARTESIAN_POINT('',(134.,10.,0.));
#75=DIRECTION('',(1.,0.,0.));
#76=VECTOR('',#75,24.);
#77=LINE('',#74,#76);
#78=EDGE_CURVE('',#35,#73,#77,.T.);
#79=ORIENTED_EDGE('',*,*,#78,.T.);
#80=CARTESIAN_POINT('',(158.,10.,2.));
#81=VERTEX_POINT('',#80);
#82=CARTESIAN_POINT('',(158.,10.,2.));
#83=DIRECTION('',(0.,0.,-1.));
#84=VECTOR('',#83,2.);
#85=LINE('',#82,#84);
#86=EDGE_CURVE('',#81,#73,#85,.T.);
#87=ORIENTED_EDGE('',*,*,#86,.F.);
#88=CARTESIAN_POINT('',(134.,10.,2.));
#89=DIRECTION('',(1.,0.,0.));
#90=VECTOR('',#89,24.);
#91=LINE('',#88,#90);
#92=EDGE_CURVE('',#43,#81,#91,.T.);
#93=ORIENTED_EDGE('',*,*,#92,.F.);
#94=ORIENTED_EDGE('',*,*,#48,.T.);
#95=EDGE_LOOP('',(#79,#87,#93,#94));
#96=FACE_BOUND('',#95,.T.);
#97=ADVANCED_FACE('',(#96),#71,.F.);
#98=CARTESIAN_POINT('',(158.,20.,2.));
#99=DIRECTION('',(1.,0.,0.));
#100=DIRECTION('',(0.,0.,-1.));
#101=AXIS2_PLACEMENT_3D('',#98,#99,#100);
#102=PLANE('',#101);
#103=CARTESIAN_POINT('',(158.,30.,0.));
#104=VERTEX_POINT('',#103);
#105=CARTESIAN_POINT('',(158.,30.,0.));
#106=DIRECTION('',(0.,-1.,0.));
#107=VECTOR('',#106,20.);
#108=LINE('',#105,#107);
#109=EDGE_CURVE('',#104,#73,#108,.T.);
#110=ORIENTED_EDGE('',*,*,#109,.F.);
#111=CARTESIAN_POINT('',(158.,30.,2.));
#112=VERTEX_POINT('',#111);
#113=CARTESIAN_POINT('',(158.,30.,2.));
#114=DIRECTION('',(0.,0.,-1.));
#115=VECTOR('',#114,2.);
#116=LINE('',#113,#115);
#117=EDGE_CURVE('',#112,#104,#116,.T.);
#118=ORIENTED_EDGE('',*,*,#117,.F.);
#119=CARTESIAN_POINT('',(158.,30.,2.));
#120=DIRECTION('',(0.,-1.,0.));
#121=VECTOR('',#120,20.);
#122=LINE('',#119,#121);
#123=EDGE_CURVE('',#112,#81,#122,.T.);
#124=ORIENTED_EDGE('',*,*,#123,.T.);
#125=ORIENTED_EDGE('',*,*,#86,.T.);
#126=EDGE_LOOP('',(#110,#118,#124,#125));
#127=FACE_BOUND('',#126,.T.);
#128=ADVANCED_FACE('',(#127),#102,.T.);
#129=CARTESIAN_POINT('',(171.25,30.,2.));
#130=DIRECTION('',(0.,-1.,0.));
#131=DIRECTION('',(0.,0.,-1.));
#132=AXIS2_PLACEMENT_3D('',#129,#130,#131);
#133=PLANE('',#132);
#134=CARTESIAN_POINT('',(187.5,30.,0.));
#135=VERTEX_POINT('',#134);
#136=CARTESIAN_POINT('',(187.5,30.,0.));
#137=DIRECTION('',(-1.,0.,0.));
#138=VECTOR('',#137,29.5);
#139=LINE('',#136,#138);
#140=EDGE_CURVE('',#135,#104,#139,.T.);
#141=ORIENTED_EDGE('',*,*,#140,.F.);
#142=CARTESIAN_POINT('',(187.5,30.,2.));
#143=VERTEX_POINT('',#142);
#144=CARTESIAN_POINT('',(187.5,30.,2.));
#145=DIRECTION('',(0.,0.,-1.));
#146=VECTOR('',#145,2.);
#147=LINE('',#144,#146);
#148=EDGE_CURVE('',#143,#135,#147,.T.);
#149=ORIENTED_EDGE('',*,*,#148,.F.);
#150=CARTESIAN_POINT('',(187.5,30.,2.));
#151=DIRECTION('',(-1.,0.,0.));
#152=VECTOR('',#151,29.5);
#153=LINE('',#150,#152);
#154=EDGE_CURVE('',#143,#112,#153,.T.);
#155=ORIENTED_EDGE('',*,*,#154,.T.);
#156=ORIENTED_EDGE('',*,*,#117,.T.);
#157=EDGE_LOOP('',(#141,#149,#155,#156));
#158=FACE_BOUND('',#157,.T.);
#159=ADVANCED_FACE('',(#158),#133,.T.);
#160=CARTESIAN_POINT('',(187.5,20.,2.));
#161=DIRECTION('',(-1.,0.,0.));
#162=DIRECTION('',(0.,0.,1.));
#163=AXIS2_PLACEMENT_3D('',#160,#161,#162);
#164=PLANE('',#163);
#165=CARTESIAN_POINT('',(187.5,10.,0.));
#166=VERTEX_POINT('',#165);
#167=CARTESIAN_POINT('',(187.5,10.,0.));
#168=DIRECTION('',(0.,1.,0.));
#169=VECTOR('',#168,20.);
#170=LINE('',#167,#169);
#171=EDGE_CURVE('',#166,#135,#170,.T.);
#172=ORIENTED_EDGE('',*,*,#171,.F.);
#173=CARTESIAN_POINT('',(187.5,10.,2.));
#174=VERTEX_POINT('',#173);
#175=CARTESIAN_POINT('',(187.5,10.,2.));
#176=DIRECTION('',(0.,0.,-1.));
#177=VECTOR('',#176,2.);
#178=LINE('',#175,#177);
#179=EDGE_CURVE('',#174,#166,#178,.T.);
#180=ORIENTED_EDGE('',*,*,#179,.F.);
#181=CARTESIAN_POINT('',(187.5,10.,2.));
#182=DIRECTION('',(0.,1.,0.));
#183=VECTOR('',#182,20.);
#184=LINE('',#181,#183);
#185=EDGE_CURVE('',#174,#143,#184,.T.);
#186=ORIENTED_EDGE('',*,*,#185,.T.);
#187=ORIENTED_EDGE('',*,*,#148,.T.);
#188=EDGE_LOOP('',(#172,#180,#186,#187));
#189=FACE_BOUND('',#188,.T.);
#190=ADVANCED_FACE('',(#189),#164,.T.);
#191=CARTESIAN_POINT('',(207.,10.,2.));
#192=DIRECTION('',(0.,1.,0.));
#193=DIRECTION('',(0.,0.,1.));
#194=AXIS2_PLACEMENT_3D('',#191,#192,#193);
#195=PLANE('',#194);
#196=CARTESIAN_POINT('',(229.5,10.,0.));
#197=VERTEX_POINT('',#196);
#198=CARTESIAN_POINT('',(187.5,10.,0.));
#199=DIRECTION('',(1.,0.,-0.));
#200=VECTOR('',#199,42.);
#201=LINE('',#198,#200);
#202=EDGE_CURVE('',#166,#197,#201,.T.);
#203=ORIENTED_EDGE('',*,*,#202,.T.);
#204=CARTESIAN_POINT('',(229.5,10.,2.));
#205=VERTEX_POINT('',#204);
#206=CARTESIAN_POINT('',(229.5,10.,2.));
#207=DIRECTION('',(0.,0.,-1.));
#208=VECTOR('',#207,2.);
#209=LINE('',#206,#208);
#210=EDGE_CURVE('',#205,#197,#209,.T.);
#211=ORIENTED_EDGE('',*,*,#210,.F.);
#212=CARTESIAN_POINT('',(187.5,10.,2.));
#213=DIRECTION('',(1.,0.,-0.));
#214=VECTOR('',#213,42.);
#215=LINE('',#212,#214);
#216=EDGE_CURVE('',#174,#205,#215,.T.);
#217=ORIENTED_EDGE('',*,*,#216,.F.);
#218=ORIENTED_EDGE('',*,*,#179,.T.);
#219=EDGE_LOOP('',(#203,#211,#217,#218));
#220=FACE_BOUND('',#219,.T.);
#221=ADVANCED_FACE('',(#220),#195,.F.);
#222=CARTESIAN_POINT('',(229.5,38.75,2.));
#223=DIRECTION('',(-1.,0.,0.));
#224=DIRECTION('',(0.,0.,1.));
#225=AXIS2_PLACEMENT_3D('',#222,#223,#224);
#226=PLANE('',#225);
#227=CARTESIAN_POINT('',(229.5,67.5,0.));
#228=VERTEX_POINT('',#227);
#229=CARTESIAN_POINT('',(229.5,10.,0.));
#230=DIRECTION('',(0.,1.,0.));
#231=VECTOR('',#230,57.5);
#232=LINE('',#229,#231);
#233=EDGE_CURVE('',#197,#228,#232,.T.);
#234=ORIENTED_EDGE('',*,*,#233,.T.);
#235=CARTESIAN_POINT('',(229.5,67.5,2.));
#236=VERTEX_POINT('',#235);
#237=CARTESIAN_POINT('',(229.5,67.5,2.));
#238=DIRECTION('',(0.,0.,-1.));
#239=VECTOR('',#238,2.);
#240=LINE('',#237,#239);
#241=EDGE_CURVE('',#236,#228,#240,.T.);
#242=ORIENTED_EDGE('',*,*,#241,.F.);
#243=CARTESIAN_POINT('',(229.5,10.,2.));
#244=DIRECTION('',(0.,1.,0.));
#245=VECTOR('',#244,57.5);
#246=LINE('',#243,#245);
#247=EDGE_CURVE('',#205,#236,#246,.T.);
#248=ORIENTED_EDGE('',*,*,#247,.F.);
#249=ORIENTED_EDGE('',*,*,#210,.T.);
#250=EDGE_LOOP('',(#234,#242,#248,#249));
#251=FACE_BOUND('',#250,.T.);
#252=ADVANCED_FACE('',(#251),#226,.F.);
#253=CARTESIAN_POINT('',(150.,21.,2.));
#254=DIRECTION('',(0.,0.,-1.));
#255=DIRECTION('',(-1.,0.,0.));
#256=AXIS2_PLACEMENT_3D('',#253,#254,#255);
#257=CYLINDRICAL_SURFACE('',#256,3.);
#258=CARTESIAN_POINT('',(147.,21.,0.));
#259=VERTEX_POINT('',#258);
#260=CARTESIAN_POINT('',(147.,21.,2.));
#261=VERTEX_POINT('',#260);
#262=CARTESIAN_POINT('',(147.,21.,0.));
#263=DIRECTION('',(-0.,-0.,1.));
#264=VECTOR('',#263,2.);
#265=LINE('',#262,#264);
#266=EDGE_CURVE('',#259,#261,#265,.T.);
#267=ORIENTED_EDGE('',*,*,#266,.F.);
#268=CARTESIAN_POINT('',(153.,21.,0.));
#269=VERTEX_POINT('',#268);
#270=CARTESIAN_POINT('',(150.,21.,0.));
#271=DIRECTION('',(0.,0.,1.));
#272=DIRECTION('',(1.,0.,-0.));
#273=AXIS2_PLACEMENT_3D('',#270,#271,#272);
#274=CIRCLE('',#273,3.);
#275=EDGE_CURVE('',#269,#259,#274,.T.);
#276=ORIENTED_EDGE('',*,*,#275,.F.);
#277=CARTESIAN_POINT('',(150.,21.,0.));
#278=DIRECTION('',(0.,0.,1.));
#279=DIRECTION('',(1.,0.,-0.));
#280=AXIS2_PLACEMENT_3D('',#277,#278,#279);
#281=CIRCLE('',#280,3.);
#282=EDGE_CURVE('',#259,#269,#281,.T.);
#283=ORIENTED_EDGE('',*,*,#282,.F.);
#284=ORIENTED_EDGE('',*,*,#266,.T.);
#285=CARTESIAN_POINT('',(153.,21.,2.));
#286=VERTEX_POINT('',#285);
#287=CARTESIAN_POINT('',(150.,21.,2.));
#288=DIRECTION('',(0.,0.,1.));
#289=DIRECTION('',(1.,0.,-0.));
#290=AXIS2_PLACEMENT_3D('',#287,#288,#289);
#291=CIRCLE('',#290,3.);
#292=EDGE_CURVE('',#261,#286,#291,.T.);
#293=ORIENTED_EDGE('',*,*,#292,.T.);
#294=CARTESIAN_POINT('',(150.,21.,2.));
#295=DIRECTION('',(0.,0.,1.));
#296=DIRECTION('',(1.,0.,-0.));
#297=AXIS2_PLACEMENT_3D('',#294,#295,#296);
#298=CIRCLE('',#297,3.);
#299=EDGE_CURVE('',#286,#261,#298,.T.);
#300=ORIENTED_EDGE('',*,*,#299,.T.);
#301=EDGE_LOOP('',(#267,#276,#283,#284,#293,#300));
#302=FACE_BOUND('',#301,.T.);
#303=ADVANCED_FACE('',(#302),#257,.F.);
#304=CARTESIAN_POINT('',(150.,59.,2.));
#305=DIRECTION('',(0.,0.,-1.));
#306=DIRECTION('',(-1.,0.,0.));
#307=AXIS2_PLACEMENT_3D('',#304,#305,#306);
#308=CYLINDRICAL_SURFACE('',#307,3.);
#309=CARTESIAN_POINT('',(147.,59.,0.));
#310=VERTEX_POINT('',#309);
#311=CARTESIAN_POINT('',(147.,59.,2.));
#312=VERTEX_POINT('',#311);
#313=CARTESIAN_POINT('',(147.,59.,0.));
#314=DIRECTION('',(-0.,-0.,1.));
#315=VECTOR('',#314,2.);
#316=LINE('',#313,#315);
#317=EDGE_CURVE('',#310,#312,#316,.T.);
#318=ORIENTED_EDGE('',*,*,#317,.F.);
#319=CARTESIAN_POINT('',(153.,59.,0.));
#320=VERTEX_POINT('',#319);
#321=CARTESIAN_POINT('',(150.,59.,0.));
#322=DIRECTION('',(0.,0.,1.));
#323=DIRECTION('',(1.,0.,-0.));
#324=AXIS2_PLACEMENT_3D('',#321,#322,#323);
#325=CIRCLE('',#324,3.);
#326=EDGE_CURVE('',#320,#310,#325,.T.);
#327=ORIENTED_EDGE('',*,*,#326,.F.);
#328=CARTESIAN_POINT('',(150.,59.,0.));
#329=DIRECTION('',(0.,0.,1.));
#330=DIRECTION('',(1.,0.,-0.));
#331=AXIS2_PLACEMENT_3D('',#328,#329,#330);
#332=CIRCLE('',#331,3.);
#333=EDGE_CURVE('',#310,#320,#332,.T.);
#334=ORIENTED_EDGE('',*,*,#333,.F.);
#335=ORIENTED_EDGE('',*,*,#317,.T.);
#336=CARTESIAN_POINT('',(153.,59.,2.));
#337=VERTEX_POINT('',#336);
#338=CARTESIAN_POINT('',(150.,59.,2.));
#339=DIRECTION('',(0.,0.,1.));
#340=DIRECTION('',(1.,0.,-0.));
#341=AXIS2_PLACEMENT_3D('',#338,#339,#340);
#342=CIRCLE('',#341,3.);
#343=EDGE_CURVE('',#312,#337,#342,.T.);
#344=ORIENTED_EDGE('',*,*,#343,.T.);
#345=CARTESIAN_POINT('',(150.,59.,2.));
#346=DIRECTION('',(0.,0.,1.));
#347=DIRECTION('',(1.,0.,-0.));
#348=AXIS2_PLACEMENT_3D('',#345,#346,#347);
#349=CIRCLE('',#348,3.);
#350=EDGE_CURVE('',#337,#312,#349,.T.);
#351=ORIENTED_EDGE('',*,*,#350,.T.);
#352=EDGE_LOOP('',(#318,#327,#334,#335,#344,#351));
#353=FACE_BOUND('',#352,.T.);
#354=ADVANCED_FACE('',(#353),#308,.F.);
#355=CARTESIAN_POINT('',(173.,48.,2.));
#356=DIRECTION('',(0.,0.,-1.));
#357=DIRECTION('',(-1.,0.,0.));
#358=AXIS2_PLACEMENT_3D('',#355,#356,#357);
#359=CYLINDRICAL_SURFACE('',#358,5.);
#360=CARTESIAN_POINT('',(168.,48.,0.));
#361=VERTEX_POINT('',#360);
#362=CARTESIAN_POINT('',(168.,48.,2.));
#363=VERTEX_POINT('',#362);
#364=CARTESIAN_POINT('',(168.,48.,0.));
#365=DIRECTION('',(-0.,-0.,1.));
#366=VECTOR('',#365,2.);
#367=LINE('',#364,#366);
#368=EDGE_CURVE('',#361,#363,#367,.T.);
#369=ORIENTED_EDGE('',*,*,#368,.F.);
#370=CARTESIAN_POINT('',(178.,48.,0.));
#371=VERTEX_POINT('',#370);
#372=CARTESIAN_POINT('',(173.,48.,0.));
#373=DIRECTION('',(0.,0.,1.));
#374=DIRECTION('',(1.,0.,-0.));
#375=AXIS2_PLACEMENT_3D('',#372,#373,#374);
#376=CIRCLE('',#375,5.);
#377=EDGE_CURVE('',#371,#361,#376,.T.);
#378=ORIENTED_EDGE('',*,*,#377,.F.);
#379=CARTESIAN_POINT('',(173.,48.,0.));
#380=DIRECTION('',(0.,0.,1.));
#381=DIRECTION('',(1.,0.,-0.));
#382=AXIS2_PLACEMENT_3D('',#379,#380,#381);
#383=CIRCLE('',#382,5.);
#384=EDGE_CURVE('',#361,#371,#383,.T.);
#385=ORIENTED_EDGE('',*,*,#384,.F.);
#386=ORIENTED_EDGE('',*,*,#368,.T.);
#387=CARTESIAN_POINT('',(178.,48.,2.));
#388=VERTEX_POINT('',#387);
#389=CARTESIAN_POINT('',(173.,48.,2.));
#390=DIRECTION('',(0.,0.,1.));
#391=DIRECTION('',(1.,0.,-0.));
#392=AXIS2_PLACEMENT_3D('',#389,#390,#391);
#393=CIRCLE('',#392,5.);
#394=EDGE_CURVE('',#363,#388,#393,.T.);
#395=ORIENTED_EDGE('',*,*,#394,.T.);
#396=CARTESIAN_POINT('',(173.,48.,2.));
#397=DIRECTION('',(0.,0.,1.));
#398=DIRECTION('',(1.,0.,-0.));
#399=AXIS2_PLACEMENT_3D('',#396,#397,#398);
#400=CIRCLE('',#399,5.);
#401=EDGE_CURVE('',#388,#363,#400,.T.);
#402=ORIENTED_EDGE('',*,*,#401,.T.);
#403=EDGE_LOOP('',(#369,#378,#385,#386,#395,#402));
#404=FACE_BOUND('',#403,.T.);
#405=ADVANCED_FACE('',(#404),#359,.F.);
#406=CARTESIAN_POINT('',(200.5,33.75,2.));
#407=DIRECTION('',(0.,0.,-1.));
#408=DIRECTION('',(-1.,0.,0.));
#409=AXIS2_PLACEMENT_3D('',#406,#407,#408);
#410=CYLINDRICAL_SURFACE('',#409,2.5);
#411=CARTESIAN_POINT('',(198.,33.75,0.));
#412=VERTEX_POINT('',#411);
#413=CARTESIAN_POINT('',(198.,33.75,2.));
#414=VERTEX_POINT('',#413);
#415=CARTESIAN_POINT('',(198.,33.75,0.));
#416=DIRECTION('',(-0.,-0.,1.));
#417=VECTOR('',#416,2.);
#418=LINE('',#415,#417);
#419=EDGE_CURVE('',#412,#414,#418,.T.);
#420=ORIENTED_EDGE('',*,*,#419,.F.);
#421=CARTESIAN_POINT('',(203.,33.75,0.));
#422=VERTEX_POINT('',#421);
#423=CARTESIAN_POINT('',(200.5,33.75,0.));
#424=DIRECTION('',(0.,0.,1.));
#425=DIRECTION('',(1.,0.,-0.));
#426=AXIS2_PLACEMENT_3D('',#423,#424,#425);
#427=CIRCLE('',#426,2.5);
#428=EDGE_CURVE('',#422,#412,#427,.T.);
#429=ORIENTED_EDGE('',*,*,#428,.F.);
#430=CARTESIAN_POINT('',(200.5,33.75,0.));
#431=DIRECTION('',(0.,0.,1.));
#432=DIRECTION('',(1.,0.,-0.));
#433=AXIS2_PLACEMENT_3D('',#430,#431,#432);
#434=CIRCLE('',#433,2.5);
#435=EDGE_CURVE('',#412,#422,#434,.T.);
#436=ORIENTED_EDGE('',*,*,#435,.F.);
#437=ORIENTED_EDGE('',*,*,#419,.T.);
#438=CARTESIAN_POINT('',(203.,33.75,2.));
#439=VERTEX_POINT('',#438);
#440=CARTESIAN_POINT('',(200.5,33.75,2.));
#441=DIRECTION('',(0.,0.,1.));
#442=DIRECTION('',(1.,0.,-0.));
#443=AXIS2_PLACEMENT_3D('',#440,#441,#442);
#444=CIRCLE('',#443,2.5);
#445=EDGE_CURVE('',#414,#439,#444,.T.);
#446=ORIENTED_EDGE('',*,*,#445,.T.);
#447=CARTESIAN_POINT('',(200.5,33.75,2.));
#448=DIRECTION('',(0.,0.,1.));
#449=DIRECTION('',(1.,0.,-0.));
#450=AXIS2_PLACEMENT_3D('',#447,#448,#449);
#451=CIRCLE('',#450,2.5);
#452=EDGE_CURVE('',#439,#414,#451,.T.);
#453=ORIENTED_EDGE('',*,*,#452,.T.);
#454=EDGE_LOOP('',(#420,#429,#436,#437,#446,#453));
#455=FACE_BOUND('',#454,.T.);
#456=ADVANCED_FACE('',(#455),#410,.F.);
#457=CARTESIAN_POINT('',(200.5,43.75,2.));
#458=DIRECTION('',(0.,0.,-1.));
#459=DIRECTION('',(-1.,0.,0.));
#460=AXIS2_PLACEMENT_3D('',#457,#458,#459);
#461=CYLINDRICAL_SURFACE('',#460,2.5);
#462=CARTESIAN_POINT('',(198.,43.75,0.));
#463=VERTEX_POINT('',#462);
#464=CARTESIAN_POINT('',(198.,43.75,2.));
#465=VERTEX_POINT('',#464);
#466=CARTESIAN_POINT('',(198.,43.75,0.));
#467=DIRECTION('',(-0.,-0.,1.));
#468=VECTOR('',#467,2.);
#469=LINE('',#466,#468);
#470=EDGE_CURVE('',#463,#465,#469,.T.);
#471=ORIENTED_EDGE('',*,*,#470,.F.);
#472=CARTESIAN_POINT('',(203.,43.75,0.));
#473=VERTEX_POINT('',#472);
#474=CARTESIAN_POINT('',(200.5,43.75,0.));
#475=DIRECTION('',(0.,0.,1.));
#476=DIRECTION('',(1.,0.,-0.));
#477=AXIS2_PLACEMENT_3D('',#474,#475,#476);
#478=CIRCLE('',#477,2.5);
#479=EDGE_CURVE('',#473,#463,#478,.T.);
#480=ORIENTED_EDGE('',*,*,#479,.F.);
#481=CARTESIAN_POINT('',(200.5,43.75,0.));
#482=DIRECTION('',(0.,0.,1.));
#483=DIRECTION('',(1.,0.,-0.));
#484=AXIS2_PLACEMENT_3D('',#481,#482,#483);
#485=CIRCLE('',#484,2.5);
#486=EDGE_CURVE('',#463,#473,#485,.T.);
#487=ORIENTED_EDGE('',*,*,#486,.F.);
#488=ORIENTED_EDGE('',*,*,#470,.T.);
#489=CARTESIAN_POINT('',(203.,43.75,2.));
#490=VERTEX_POINT('',#489);
#491=CARTESIAN_POINT('',(200.5,43.75,2.));
#492=DIRECTION('',(0.,0.,1.));
#493=DIRECTION('',(1.,0.,-0.));
#494=AXIS2_PLACEMENT_3D('',#491,#492,#493);
#495=CIRCLE('',#494,2.5);
#496=EDGE_CURVE('',#465,#490,#495,.T.);
#497=ORIENTED_EDGE('',*,*,#496,.T.);
#498=CARTESIAN_POINT('',(200.5,43.75,2.));
#499=DIRECTION('',(0.,0.,1.));
#500=DIRECTION('',(1.,0.,-0.));
#501=AXIS2_PLACEMENT_3D('',#498,#499,#500);
#502=CIRCLE('',#501,2.5);
#503=EDGE_CURVE('',#490,#465,#502,.T.);
#504=ORIENTED_EDGE('',*,*,#503,.T.);
#505=EDGE_LOOP('',(#471,#480,#487,#488,#497,#504));
#506=FACE_BOUND('',#505,.T.);
#507=ADVANCED_FACE('',(#506),#461,.F.);
#508=CARTESIAN_POINT('',(218.,17.,2.));
#509=DIRECTION('',(0.,0.,-1.));
#510=DIRECTION('',(-1.,0.,0.));
#511=AXIS2_PLACEMENT_3D('',#508,#509,#510);
#512=CYLINDRICAL_SURFACE('',#511,5.);
#513=CARTESIAN_POINT('',(213.,17.,0.));
#514=VERTEX_POINT('',#513);
#515=CARTESIAN_POINT('',(213.,17.,2.));
#516=VERTEX_POINT('',#515);
#517=CARTESIAN_POINT('',(213.,17.,0.));
#518=DIRECTION('',(-0.,-0.,1.));
#519=VECTOR('',#518,2.);
#520=LINE('',#517,#519);
#521=EDGE_CURVE('',#514,#516,#520,.T.);
#522=ORIENTED_EDGE('',*,*,#521,.F.);
#523=CARTESIAN_POINT('',(223.,17.,0.));
#524=VERTEX_POINT('',#523);
#525=CARTESIAN_POINT('',(218.,17.,0.));
#526=DIRECTION('',(0.,0.,1.));
#527=DIRECTION('',(1.,0.,-0.));
#528=AXIS2_PLACEMENT_3D('',#525,#526,#527);
#529=CIRCLE('',#528,5.);
#530=EDGE_CURVE('',#524,#514,#529,.T.);
#531=ORIENTED_EDGE('',*,*,#530,.F.);
#532=CARTESIAN_POINT('',(218.,17.,0.));
#533=DIRECTION('',(0.,0.,1.));
#534=DIRECTION('',(1.,0.,-0.));
#535=AXIS2_PLACEMENT_3D('',#532,#533,#534);
#536=CIRCLE('',#535,5.);
#537=EDGE_CURVE('',#514,#524,#536,.T.);
#538=ORIENTED_EDGE('',*,*,#537,.F.);
#539=ORIENTED_EDGE('',*,*,#521,.T.);
#540=CARTESIAN_POINT('',(223.,17.,2.));
#541=VERTEX_POINT('',#540);
#542=CARTESIAN_POINT('',(218.,17.,2.));
#543=DIRECTION('',(0.,0.,1.));
#544=DIRECTION('',(1.,0.,-0.));
#545=AXIS2_PLACEMENT_3D('',#542,#543,#544);
#546=CIRCLE('',#545,5.);
#547=EDGE_CURVE('',#516,#541,#546,.T.);
#548=ORIENTED_EDGE('',*,*,#547,.T.);
#549=CARTESIAN_POINT('',(218.,17.,2.));
#550=DIRECTION('',(0.,0.,1.));
#551=DIRECTION('',(1.,0.,-0.));
#552=AXIS2_PLACEMENT_3D('',#549,#550,#551);
#553=CIRCLE('',#552,5.);
#554=EDGE_CURVE('',#541,#516,#553,.T.);
#555=ORIENTED_EDGE('',*,*,#554,.T.);
#556=EDGE_LOOP('',(#522,#531,#538,#539,#548,#555));
#557=FACE_BOUND('',#556,.T.);
#558=ADVANCED_FACE('',(#557),#512,.F.);
#559=CARTESIAN_POINT('',(218.,60.,2.));
#560=DIRECTION('',(0.,0.,-1.));
#561=DIRECTION('',(-1.,0.,0.));
#562=AXIS2_PLACEMENT_3D('',#559,#560,#561);
#563=CYLINDRICAL_SURFACE('',#562,5.);
#564=CARTESIAN_POINT('',(213.,60.,0.));
#565=VERTEX_POINT('',#564);
#566=CARTESIAN_POINT('',(213.,60.,2.));
#567=VERTEX_POINT('',#566);
#568=CARTESIAN_POINT('',(213.,60.,0.));
#569=DIRECTION('',(-0.,-0.,1.));
#570=VECTOR('',#569,2.);
#571=LINE('',#568,#570);
#572=EDGE_CURVE('',#565,#567,#571,.T.);
#573=ORIENTED_EDGE('',*,*,#572,.F.);
#574=CARTESIAN_POINT('',(223.,60.,0.));
#575=VERTEX_POINT('',#574);
#576=CARTESIAN_POINT('',(218.,60.,0.));
#577=DIRECTION('',(0.,0.,1.));
#578=DIRECTION('',(1.,0.,-0.));
#579=AXIS2_PLACEMENT_3D('',#576,#577,#578);
#580=CIRCLE('',#579,5.);
#581=EDGE_CURVE('',#575,#565,#580,.T.);
#582=ORIENTED_EDGE('',*,*,#581,.F.);
#583=CARTESIAN_POINT('',(218.,60.,0.));
#584=DIRECTION('',(0.,0.,1.));
#585=DIRECTION('',(1.,0.,-0.));
#586=AXIS2_PLACEMENT_3D('',#583,#584,#585);
#587=CIRCLE('',#586,5.);
#588=EDGE_CURVE('',#565,#575,#587,.T.);
#589=ORIENTED_EDGE('',*,*,#588,.F.);
#590=ORIENTED_EDGE('',*,*,#572,.T.);
#591=CARTESIAN_POINT('',(223.,60.,2.));
#592=VERTEX_POINT('',#591);
#593=CARTESIAN_POINT('',(218.,60.,2.));
#594=DIRECTION('',(0.,0.,1.));
#595=DIRECTION('',(1.,0.,-0.));
#596=AXIS2_PLACEMENT_3D('',#593,#594,#595);
#597=CIRCLE('',#596,5.);
#598=EDGE_CURVE('',#567,#592,#597,.T.);
#599=ORIENTED_EDGE('',*,*,#598,.T.);
#600=CARTESIAN_POINT('',(218.,60.,2.));
#601=DIRECTION('',(0.,0.,1.));
#602=DIRECTION('',(1.,0.,-0.));
#603=AXIS2_PLACEMENT_3D('',#600,#601,#602);
#604=CIRCLE('',#603,5.);
#605=EDGE_CURVE('',#592,#567,#604,.T.);
#606=ORIENTED_EDGE('',*,*,#605,.T.);
#607=EDGE_LOOP('',(#573,#582,#589,#590,#599,#606));
#608=FACE_BOUND('',#607,.T.);
#609=ADVANCED_FACE('',(#608),#563,.F.);
#610=CARTESIAN_POINT('',(181.75,67.5,2.));
#611=DIRECTION('',(0.,-1.,0.));
#612=DIRECTION('',(0.,0.,-1.));
#613=AXIS2_PLACEMENT_3D('',#610,#611,#612);
#614=PLANE('',#613);
#615=CARTESIAN_POINT('',(229.5,67.5,0.));
#616=DIRECTION('',(-1.,0.,0.));
#617=VECTOR('',#616,95.5);
#618=LINE('',#615,#617);
#619=EDGE_CURVE('',#228,#33,#618,.T.);
#620=ORIENTED_EDGE('',*,*,#619,.T.);
#621=ORIENTED_EDGE('',*,*,#62,.F.);
#622=CARTESIAN_POINT('',(229.5,67.5,2.));
#623=DIRECTION('',(-1.,0.,0.));
#624=VECTOR('',#623,95.5);
#625=LINE('',#622,#624);
#626=EDGE_CURVE('',#236,#51,#625,.T.);
#627=ORIENTED_EDGE('',*,*,#626,.F.);
#628=ORIENTED_EDGE('',*,*,#241,.T.);
#629=EDGE_LOOP('',(#620,#621,#627,#628));
#630=FACE_BOUND('',#629,.T.);
#631=ADVANCED_FACE('',(#630),#614,.F.);
#632=CARTESIAN_POINT('',(0.,0.,2.));
#633=DIRECTION('',(0.,0.,1.));
#634=DIRECTION('',(1.,0.,0.));
#635=AXIS2_PLACEMENT_3D('',#632,#633,#634);
#636=PLANE('',#635);
#637=ORIENTED_EDGE('',*,*,#598,.F.);
#638=ORIENTED_EDGE('',*,*,#605,.F.);
#639=EDGE_LOOP('',(#637,#638));
#640=FACE_BOUND('',#639,.T.);
#641=ORIENTED_EDGE('',*,*,#547,.F.);
#642=ORIENTED_EDGE('',*,*,#554,.F.);
#643=EDGE_LOOP('',(#641,#642));
#644=FACE_BOUND('',#643,.T.);
#645=ORIENTED_EDGE('',*,*,#496,.F.);
#646=ORIENTED_EDGE('',*,*,#503,.F.);
#647=EDGE_LOOP('',(#645,#646));
#648=FACE_BOUND('',#647,.T.);
#649=ORIENTED_EDGE('',*,*,#445,.F.);
#650=ORIENTED_EDGE('',*,*,#452,.F.);
#651=EDGE_LOOP('',(#649,#650));
#652=FACE_BOUND('',#651,.T.);
#653=ORIENTED_EDGE('',*,*,#394,.F.);
#654=ORIENTED_EDGE('',*,*,#401,.F.);
#655=EDGE_LOOP('',(#653,#654));
#656=FACE_BOUND('',#655,.T.);
#657=ORIENTED_EDGE('',*,*,#343,.F.);
#658=ORIENTED_EDGE('',*,*,#350,.F.);
#659=EDGE_LOOP('',(#657,#658));
#660=FACE_BOUND('',#659,.T.);
#661=ORIENTED_EDGE('',*,*,#292,.F.);
#662=ORIENTED_EDGE('',*,*,#299,.F.);
#663=EDGE_LOOP('',(#661,#662));
#664=FACE_BOUND('',#663,.T.);
#665=ORIENTED_EDGE('',*,*,#56,.T.);
#666=ORIENTED_EDGE('',*,*,#92,.T.);
#667=ORIENTED_EDGE('',*,*,#123,.F.);
#668=ORIENTED_EDGE('',*,*,#154,.F.);
#669=ORIENTED_EDGE('',*,*,#185,.F.);
#670=ORIENTED_EDGE('',*,*,#216,.T.);
#671=ORIENTED_EDGE('',*,*,#247,.T.);
#672=ORIENTED_EDGE('',*,*,#626,.T.);
#673=EDGE_LOOP('',(#665,#666,#667,#668,#669,#670,#671,#672));
#674=FACE_BOUND('',#673,.T.);
#675=ADVANCED_FACE('',(#640,#644,#648,#652,#656,#660,#664,#674),#636,.T.);
#676=CARTESIAN_POINT('',(0.,0.,0.));
#677=DIRECTION('',(0.,0.,1.));
#678=DIRECTION('',(1.,0.,0.));
#679=AXIS2_PLACEMENT_3D('',#676,#677,#678);
#680=PLANE('',#679);
#681=ORIENTED_EDGE('',*,*,#581,.T.);
#682=ORIENTED_EDGE('',*,*,#588,.T.);
#683=EDGE_LOOP('',(#681,#682));
#684=FACE_BOUND('',#683,.T.);
#685=ORIENTED_EDGE('',*,*,#530,.T.);
#686=ORIENTED_EDGE('',*,*,#537,.T.);
#687=EDGE_LOOP('',(#685,#686));
#688=FACE_BOUND('',#687,.T.);
#689=ORIENTED_EDGE('',*,*,#479,.T.);
#690=ORIENTED_EDGE('',*,*,#486,.T.);
#691=EDGE_LOOP('',(#689,#690));
#692=FACE_BOUND('',#691,.T.);
#693=ORIENTED_EDGE('',*,*,#428,.T.);
#694=ORIENTED_EDGE('',*,*,#435,.T.);
#695=EDGE_LOOP('',(#693,#694));
#696=FACE_BOUND('',#695,.T.);
#697=ORIENTED_EDGE('',*,*,#377,.T.);
#698=ORIENTED_EDGE('',*,*,#384,.T.);
#699=EDGE_LOOP('',(#697,#698));
#700=FACE_BOUND('',#699,.T.);
#701=ORIENTED_EDGE('',*,*,#326,.T.);
#702=ORIENTED_EDGE('',*,*,#333,.T.);
#703=EDGE_LOOP('',(#701,#702));
#704=FACE_BOUND('',#703,.T.);
#705=ORIENTED_EDGE('',*,*,#275,.T.);
#706=ORIENTED_EDGE('',*,*,#282,.T.);
#707=EDGE_LOOP('',(#705,#706));
#708=FACE_BOUND('',#707,.T.);
#709=ORIENTED_EDGE('',*,*,#40,.F.);
#710=ORIENTED_EDGE('',*,*,#619,.F.);
#711=ORIENTED_EDGE('',*,*,#233,.F.);
#712=ORIENTED_EDGE('',*,*,#202,.F.);
#713=ORIENTED_EDGE('',*,*,#171,.T.);
#714=ORIENTED_EDGE('',*,*,#140,.T.);
#715=ORIENTED_EDGE('',*,*,#109,.T.);
#716=ORIENTED_EDGE('',*,*,#78,.F.);
#717=EDGE_LOOP('',(#709,#710,#711,#712,#713,#714,#715,#716));
#718=FACE_BOUND('',#717,.T.);
#719=ADVANCED_FACE('',(#684,#688,#692,#696,#700,#704,#708,#718),#680,.F.);
#720=CLOSED_SHELL('',(#66,#97,#128,#159,#190,#221,#252,#303,#354,#405,#456,#507,#558,#609,#631,#675,#719));
#721=MANIFOLD_SOLID_BREP('Body 10',#720);
#722=COLOUR_RGB('',0.627451003,0.627451003,0.643137276);
#723=FILL_AREA_STYLE_COLOUR('',#722);
#724=FILL_AREA_STYLE('',(#723));
#725=SURFACE_STYLE_FILL_AREA(#724);
#726=SURFACE_SIDE_STYLE('',(#725));
#727=SURFACE_STYLE_USAGE(.BOTH.,#726);
#728=PRESENTATION_STYLE_ASSIGNMENT((#727));
#26=STYLED_ITEM('',(#728),#721);
#730=CARTESIAN_POINT('',(218.,17.,10.));
#731=DIRECTION('',(0.,0.,-1.));
#732=DIRECTION('',(-1.,0.,0.));
#733=AXIS2_PLACEMENT_3D('',#730,#731,#732);
#734=CYLINDRICAL_SURFACE('',#733,5.);
#735=CARTESIAN_POINT('',(213.,17.,0.));
#736=VERTEX_POINT('',#735);
#737=CARTESIAN_POINT('',(213.,17.,8.8));
#738=VERTEX_POINT('',#737);
#739=CARTESIAN_POINT('',(213.,17.,0.));
#740=DIRECTION('',(-0.,-0.,1.));
#741=VECTOR('',#740,8.8);
#742=LINE('',#739,#741);
#743=EDGE_CURVE('',#736,#738,#742,.T.);
#744=ORIENTED_EDGE('',*,*,#743,.T.);
#745=CARTESIAN_POINT('',(223.,17.,8.8));
#746=VERTEX_POINT('',#745);
#747=CARTESIAN_POINT('',(218.,17.,8.8));
#748=DIRECTION('',(0.,0.,1.));
#749=DIRECTION('',(1.,0.,-0.));
#750=AXIS2_PLACEMENT_3D('',#747,#748,#749);
#751=CIRCLE('',#750,5.);
#752=EDGE_CURVE('',#746,#738,#751,.T.);
#753=ORIENTED_EDGE('',*,*,#752,.F.);
#754=CARTESIAN_POINT('',(218.,17.,8.8));
#755=DIRECTION('',(0.,0.,1.));
#756=DIRECTION('',(1.,0.,-0.));
#757=AXIS2_PLACEMENT_3D('',#754,#755,#756);
#758=CIRCLE('',#757,5.);
#759=EDGE_CURVE('',#738,#746,#758,.T.);
#760=ORIENTED_EDGE('',*,*,#759,.F.);
#761=ORIENTED_EDGE('',*,*,#743,.F.);
#762=CARTESIAN_POINT('',(223.,17.,0.));
#763=VERTEX_POINT('',#762);
#764=CARTESIAN_POINT('',(218.,17.,0.));
#765=DIRECTION('',(0.,0.,1.));
#766=DIRECTION('',(1.,0.,-0.));
#767=AXIS2_PLACEMENT_3D('',#764,#765,#766);
#768=CIRCLE('',#767,5.);
#769=EDGE_CURVE('',#736,#763,#768,.T.);
#770=ORIENTED_EDGE('',*,*,#769,.T.);
#771=CARTESIAN_POINT('',(218.,17.,0.));
#772=DIRECTION('',(0.,0.,1.));
#773=DIRECTION('',(1.,0.,-0.));
#774=AXIS2_PLACEMENT_3D('',#771,#772,#773);
#775=CIRCLE('',#774,5.);
#776=EDGE_CURVE('',#763,#736,#775,.T.);
#777=ORIENTED_EDGE('',*,*,#776,.T.);
#778=EDGE_LOOP('',(#744,#753,#760,#761,#770,#777));
#779=FACE_BOUND('',#778,.T.);
#780=ADVANCED_FACE('',(#779),#734,.T.);
#781=CARTESIAN_POINT('',(0.,0.,8.8));
#782=DIRECTION('',(0.,0.,1.));
#783=DIRECTION('',(1.,0.,0.));
#784=AXIS2_PLACEMENT_3D('',#781,#782,#783);
#785=PLANE('',#784);
#786=ORIENTED_EDGE('',*,*,#752,.T.);
#787=ORIENTED_EDGE('',*,*,#759,.T.);
#788=EDGE_LOOP('',(#786,#787));
#789=FACE_BOUND('',#788,.T.);
#790=ADVANCED_FACE('',(#789),#785,.T.);
#791=CARTESIAN_POINT('',(0.,0.,0.));
#792=DIRECTION('',(0.,0.,1.));
#793=DIRECTION('',(1.,0.,0.));
#794=AXIS2_PLACEMENT_3D('',#791,#792,#793);
#795=PLANE('',#794);
#796=ORIENTED_EDGE('',*,*,#769,.F.);
#797=ORIENTED_EDGE('',*,*,#776,.F.);
#798=EDGE_LOOP('',(#796,#797));
#799=FACE_BOUND('',#798,.T.);
#800=ADVANCED_FACE('',(#799),#795,.F.);
#801=CLOSED_SHELL('',(#780,#790,#800));
#802=MANIFOLD_SOLID_BREP('Body 09',#801);
#729=STYLED_ITEM('',(#728),#802);
#804=CARTESIAN_POINT('',(218.,60.,10.));
#805=DIRECTION('',(0.,0.,-1.));
#806=DIRECTION('',(-1.,0.,0.));
#807=AXIS2_PLACEMENT_3D('',#804,#805,#806);
#808=CYLINDRICAL_SURFACE('',#807,5.);
#809=CARTESIAN_POINT('',(213.,60.,0.));
#810=VERTEX_POINT('',#809);
#811=CARTESIAN_POINT('',(213.,60.,10.));
#812=VERTEX_POINT('',#811);
#813=CARTESIAN_POINT('',(213.,60.,0.));
#814=DIRECTION('',(-0.,-0.,1.));
#815=VECTOR('',#814,10.);
#816=LINE('',#813,#815);
#817=EDGE_CURVE('',#810,#812,#816,.T.);
#818=ORIENTED_EDGE('',*,*,#817,.T.);
#819=CARTESIAN_POINT('',(223.,60.,10.));
#820=VERTEX_POINT('',#819);
#821=CARTESIAN_POINT('',(218.,60.,10.));
#822=DIRECTION('',(0.,0.,1.));
#823=DIRECTION('',(1.,0.,-0.));
#824=AXIS2_PLACEMENT_3D('',#821,#822,#823);
#825=CIRCLE('',#824,5.);
#826=EDGE_CURVE('',#820,#812,#825,.T.);
#827=ORIENTED_EDGE('',*,*,#826,.F.);
#828=CARTESIAN_POINT('',(218.,60.,10.));
#829=DIRECTION('',(0.,0.,1.));
#830=DIRECTION('',(1.,0.,-0.));
#831=AXIS2_PLACEMENT_3D('',#828,#829,#830);
#832=CIRCLE('',#831,5.);
#833=EDGE_CURVE('',#812,#820,#832,.T.);
#834=ORIENTED_EDGE('',*,*,#833,.F.);
#835=ORIENTED_EDGE('',*,*,#817,.F.);
#836=CARTESIAN_POINT('',(223.,60.,0.));
#837=VERTEX_POINT('',#836);
#838=CARTESIAN_POINT('',(218.,60.,0.));
#839=DIRECTION('',(0.,0.,1.));
#840=DIRECTION('',(1.,0.,-0.));
#841=AXIS2_PLACEMENT_3D('',#838,#839,#840);
#842=CIRCLE('',#841,5.);
#843=EDGE_CURVE('',#810,#837,#842,.T.);
#844=ORIENTED_EDGE('',*,*,#843,.T.);
#845=CARTESIAN_POINT('',(218.,60.,0.));
#846=DIRECTION('',(0.,0.,1.));
#847=DIRECTION('',(1.,0.,-0.));
#848=AXIS2_PLACEMENT_3D('',#845,#846,#847);
#849=CIRCLE('',#848,5.);
#850=EDGE_CURVE('',#837,#810,#849,.T.);
#851=ORIENTED_EDGE('',*,*,#850,.T.);
#852=EDGE_LOOP('',(#818,#827,#834,#835,#844,#851));
#853=FACE_BOUND('',#852,.T.);
#854=ADVANCED_FACE('',(#853),#808,.T.);
#855=CARTESIAN_POINT('',(0.,0.,10.));
#856=DIRECTION('',(0.,0.,1.));
#857=DIRECTION('',(1.,0.,0.));
#858=AXIS2_PLACEMENT_3D('',#855,#856,#857);
#859=PLANE('',#858);
#860=ORIENTED_EDGE('',*,*,#826,.T.);
#861=ORIENTED_EDGE('',*,*,#833,.T.);
#862=EDGE_LOOP('',(#860,#861));
#863=FACE_BOUND('',#862,.T.);
#864=ADVANCED_FACE('',(#863),#859,.T.);
#865=CARTESIAN_POINT('',(0.,0.,0.));
#866=DIRECTION('',(0.,0.,1.));
#867=DIRECTION('',(1.,0.,0.));
#868=AXIS2_PLACEMENT_3D('',#865,#866,#867);
#869=PLANE('',#868);
#870=ORIENTED_EDGE('',*,*,#843,.F.);
#871=ORIENTED_EDGE('',*,*,#850,.F.);
#872=EDGE_LOOP('',(#870,#871));
#873=FACE_BOUND('',#872,.T.);
#874=ADVANCED_FACE('',(#873),#869,.F.);
#875=CLOSED_SHELL('',(#854,#864,#874));
#876=MANIFOLD_SOLID_BREP('Body 08',#875);
#803=STYLED_ITEM('',(#728),#876);
#878=CARTESIAN_POINT('',(200.5,43.75,10.));
#879=DIRECTION('',(0.,0.,-1.));
#880=DIRECTION('',(-1.,0.,0.));
#881=AXIS2_PLACEMENT_3D('',#878,#879,#880);
#882=CYLINDRICAL_SURFACE('',#881,2.5);
#883=CARTESIAN_POINT('',(198.,43.75,0.));
#884=VERTEX_POINT('',#883);
#885=CARTESIAN_POINT('',(198.,43.75,10.));
#886=VERTEX_POINT('',#885);
#887=CARTESIAN_POINT('',(198.,43.75,0.));
#888=DIRECTION('',(-0.,-0.,1.));
#889=VECTOR('',#888,10.);
#890=LINE('',#887,#889);
#891=EDGE_CURVE('',#884,#886,#890,.T.);
#892=ORIENTED_EDGE('',*,*,#891,.T.);
#893=CARTESIAN_POINT('',(203.,43.75,10.));
#894=VERTEX_POINT('',#893);
#895=CARTESIAN_POINT('',(200.5,43.75,10.));
#896=DIRECTION('',(0.,0.,1.));
#897=DIRECTION('',(1.,0.,-0.));
#898=AXIS2_PLACEMENT_3D('',#895,#896,#897);
#899=CIRCLE('',#898,2.5);
#900=EDGE_CURVE('',#894,#886,#899,.T.);
#901=ORIENTED_EDGE('',*,*,#900,.F.);
#902=CARTESIAN_POINT('',(200.5,43.75,10.));
#903=DIRECTION('',(0.,0.,1.));
#904=DIRECTION('',(1.,0.,-0.));
#905=AXIS2_PLACEMENT_3D('',#902,#903,#904);
#906=CIRCLE('',#905,2.5);
#907=EDGE_CURVE('',#886,#894,#906,.T.);
#908=ORIENTED_EDGE('',*,*,#907,.F.);
#909=ORIENTED_EDGE('',*,*,#891,.F.);
#910=CARTESIAN_POINT('',(203.,43.75,0.));
#911=VERTEX_POINT('',#910);
#912=CARTESIAN_POINT('',(200.5,43.75,0.));
#913=DIRECTION('',(0.,0.,1.));
#914=DIRECTION('',(1.,0.,-0.));
#915=AXIS2_PLACEMENT_3D('',#912,#913,#914);
#916=CIRCLE('',#915,2.5);
#917=EDGE_CURVE('',#884,#911,#916,.T.);
#918=ORIENTED_EDGE('',*,*,#917,.T.);
#919=CARTESIAN_POINT('',(200.5,43.75,0.));
#920=DIRECTION('',(0.,0.,1.));
#921=DIRECTION('',(1.,0.,-0.));
#922=AXIS2_PLACEMENT_3D('',#919,#920,#921);
#923=CIRCLE('',#922,2.5);
#924=EDGE_CURVE('',#911,#884,#923,.T.);
#925=ORIENTED_EDGE('',*,*,#924,.T.);
#926=EDGE_LOOP('',(#892,#901,#908,#909,#918,#925));
#927=FACE_BOUND('',#926,.T.);
#928=ADVANCED_FACE('',(#927),#882,.T.);
#929=CARTESIAN_POINT('',(0.,0.,10.));
#930=DIRECTION('',(0.,0.,1.));
#931=DIRECTION('',(1.,0.,0.));
#932=AXIS2_PLACEMENT_3D('',#929,#930,#931);
#933=PLANE('',#932);
#934=ORIENTED_EDGE('',*,*,#900,.T.);
#935=ORIENTED_EDGE('',*,*,#907,.T.);
#936=EDGE_LOOP('',(#934,#935));
#937=FACE_BOUND('',#936,.T.);
#938=ADVANCED_FACE('',(#937),#933,.T.);
#939=CARTESIAN_POINT('',(0.,0.,0.));
#940=DIRECTION('',(0.,0.,1.));
#941=DIRECTION('',(1.,0.,0.));
#942=AXIS2_PLACEMENT_3D('',#939,#940,#941);
#943=PLANE('',#942);
#944=ORIENTED_EDGE('',*,*,#917,.F.);
#945=ORIENTED_EDGE('',*,*,#924,.F.);
#946=EDGE_LOOP('',(#944,#945));
#947=FACE_BOUND('',#946,.T.);
#948=ADVANCED_FACE('',(#947),#943,.F.);
#949=CLOSED_SHELL('',(#928,#938,#948));
#950=MANIFOLD_SOLID_BREP('Body 07',#949);
#877=STYLED_ITEM('',(#728),#950);
#952=CARTESIAN_POINT('',(150.,21.,10.));
#953=DIRECTION('',(0.,0.,-1.));
#954=DIRECTION('',(-1.,0.,0.));
#955=AXIS2_PLACEMENT_3D('',#952,#953,#954);
#956=CYLINDRICAL_SURFACE('',#955,3.);
#957=CARTESIAN_POINT('',(147.,21.,0.));
#958=VERTEX_POINT('',#957);
#959=CARTESIAN_POINT('',(147.,21.,10.));
#960=VERTEX_POINT('',#959);
#961=CARTESIAN_POINT('',(147.,21.,0.));
#962=DIRECTION('',(-0.,-0.,1.));
#963=VECTOR('',#962,10.);
#964=LINE('',#961,#963);
#965=EDGE_CURVE('',#958,#960,#964,.T.);
#966=ORIENTED_EDGE('',*,*,#965,.T.);
#967=CARTESIAN_POINT('',(153.,21.,10.));
#968=VERTEX_POINT('',#967);
#969=CARTESIAN_POINT('',(150.,21.,10.));
#970=DIRECTION('',(0.,0.,1.));
#971=DIRECTION('',(1.,0.,-0.));
#972=AXIS2_PLACEMENT_3D('',#969,#970,#971);
#973=CIRCLE('',#972,3.);
#974=EDGE_CURVE('',#968,#960,#973,.T.);
#975=ORIENTED_EDGE('',*,*,#974,.F.);
#976=CARTESIAN_POINT('',(150.,21.,10.));
#977=DIRECTION('',(0.,0.,1.));
#978=DIRECTION('',(1.,0.,-0.));
#979=AXIS2_PLACEMENT_3D('',#976,#977,#978);
#980=CIRCLE('',#979,3.);
#981=EDGE_CURVE('',#960,#968,#980,.T.);
#982=ORIENTED_EDGE('',*,*,#981,.F.);
#983=ORIENTED_EDGE('',*,*,#965,.F.);
#984=CARTESIAN_POINT('',(153.,21.,0.));
#985=VERTEX_POINT('',#984);
#986=CARTESIAN_POINT('',(150.,21.,0.));
#987=DIRECTION('',(0.,0.,1.));
#988=DIRECTION('',(1.,0.,-0.));
#989=AXIS2_PLACEMENT_3D('',#986,#987,#988);
#990=CIRCLE('',#989,3.);
#991=EDGE_CURVE('',#958,#985,#990,.T.);
#992=ORIENTED_EDGE('',*,*,#991,.T.);
#993=CARTESIAN_POINT('',(150.,21.,0.));
#994=DIRECTION('',(0.,0.,1.));
#995=DIRECTION('',(1.,0.,-0.));
#996=AXIS2_PLACEMENT_3D('',#993,#994,#995);
#997=CIRCLE('',#996,3.);
#998=EDGE_CURVE('',#985,#958,#997,.T.);
#999=ORIENTED_EDGE('',*,*,#998,.T.);
#1000=EDGE_LOOP('',(#966,#975,#982,#983,#992,#999));
#1001=FACE_BOUND('',#1000,.T.);
#1002=ADVANCED_FACE('',(#1001),#956,.T.);
#1003=CARTESIAN_POINT('',(0.,0.,10.));
#1004=DIRECTION('',(0.,0.,1.));
#1005=DIRECTION('',(1.,0.,0.));
#1006=AXIS2_PLACEMENT_3D('',#1003,#1004,#1005);
#1007=PLANE('',#1006);
#1008=ORIENTED_EDGE('',*,*,#974,.T.);
#1009=ORIENTED_EDGE('',*,*,#981,.T.);
#1010=EDGE_LOOP('',(#1008,#1009));
#1011=FACE_BOUND('',#1010,.T.);
#1012=ADVANCED_FACE('',(#1011),#1007,.T.);
#1013=CARTESIAN_POINT('',(0.,0.,0.));
#1014=DIRECTION('',(0.,0.,1.));
#1015=DIRECTION('',(1.,0.,0.));
#1016=AXIS2_PLACEMENT_3D('',#1013,#1014,#1015);
#1017=PLANE('',#1016);
#1018=ORIENTED_EDGE('',*,*,#991,.F.);
#1019=ORIENTED_EDGE('',*,*,#998,.F.);
#1020=EDGE_LOOP('',(#1018,#1019));
#1021=FACE_BOUND('',#1020,.T.);
#1022=ADVANCED_FACE('',(#1021),#1017,.F.);
#1023=CLOSED_SHELL('',(#1002,#1012,#1022));
#1024=MANIFOLD_SOLID_BREP('Body 06',#1023);
#951=STYLED_ITEM('',(#728),#1024);
#1026=CARTESIAN_POINT('',(200.5,33.75,10.));
#1027=DIRECTION('',(0.,0.,-1.));
#1028=DIRECTION('',(-1.,0.,0.));
#1029=AXIS2_PLACEMENT_3D('',#1026,#1027,#1028);
#1030=CYLINDRICAL_SURFACE('',#1029,2.5);
#1031=CARTESIAN_POINT('',(198.,33.75,0.));
#1032=VERTEX_POINT('',#1031);
#1033=CARTESIAN_POINT('',(198.,33.75,10.));
#1034=VERTEX_POINT('',#1033);
#1035=CARTESIAN_POINT('',(198.,33.75,0.));
#1036=DIRECTION('',(-0.,-0.,1.));
#1037=VECTOR('',#1036,10.);
#1038=LINE('',#1035,#1037);
#1039=EDGE_CURVE('',#1032,#1034,#1038,.T.);
#1040=ORIENTED_EDGE('',*,*,#1039,.T.);
#1041=CARTESIAN_POINT('',(203.,33.75,10.));
#1042=VERTEX_POINT('',#1041);
#1043=CARTESIAN_POINT('',(200.5,33.75,10.));
#1044=DIRECTION('',(0.,0.,1.));
#1045=DIRECTION('',(1.,0.,-0.));
#1046=AXIS2_PLACEMENT_3D('',#1043,#1044,#1045);
#1047=CIRCLE('',#1046,2.5);
#1048=EDGE_CURVE('',#1042,#1034,#1047,.T.);
#1049=ORIENTED_EDGE('',*,*,#1048,.F.);
#1050=CARTESIAN_POINT('',(200.5,33.75,10.));
#1051=DIRECTION('',(0.,0.,1.));
#1052=DIRECTION('',(1.,0.,-0.));
#1053=AXIS2_PLACEMENT_3D('',#1050,#1051,#1052);
#1054=CIRCLE('',#1053,2.5);
#1055=EDGE_CURVE('',#1034,#1042,#1054,.T.);
#1056=ORIENTED_EDGE('',*,*,#1055,.F.);
#1057=ORIENTED_EDGE('',*,*,#1039,.F.);
#1058=CARTESIAN_POINT('',(203.,33.75,0.));
#1059=VERTEX_POINT('',#1058);
#1060=CARTESIAN_POINT('',(200.5,33.75,0.));
#1061=DIRECTION('',(0.,0.,1.));
#1062=DIRECTION('',(1.,0.,-0.));
#1063=AXIS2_PLACEMENT_3D('',#1060,#1061,#1062);
#1064=CIRCLE('',#1063,2.5);
#1065=EDGE_CURVE('',#1032,#1059,#1064,.T.);
#1066=ORIENTED_EDGE('',*,*,#1065,.T.);
#1067=CARTESIAN_POINT('',(200.5,33.75,0.));
#1068=DIRECTION('',(0.,0.,1.));
#1069=DIRECTION('',(1.,0.,-0.));
#1070=AXIS2_PLACEMENT_3D('',#1067,#1068,#1069);
#1071=CIRCLE('',#1070,2.5);
#1072=EDGE_CURVE('',#1059,#1032,#1071,.T.);
#1073=ORIENTED_EDGE('',*,*,#1072,.T.);
#1074=EDGE_LOOP('',(#1040,#1049,#1056,#1057,#1066,#1073));
#1075=FACE_BOUND('',#1074,.T.);
#1076=ADVANCED_FACE('',(#1075),#1030,.T.);
#1077=CARTESIAN_POINT('',(0.,0.,10.));
#1078=DIRECTION('',(0.,0.,1.));
#1079=DIRECTION('',(1.,0.,0.));
#1080=AXIS2_PLACEMENT_3D('',#1077,#1078,#1079);
#1081=PLANE('',#1080);
#1082=ORIENTED_EDGE('',*,*,#1048,.T.);
#1083=ORIENTED_EDGE('',*,*,#1055,.T.);
#1084=EDGE_LOOP('',(#1082,#1083));
#1085=FACE_BOUND('',#1084,.T.);
#1086=ADVANCED_FACE('',(#1085),#1081,.T.);
#1087=CARTESIAN_POINT('',(0.,0.,0.));
#1088=DIRECTION('',(0.,0.,1.));
#1089=DIRECTION('',(1.,0.,0.));
#1090=AXIS2_PLACEMENT_3D('',#1087,#1088,#1089);
#1091=PLANE('',#1090);
#1092=ORIENTED_EDGE('',*,*,#1065,.F.);
#1093=ORIENTED_EDGE('',*,*,#1072,.F.);
#1094=EDGE_LOOP('',(#1092,#1093));
#1095=FACE_BOUND('',#1094,.T.);
#1096=ADVANCED_FACE('',(#1095),#1091,.F.);
#1097=CLOSED_SHELL('',(#1076,#1086,#1096));
#1098=MANIFOLD_SOLID_BREP('Body 05',#1097);
#1025=STYLED_ITEM('',(#728),#1098);
#1100=CARTESIAN_POINT('',(150.,59.,10.));
#1101=DIRECTION('',(0.,0.,-1.));
#1102=DIRECTION('',(-1.,0.,0.));
#1103=AXIS2_PLACEMENT_3D('',#1100,#1101,#1102);
#1104=CYLINDRICAL_SURFACE('',#1103,3.);
#1105=CARTESIAN_POINT('',(147.,59.,0.));
#1106=VERTEX_POINT('',#1105);
#1107=CARTESIAN_POINT('',(147.,59.,10.));
#1108=VERTEX_POINT('',#1107);
#1109=CARTESIAN_POINT('',(147.,59.,0.));
#1110=DIRECTION('',(-0.,-0.,1.));
#1111=VECTOR('',#1110,10.);
#1112=LINE('',#1109,#1111);
#1113=EDGE_CURVE('',#1106,#1108,#1112,.T.);
#1114=ORIENTED_EDGE('',*,*,#1113,.T.);
#1115=CARTESIAN_POINT('',(153.,59.,10.));
#1116=VERTEX_POINT('',#1115);
#1117=CARTESIAN_POINT('',(150.,59.,10.));
#1118=DIRECTION('',(0.,0.,1.));
#1119=DIRECTION('',(1.,0.,-0.));
#1120=AXIS2_PLACEMENT_3D('',#1117,#1118,#1119);
#1121=CIRCLE('',#1120,3.);
#1122=EDGE_CURVE('',#1116,#1108,#1121,.T.);
#1123=ORIENTED_EDGE('',*,*,#1122,.F.);
#1124=CARTESIAN_POINT('',(150.,59.,10.));
#1125=DIRECTION('',(0.,0.,1.));
#1126=DIRECTION('',(1.,0.,-0.));
#1127=AXIS2_PLACEMENT_3D('',#1124,#1125,#1126);
#1128=CIRCLE('',#1127,3.);
#1129=EDGE_CURVE('',#1108,#1116,#1128,.T.);
#1130=ORIENTED_EDGE('',*,*,#1129,.F.);
#1131=ORIENTED_EDGE('',*,*,#1113,.F.);
#1132=CARTESIAN_POINT('',(153.,59.,0.));
#1133=VERTEX_POINT('',#1132);
#1134=CARTESIAN_POINT('',(150.,59.,0.));
#1135=DIRECTION('',(0.,0.,1.));
#1136=DIRECTION('',(1.,0.,-0.));
#1137=AXIS2_PLACEMENT_3D('',#1134,#1135,#1136);
#1138=CIRCLE('',#1137,3.);
#1139=EDGE_CURVE('',#1106,#1133,#1138,.T.);
#1140=ORIENTED_EDGE('',*,*,#1139,.T.);
#1141=CARTESIAN_POINT('',(150.,59.,0.));
#1142=DIRECTION('',(0.,0.,1.));
#1143=DIRECTION('',(1.,0.,-0.));
#1144=AXIS2_PLACEMENT_3D('',#1141,#1142,#1143);
#1145=CIRCLE('',#1144,3.);
#1146=EDGE_CURVE('',#1133,#1106,#1145,.T.);
#1147=ORIENTED_EDGE('',*,*,#1146,.T.);
#1148=EDGE_LOOP('',(#1114,#1123,#1130,#1131,#1140,#1147));
#1149=FACE_BOUND('',#1148,.T.);
#1150=ADVANCED_FACE('',(#1149),#1104,.T.);
#1151=CARTESIAN_POINT('',(0.,0.,10.));
#1152=DIRECTION('',(0.,0.,1.));
#1153=DIRECTION('',(1.,0.,0.));
#1154=AXIS2_PLACEMENT_3D('',#1151,#1152,#1153);
#1155=PLANE('',#1154);
#1156=ORIENTED_EDGE('',*,*,#1122,.T.);
#1157=ORIENTED_EDGE('',*,*,#1129,.T.);
#1158=EDGE_LOOP('',(#1156,#1157));
#1159=FACE_BOUND('',#1158,.T.);
#1160=ADVANCED_FACE('',(#1159),#1155,.T.);
#1161=CARTESIAN_POINT('',(0.,0.,0.));
#1162=DIRECTION('',(0.,0.,1.));
#1163=DIRECTION('',(1.,0.,0.));
#1164=AXIS2_PLACEMENT_3D('',#1161,#1162,#1163);
#1165=PLANE('',#1164);
#1166=ORIENTED_EDGE('',*,*,#1139,.F.);
#1167=ORIENTED_EDGE('',*,*,#1146,.F.);
#1168=EDGE_LOOP('',(#1166,#1167));
#1169=FACE_BOUND('',#1168,.T.);
#1170=ADVANCED_FACE('',(#1169),#1165,.F.);
#1171=CLOSED_SHELL('',(#1150,#1160,#1170));
#1172=MANIFOLD_SOLID_BREP('Body 04',#1171);
#1099=STYLED_ITEM('',(#728),#1172);
#1174=CARTESIAN_POINT('',(173.,48.,10.));
#1175=DIRECTION('',(0.,0.,-1.));
#1176=DIRECTION('',(-1.,0.,0.));
#1177=AXIS2_PLACEMENT_3D('',#1174,#1175,#1176);
#1178=CYLINDRICAL_SURFACE('',#1177,5.);
#1179=CARTESIAN_POINT('',(168.,48.,0.));
#1180=VERTEX_POINT('',#1179);
#1181=CARTESIAN_POINT('',(168.,48.,10.));
#1182=VERTEX_POINT('',#1181);
#1183=CARTESIAN_POINT('',(168.,48.,0.));
#1184=DIRECTION('',(-0.,-0.,1.));
#1185=VECTOR('',#1184,10.);
#1186=LINE('',#1183,#1185);
#1187=EDGE_CURVE('',#1180,#1182,#1186,.T.);
#1188=ORIENTED_EDGE('',*,*,#1187,.T.);
#1189=CARTESIAN_POINT('',(178.,48.,10.));
#1190=VERTEX_POINT('',#1189);
#1191=CARTESIAN_POINT('',(173.,48.,10.));
#1192=DIRECTION('',(0.,0.,1.));
#1193=DIRECTION('',(1.,0.,-0.));
#1194=AXIS2_PLACEMENT_3D('',#1191,#1192,#1193);
#1195=CIRCLE('',#1194,5.);
#1196=EDGE_CURVE('',#1190,#1182,#1195,.T.);
#1197=ORIENTED_EDGE('',*,*,#1196,.F.);
#1198=CARTESIAN_POINT('',(173.,48.,10.));
#1199=DIRECTION('',(0.,0.,1.));
#1200=DIRECTION('',(1.,0.,-0.));
#1201=AXIS2_PLACEMENT_3D('',#1198,#1199,#1200);
#1202=CIRCLE('',#1201,5.);
#1203=EDGE_CURVE('',#1182,#1190,#1202,.T.);
#1204=ORIENTED_EDGE('',*,*,#1203,.F.);
#1205=ORIENTED_EDGE('',*,*,#1187,.F.);
#1206=CARTESIAN_POINT('',(178.,48.,0.));
#1207=VERTEX_POINT('',#1206);
#1208=CARTESIAN_POINT('',(173.,48.,0.));
#1209=DIRECTION('',(0.,0.,1.));
#1210=DIRECTION('',(1.,0.,-0.));
#1211=AXIS2_PLACEMENT_3D('',#1208,#1209,#1210);
#1212=CIRCLE('',#1211,5.);
#1213=EDGE_CURVE('',#1180,#1207,#1212,.T.);
#1214=ORIENTED_EDGE('',*,*,#1213,.T.);
#1215=CARTESIAN_POINT('',(173.,48.,0.));
#1216=DIRECTION('',(0.,0.,1.));
#1217=DIRECTION('',(1.,0.,-0.));
#1218=AXIS2_PLACEMENT_3D('',#1215,#1216,#1217);
#1219=CIRCLE('',#1218,5.);
#1220=EDGE_CURVE('',#1207,#1180,#1219,.T.);
#1221=ORIENTED_EDGE('',*,*,#1220,.T.);
#1222=EDGE_LOOP('',(#1188,#1197,#1204,#1205,#1214,#1221));
#1223=FACE_BOUND('',#1222,.T.);
#1224=ADVANCED_FACE('',(#1223),#1178,.T.);
#1225=CARTESIAN_POINT('',(0.,0.,10.));
#1226=DIRECTION('',(0.,0.,1.));
#1227=DIRECTION('',(1.,0.,0.));
#1228=AXIS2_PLACEMENT_3D('',#1225,#1226,#1227);
#1229=PLANE('',#1228);
#1230=ORIENTED_EDGE('',*,*,#1196,.T.);
#1231=ORIENTED_EDGE('',*,*,#1203,.T.);
#1232=EDGE_LOOP('',(#1230,#1231));
#1233=FACE_BOUND('',#1232,.T.);
#1234=ADVANCED_FACE('',(#1233),#1229,.T.);
#1235=CARTESIAN_POINT('',(0.,0.,0.));
#1236=DIRECTION('',(0.,0.,1.));
#1237=DIRECTION('',(1.,0.,0.));
#1238=AXIS2_PLACEMENT_3D('',#1235,#1236,#1237);
#1239=PLANE('',#1238);
#1240=ORIENTED_EDGE('',*,*,#1213,.F.);
#1241=ORIENTED_EDGE('',*,*,#1220,.F.);
#1242=EDGE_LOOP('',(#1240,#1241));
#1243=FACE_BOUND('',#1242,.T.);
#1244=ADVANCED_FACE('',(#1243),#1239,.F.);
#1245=CLOSED_SHELL('',(#1224,#1234,#1244));
#1246=MANIFOLD_SOLID_BREP('Body 03',#1245);
#1173=STYLED_ITEM('',(#728),#1246);
#1248=CARTESIAN_POINT('',(49.,-4.,16.));
#1249=DIRECTION('',(-0.,-1.,0.));
#1250=DIRECTION('',(1.,-0.,0.));
#1251=AXIS2_PLACEMENT_3D('',#1248,#1249,#1250);
#1252=PLANE('',#1251);
#1253=CARTESIAN_POINT('',(61.,-4.,9.));
#1254=VERTEX_POINT('',#1253);
#1255=CARTESIAN_POINT('',(40.,-4.,9.));
#1256=VERTEX_POINT('',#1255);
#1257=CARTESIAN_POINT('',(61.,-4.,9.));
#1258=DIRECTION('',(-1.,0.,0.));
#1259=VECTOR('',#1258,21.);
#1260=LINE('',#1257,#1259);
#1261=EDGE_CURVE('',#1254,#1256,#1260,.T.);
#1262=ORIENTED_EDGE('',*,*,#1261,.F.);
#1263=CARTESIAN_POINT('',(61.,-4.,0.));
#1264=VERTEX_POINT('',#1263);
#1265=CARTESIAN_POINT('',(61.,-4.,9.));
#1266=DIRECTION('',(0.,0.,-1.));
#1267=VECTOR('',#1266,9.);
#1268=LINE('',#1265,#1267);
#1269=EDGE_CURVE('',#1254,#1264,#1268,.T.);
#1270=ORIENTED_EDGE('',*,*,#1269,.T.);
#1271=CARTESIAN_POINT('',(102.,-4.,0.));
#1272=VERTEX_POINT('',#1271);
#1273=CARTESIAN_POINT('',(102.,-4.,0.));
#1274=DIRECTION('',(-1.,0.,0.));
#1275=VECTOR('',#1274,41.);
#1276=LINE('',#1273,#1275);
#1277=EDGE_CURVE('',#1272,#1264,#1276,.T.);
#1278=ORIENTED_EDGE('',*,*,#1277,.F.);
#1279=CARTESIAN_POINT('',(102.,-4.,17.));
#1280=VERTEX_POINT('',#1279);
#1281=CARTESIAN_POINT('',(102.,-4.,17.));
#1282=DIRECTION('',(0.,0.,-1.));
#1283=VECTOR('',#1282,17.);
#1284=LINE('',#1281,#1283);
#1285=EDGE_CURVE('',#1280,#1272,#1284,.T.);
#1286=ORIENTED_EDGE('',*,*,#1285,.F.);
#1287=CARTESIAN_POINT('',(-4.,-4.,17.));
#1288=VERTEX_POINT('',#1287);
#1289=CARTESIAN_POINT('',(102.,-4.,17.));
#1290=DIRECTION('',(-1.,0.,0.));
#1291=VECTOR('',#1290,106.);
#1292=LINE('',#1289,#1291);
#1293=EDGE_CURVE('',#1280,#1288,#1292,.T.);
#1294=ORIENTED_EDGE('',*,*,#1293,.T.);
#1295=CARTESIAN_POINT('',(-4.,-4.,0.));
#1296=VERTEX_POINT('',#1295);
#1297=CARTESIAN_POINT('',(-4.,-4.,17.));
#1298=DIRECTION('',(0.,0.,-1.));
#1299=VECTOR('',#1298,17.);
#1300=LINE('',#1297,#1299);
#1301=EDGE_CURVE('',#1288,#1296,#1300,.T.);
#1302=ORIENTED_EDGE('',*,*,#1301,.T.);
#1303=CARTESIAN_POINT('',(40.,-4.,0.));
#1304=VERTEX_POINT('',#1303);
#1305=CARTESIAN_POINT('',(40.,-4.,0.));
#1306=DIRECTION('',(-1.,0.,0.));
#1307=VECTOR('',#1306,44.);
#1308=LINE('',#1305,#1307);
#1309=EDGE_CURVE('',#1304,#1296,#1308,.T.);
#1310=ORIENTED_EDGE('',*,*,#1309,.F.);
#1311=CARTESIAN_POINT('',(40.,-4.,9.));
#1312=DIRECTION('',(0.,0.,-1.));
#1313=VECTOR('',#1312,9.);
#1314=LINE('',#1311,#1313);
#1315=EDGE_CURVE('',#1256,#1304,#1314,.T.);
#1316=ORIENTED_EDGE('',*,*,#1315,.F.);
#1317=EDGE_LOOP('',(#1262,#1270,#1278,#1286,#1294,#1302,#1310,#1316));
#1318=FACE_BOUND('',#1317,.T.);
#1319=CARTESIAN_POINT('',(11.,-4.,9.));
#1320=VERTEX_POINT('',#1319);
#1321=CARTESIAN_POINT('',(25.,-4.,9.));
#1322=VERTEX_POINT('',#1321);
#1323=CARTESIAN_POINT('',(11.,-4.,9.));
#1324=DIRECTION('',(1.,-0.,0.));
#1325=VECTOR('',#1324,14.);
#1326=LINE('',#1323,#1325);
#1327=EDGE_CURVE('',#1320,#1322,#1326,.T.);
#1328=ORIENTED_EDGE('',*,*,#1327,.T.);
#1329=CARTESIAN_POINT('',(25.5,-4.,8.5));
#1330=VERTEX_POINT('',#1329);
#1331=CARTESIAN_POINT('',(25.,-4.,8.5));
#1332=DIRECTION('',(0.,1.,-0.));
#1333=DIRECTION('',(1.,-0.,0.));
#1334=AXIS2_PLACEMENT_3D('',#1331,#1332,#1333);
#1335=CIRCLE('',#1334,0.5);
#1336=EDGE_CURVE('',#1322,#1330,#1335,.T.);
#1337=ORIENTED_EDGE('',*,*,#1336,.T.);
#1338=CARTESIAN_POINT('',(25.5,-4.,1.5));
#1339=VERTEX_POINT('',#1338);
#1340=CARTESIAN_POINT('',(25.5,-4.,8.5));
#1341=DIRECTION('',(0.,-0.,-1.));
#1342=VECTOR('',#1341,7.);
#1343=LINE('',#1340,#1342);
#1344=EDGE_CURVE('',#1330,#1339,#1343,.T.);
#1345=ORIENTED_EDGE('',*,*,#1344,.T.);
#1346=CARTESIAN_POINT('',(25.,-4.,1.));
#1347=VERTEX_POINT('',#1346);
#1348=CARTESIAN_POINT('',(25.,-4.,1.5));
#1349=DIRECTION('',(0.,1.,-0.));
#1350=DIRECTION('',(1.,-0.,0.));
#1351=AXIS2_PLACEMENT_3D('',#1348,#1349,#1350);
#1352=CIRCLE('',#1351,0.5);
#1353=EDGE_CURVE('',#1339,#1347,#1352,.T.);
#1354=ORIENTED_EDGE('',*,*,#1353,.T.);
#1355=CARTESIAN_POINT('',(11.,-4.,1.));
#1356=VERTEX_POINT('',#1355);
#1357=CARTESIAN_POINT('',(25.,-4.,1.));
#1358=DIRECTION('',(-1.,0.,-0.));
#1359=VECTOR('',#1358,14.);
#1360=LINE('',#1357,#1359);
#1361=EDGE_CURVE('',#1347,#1356,#1360,.T.);
#1362=ORIENTED_EDGE('',*,*,#1361,.T.);
#1363=CARTESIAN_POINT('',(10.5,-4.,1.5));
#1364=VERTEX_POINT('',#1363);
#1365=CARTESIAN_POINT('',(11.,-4.,1.5));
#1366=DIRECTION('',(0.,1.,-0.));
#1367=DIRECTION('',(1.,-0.,0.));
#1368=AXIS2_PLACEMENT_3D('',#1365,#1366,#1367);
#1369=CIRCLE('',#1368,0.5);
#1370=EDGE_CURVE('',#1356,#1364,#1369,.T.);
#1371=ORIENTED_EDGE('',*,*,#1370,.T.);
#1372=CARTESIAN_POINT('',(10.5,-4.,8.5));
#1373=VERTEX_POINT('',#1372);
#1374=CARTESIAN_POINT('',(10.5,-4.,1.5));
#1375=DIRECTION('',(0.,0.,1.));
#1376=VECTOR('',#1375,7.);
#1377=LINE('',#1374,#1376);
#1378=EDGE_CURVE('',#1364,#1373,#1377,.T.);
#1379=ORIENTED_EDGE('',*,*,#1378,.T.);
#1380=CARTESIAN_POINT('',(11.,-4.,8.5));
#1381=DIRECTION('',(0.,1.,-0.));
#1382=DIRECTION('',(1.,-0.,0.));
#1383=AXIS2_PLACEMENT_3D('',#1380,#1381,#1382);
#1384=CIRCLE('',#1383,0.5);
#1385=EDGE_CURVE('',#1373,#1320,#1384,.T.);
#1386=ORIENTED_EDGE('',*,*,#1385,.T.);
#1387=EDGE_LOOP('',(#1328,#1337,#1345,#1354,#1362,#1371,#1379,#1386));
#1388=FACE_BOUND('',#1387,.T.);
#1389=ADVANCED_FACE('',(#1318,#1388),#1252,.T.);
#1390=CARTESIAN_POINT('',(49.,-1.,16.));
#1391=DIRECTION('',(0.,-1.,0.));
#1392=DIRECTION('',(0.,0.,-1.));
#1393=AXIS2_PLACEMENT_3D('',#1390,#1391,#1392);
#1394=PLANE('',#1393);
#1395=CARTESIAN_POINT('',(61.,-1.,9.));
#1396=VERTEX_POINT('',#1395);
#1397=CARTESIAN_POINT('',(40.,-1.,9.));
#1398=VERTEX_POINT('',#1397);
#1399=CARTESIAN_POINT('',(61.,-1.,9.));
#1400=DIRECTION('',(-1.,0.,0.));
#1401=VECTOR('',#1400,21.);
#1402=LINE('',#1399,#1401);
#1403=EDGE_CURVE('',#1396,#1398,#1402,.T.);
#1404=ORIENTED_EDGE('',*,*,#1403,.T.);
#1405=CARTESIAN_POINT('',(40.,-1.,0.));
#1406=VERTEX_POINT('',#1405);
#1407=CARTESIAN_POINT('',(40.,-1.,9.));
#1408=DIRECTION('',(0.,0.,-1.));
#1409=VECTOR('',#1408,9.);
#1410=LINE('',#1407,#1409);
#1411=EDGE_CURVE('',#1398,#1406,#1410,.T.);
#1412=ORIENTED_EDGE('',*,*,#1411,.T.);
#1413=CARTESIAN_POINT('',(-1.,-1.,0.));
#1414=VERTEX_POINT('',#1413);
#1415=CARTESIAN_POINT('',(40.,-1.,0.));
#1416=DIRECTION('',(-1.,0.,0.));
#1417=VECTOR('',#1416,41.);
#1418=LINE('',#1415,#1417);
#1419=EDGE_CURVE('',#1406,#1414,#1418,.T.);
#1420=ORIENTED_EDGE('',*,*,#1419,.T.);
#1421=CARTESIAN_POINT('',(-1.,-1.,17.));
#1422=VERTEX_POINT('',#1421);
#1423=CARTESIAN_POINT('',(-1.,-1.,17.));
#1424=DIRECTION('',(0.,0.,-1.));
#1425=VECTOR('',#1424,17.);
#1426=LINE('',#1423,#1425);
#1427=EDGE_CURVE('',#1422,#1414,#1426,.T.);
#1428=ORIENTED_EDGE('',*,*,#1427,.F.);
#1429=CARTESIAN_POINT('',(99.,-1.,17.));
#1430=VERTEX_POINT('',#1429);
#1431=CARTESIAN_POINT('',(99.,-1.,17.));
#1432=DIRECTION('',(-1.,0.,0.));
#1433=VECTOR('',#1432,100.);
#1434=LINE('',#1431,#1433);
#1435=EDGE_CURVE('',#1430,#1422,#1434,.T.);
#1436=ORIENTED_EDGE('',*,*,#1435,.F.);
#1437=CARTESIAN_POINT('',(99.,-1.,0.));
#1438=VERTEX_POINT('',#1437);
#1439=CARTESIAN_POINT('',(99.,-1.,17.));
#1440=DIRECTION('',(0.,0.,-1.));
#1441=VECTOR('',#1440,17.);
#1442=LINE('',#1439,#1441);
#1443=EDGE_CURVE('',#1430,#1438,#1442,.T.);
#1444=ORIENTED_EDGE('',*,*,#1443,.T.);
#1445=CARTESIAN_POINT('',(61.,-1.,0.));
#1446=VERTEX_POINT('',#1445);
#1447=CARTESIAN_POINT('',(99.,-1.,0.));
#1448=DIRECTION('',(-1.,0.,0.));
#1449=VECTOR('',#1448,38.);
#1450=LINE('',#1447,#1449);
#1451=EDGE_CURVE('',#1438,#1446,#1450,.T.);
#1452=ORIENTED_EDGE('',*,*,#1451,.T.);
#1453=CARTESIAN_POINT('',(61.,-1.,9.));
#1454=DIRECTION('',(0.,0.,-1.));
#1455=VECTOR('',#1454,9.);
#1456=LINE('',#1453,#1455);
#1457=EDGE_CURVE('',#1396,#1446,#1456,.T.);
#1458=ORIENTED_EDGE('',*,*,#1457,.F.);
#1459=EDGE_LOOP('',(#1404,#1412,#1420,#1428,#1436,#1444,#1452,#1458));
#1460=FACE_BOUND('',#1459,.T.);
#1461=CARTESIAN_POINT('',(25.,-1.,1.));
#1462=VERTEX_POINT('',#1461);
#1463=CARTESIAN_POINT('',(11.,-1.,1.));
#1464=VERTEX_POINT('',#1463);
#1465=CARTESIAN_POINT('',(25.,-1.,1.));
#1466=DIRECTION('',(-1.,0.,-0.));
#1467=VECTOR('',#1466,14.);
#1468=LINE('',#1465,#1467);
#1469=EDGE_CURVE('',#1462,#1464,#1468,.T.);
#1470=ORIENTED_EDGE('',*,*,#1469,.F.);
#1471=CARTESIAN_POINT('',(25.5,-1.,1.5));
#1472=VERTEX_POINT('',#1471);
#1473=CARTESIAN_POINT('',(25.,-1.,1.5));
#1474=DIRECTION('',(0.,-1.,0.));
#1475=DIRECTION('',(0.,0.,-1.));
#1476=AXIS2_PLACEMENT_3D('',#1473,#1474,#1475);
#1477=CIRCLE('',#1476,0.5);
#1478=EDGE_CURVE('',#1462,#1472,#1477,.T.);
#1479=ORIENTED_EDGE('',*,*,#1478,.T.);
#1480=CARTESIAN_POINT('',(25.5,-1.,8.5));
#1481=VERTEX_POINT('',#1480);
#1482=CARTESIAN_POINT('',(25.5,-1.,8.5));
#1483=DIRECTION('',(0.,0.,-1.));
#1484=VECTOR('',#1483,7.);
#1485=LINE('',#1482,#1484);
#1486=EDGE_CURVE('',#1481,#1472,#1485,.T.);
#1487=ORIENTED_EDGE('',*,*,#1486,.F.);
#1488=CARTESIAN_POINT('',(25.,-1.,9.));
#1489=VERTEX_POINT('',#1488);
#1490=CARTESIAN_POINT('',(25.,-1.,8.5));
#1491=DIRECTION('',(0.,-1.,0.));
#1492=DIRECTION('',(0.,0.,-1.));
#1493=AXIS2_PLACEMENT_3D('',#1490,#1491,#1492);
#1494=CIRCLE('',#1493,0.5);
#1495=EDGE_CURVE('',#1481,#1489,#1494,.T.);
#1496=ORIENTED_EDGE('',*,*,#1495,.T.);
#1497=CARTESIAN_POINT('',(11.,-1.,9.));
#1498=VERTEX_POINT('',#1497);
#1499=CARTESIAN_POINT('',(11.,-1.,9.));
#1500=DIRECTION('',(1.,0.,-0.));
#1501=VECTOR('',#1500,14.);
#1502=LINE('',#1499,#1501);
#1503=EDGE_CURVE('',#1498,#1489,#1502,.T.);
#1504=ORIENTED_EDGE('',*,*,#1503,.F.);
#1505=CARTESIAN_POINT('',(10.5,-1.,8.5));
#1506=VERTEX_POINT('',#1505);
#1507=CARTESIAN_POINT('',(11.,-1.,8.5));
#1508=DIRECTION('',(0.,-1.,0.));
#1509=DIRECTION('',(0.,0.,-1.));
#1510=AXIS2_PLACEMENT_3D('',#1507,#1508,#1509);
#1511=CIRCLE('',#1510,0.5);
#1512=EDGE_CURVE('',#1498,#1506,#1511,.T.);
#1513=ORIENTED_EDGE('',*,*,#1512,.T.);
#1514=CARTESIAN_POINT('',(10.5,-1.,1.5));
#1515=VERTEX_POINT('',#1514);
#1516=CARTESIAN_POINT('',(10.5,-1.,1.5));
#1517=DIRECTION('',(0.,0.,1.));
#1518=VECTOR('',#1517,7.);
#1519=LINE('',#1516,#1518);
#1520=EDGE_CURVE('',#1515,#1506,#1519,.T.);
#1521=ORIENTED_EDGE('',*,*,#1520,.F.);
#1522=CARTESIAN_POINT('',(11.,-1.,1.5));
#1523=DIRECTION('',(0.,-1.,0.));
#1524=DIRECTION('',(0.,0.,-1.));
#1525=AXIS2_PLACEMENT_3D('',#1522,#1523,#1524);
#1526=CIRCLE('',#1525,0.5);
#1527=EDGE_CURVE('',#1515,#1464,#1526,.T.);
#1528=ORIENTED_EDGE('',*,*,#1527,.T.);
#1529=EDGE_LOOP('',(#1470,#1479,#1487,#1496,#1504,#1513,#1521,#1528));
#1530=FACE_BOUND('',#1529,.T.);
#1531=ADVANCED_FACE('',(#1460,#1530),#1394,.F.);
#1532=CARTESIAN_POINT('',(0.,0.,0.));
#1533=DIRECTION('',(0.,0.,1.));
#1534=DIRECTION('',(1.,0.,0.));
#1535=AXIS2_PLACEMENT_3D('',#1532,#1533,#1534);
#1536=PLANE('',#1535);
#1537=CARTESIAN_POINT('',(61.,-1.,0.));
#1538=DIRECTION('',(0.,-1.,0.));
#1539=VECTOR('',#1538,3.);
#1540=LINE('',#1537,#1539);
#1541=EDGE_CURVE('',#1446,#1264,#1540,.T.);
#1542=ORIENTED_EDGE('',*,*,#1541,.F.);
#1543=ORIENTED_EDGE('',*,*,#1451,.F.);
#1544=CARTESIAN_POINT('',(99.,57.,0.));
#1545=VERTEX_POINT('',#1544);
#1546=CARTESIAN_POINT('',(99.,57.,0.));
#1547=DIRECTION('',(0.,-1.,0.));
#1548=VECTOR('',#1547,58.);
#1549=LINE('',#1546,#1548);
#1550=EDGE_CURVE('',#1545,#1438,#1549,.T.);
#1551=ORIENTED_EDGE('',*,*,#1550,.F.);
#1552=CARTESIAN_POINT('',(-1.,57.,0.));
#1553=VERTEX_POINT('',#1552);
#1554=CARTESIAN_POINT('',(-1.,57.,0.));
#1555=DIRECTION('',(1.,0.,-0.));
#1556=VECTOR('',#1555,100.);
#1557=LINE('',#1554,#1556);
#1558=EDGE_CURVE('',#1553,#1545,#1557,.T.);
#1559=ORIENTED_EDGE('',*,*,#1558,.F.);
#1560=CARTESIAN_POINT('',(-1.,-1.,0.));
#1561=DIRECTION('',(0.,1.,0.));
#1562=VECTOR('',#1561,58.);
#1563=LINE('',#1560,#1562);
#1564=EDGE_CURVE('',#1414,#1553,#1563,.T.);
#1565=ORIENTED_EDGE('',*,*,#1564,.F.);
#1566=ORIENTED_EDGE('',*,*,#1419,.F.);
#1567=CARTESIAN_POINT('',(40.,-1.,0.));
#1568=DIRECTION('',(0.,-1.,0.));
#1569=VECTOR('',#1568,3.);
#1570=LINE('',#1567,#1569);
#1571=EDGE_CURVE('',#1406,#1304,#1570,.T.);
#1572=ORIENTED_EDGE('',*,*,#1571,.T.);
#1573=ORIENTED_EDGE('',*,*,#1309,.T.);
#1574=CARTESIAN_POINT('',(-4.,60.,0.));
#1575=VERTEX_POINT('',#1574);
#1576=CARTESIAN_POINT('',(-4.,-4.,0.));
#1577=DIRECTION('',(0.,1.,0.));
#1578=VECTOR('',#1577,64.);
#1579=LINE('',#1576,#1578);
#1580=EDGE_CURVE('',#1296,#1575,#1579,.T.);
#1581=ORIENTED_EDGE('',*,*,#1580,.T.);
#1582=CARTESIAN_POINT('',(102.,60.,0.));
#1583=VERTEX_POINT('',#1582);
#1584=CARTESIAN_POINT('',(-4.,60.,0.));
#1585=DIRECTION('',(1.,0.,-0.));
#1586=VECTOR('',#1585,106.);
#1587=LINE('',#1584,#1586);
#1588=EDGE_CURVE('',#1575,#1583,#1587,.T.);
#1589=ORIENTED_EDGE('',*,*,#1588,.T.);
#1590=CARTESIAN_POINT('',(102.,60.,0.));
#1591=DIRECTION('',(0.,-1.,0.));
#1592=VECTOR('',#1591,64.);
#1593=LINE('',#1590,#1592);
#1594=EDGE_CURVE('',#1583,#1272,#1593,.T.);
#1595=ORIENTED_EDGE('',*,*,#1594,.T.);
#1596=ORIENTED_EDGE('',*,*,#1277,.T.);
#1597=EDGE_LOOP('',(#1542,#1543,#1551,#1559,#1565,#1566,#1572,#1573,#1581,#1589,#1595,#1596));
#1598=FACE_BOUND('',#1597,.T.);
#1599=ADVANCED_FACE('',(#1598),#1536,.F.);
#1600=CARTESIAN_POINT('',(49.,57.,16.));
#1601=DIRECTION('',(0.,1.,0.));
#1602=DIRECTION('',(0.,0.,1.));
#1603=AXIS2_PLACEMENT_3D('',#1600,#1601,#1602);
#1604=PLANE('',#1603);
#1605=ORIENTED_EDGE('',*,*,#1558,.T.);
#1606=CARTESIAN_POINT('',(99.,57.,17.));
#1607=VERTEX_POINT('',#1606);
#1608=CARTESIAN_POINT('',(99.,57.,17.));
#1609=DIRECTION('',(0.,0.,-1.));
#1610=VECTOR('',#1609,17.);
#1611=LINE('',#1608,#1610);
#1612=EDGE_CURVE('',#1607,#1545,#1611,.T.);
#1613=ORIENTED_EDGE('',*,*,#1612,.F.);
#1614=CARTESIAN_POINT('',(-1.,57.,17.));
#1615=VERTEX_POINT('',#1614);
#1616=CARTESIAN_POINT('',(-1.,57.,17.));
#1617=DIRECTION('',(1.,0.,-0.));
#1618=VECTOR('',#1617,100.);
#1619=LINE('',#1616,#1618);
#1620=EDGE_CURVE('',#1615,#1607,#1619,.T.);
#1621=ORIENTED_EDGE('',*,*,#1620,.F.);
#1622=CARTESIAN_POINT('',(-1.,57.,17.));
#1623=DIRECTION('',(0.,0.,-1.));
#1624=VECTOR('',#1623,17.);
#1625=LINE('',#1622,#1624);
#1626=EDGE_CURVE('',#1615,#1553,#1625,.T.);
#1627=ORIENTED_EDGE('',*,*,#1626,.T.);
#1628=EDGE_LOOP('',(#1605,#1613,#1621,#1627));
#1629=FACE_BOUND('',#1628,.T.);
#1630=ADVANCED_FACE('',(#1629),#1604,.F.);
#1631=CARTESIAN_POINT('',(99.,28.,16.));
#1632=DIRECTION('',(1.,0.,0.));
#1633=DIRECTION('',(0.,0.,-1.));
#1634=AXIS2_PLACEMENT_3D('',#1631,#1632,#1633);
#1635=PLANE('',#1634);
#1636=ORIENTED_EDGE('',*,*,#1550,.T.);
#1637=ORIENTED_EDGE('',*,*,#1443,.F.);
#1638=CARTESIAN_POINT('',(99.,57.,17.));
#1639=DIRECTION('',(0.,-1.,0.));
#1640=VECTOR('',#1639,58.);
#1641=LINE('',#1638,#1640);
#1642=EDGE_CURVE('',#1607,#1430,#1641,.T.);
#1643=ORIENTED_EDGE('',*,*,#1642,.F.);
#1644=ORIENTED_EDGE('',*,*,#1612,.T.);
#1645=EDGE_LOOP('',(#1636,#1637,#1643,#1644));
#1646=FACE_BOUND('',#1645,.T.);
#1647=ADVANCED_FACE('',(#1646),#1635,.F.);
#1648=CARTESIAN_POINT('',(102.,28.,16.));
#1649=DIRECTION('',(1.,0.,0.));
#1650=DIRECTION('',(0.,0.,-1.));
#1651=AXIS2_PLACEMENT_3D('',#1648,#1649,#1650);
#1652=PLANE('',#1651);
#1653=ORIENTED_EDGE('',*,*,#1594,.F.);
#1654=CARTESIAN_POINT('',(102.,60.,17.));
#1655=VERTEX_POINT('',#1654);
#1656=CARTESIAN_POINT('',(102.,60.,17.));
#1657=DIRECTION('',(0.,0.,-1.));
#1658=VECTOR('',#1657,17.);
#1659=LINE('',#1656,#1658);
#1660=EDGE_CURVE('',#1655,#1583,#1659,.T.);
#1661=ORIENTED_EDGE('',*,*,#1660,.F.);
#1662=CARTESIAN_POINT('',(102.,60.,17.));
#1663=DIRECTION('',(0.,-1.,0.));
#1664=VECTOR('',#1663,64.);
#1665=LINE('',#1662,#1664);
#1666=EDGE_CURVE('',#1655,#1280,#1665,.T.);
#1667=ORIENTED_EDGE('',*,*,#1666,.T.);
#1668=ORIENTED_EDGE('',*,*,#1285,.T.);
#1669=EDGE_LOOP('',(#1653,#1661,#1667,#1668));
#1670=FACE_BOUND('',#1669,.T.);
#1671=ADVANCED_FACE('',(#1670),#1652,.T.);
#1672=CARTESIAN_POINT('',(49.,60.,16.));
#1673=DIRECTION('',(0.,1.,0.));
#1674=DIRECTION('',(0.,0.,1.));
#1675=AXIS2_PLACEMENT_3D('',#1672,#1673,#1674);
#1676=PLANE('',#1675);
#1677=ORIENTED_EDGE('',*,*,#1588,.F.);
#1678=CARTESIAN_POINT('',(-4.,60.,17.));
#1679=VERTEX_POINT('',#1678);
#1680=CARTESIAN_POINT('',(-4.,60.,17.));
#1681=DIRECTION('',(0.,0.,-1.));
#1682=VECTOR('',#1681,17.);
#1683=LINE('',#1680,#1682);
#1684=EDGE_CURVE('',#1679,#1575,#1683,.T.);
#1685=ORIENTED_EDGE('',*,*,#1684,.F.);
#1686=CARTESIAN_POINT('',(-4.,60.,17.));
#1687=DIRECTION('',(1.,0.,-0.));
#1688=VECTOR('',#1687,106.);
#1689=LINE('',#1686,#1688);
#1690=EDGE_CURVE('',#1679,#1655,#1689,.T.);
#1691=ORIENTED_EDGE('',*,*,#1690,.T.);
#1692=ORIENTED_EDGE('',*,*,#1660,.T.);
#1693=EDGE_LOOP('',(#1677,#1685,#1691,#1692));
#1694=FACE_BOUND('',#1693,.T.);
#1695=ADVANCED_FACE('',(#1694),#1676,.T.);
#1696=CARTESIAN_POINT('',(-4.,28.,16.));
#1697=DIRECTION('',(-1.,0.,0.));
#1698=DIRECTION('',(0.,0.,1.));
#1699=AXIS2_PLACEMENT_3D('',#1696,#1697,#1698);
#1700=PLANE('',#1699);
#1701=ORIENTED_EDGE('',*,*,#1580,.F.);
#1702=ORIENTED_EDGE('',*,*,#1301,.F.);
#1703=CARTESIAN_POINT('',(-4.,-4.,17.));
#1704=DIRECTION('',(0.,1.,0.));
#1705=VECTOR('',#1704,64.);
#1706=LINE('',#1703,#1705);
#1707=EDGE_CURVE('',#1288,#1679,#1706,.T.);
#1708=ORIENTED_EDGE('',*,*,#1707,.T.);
#1709=ORIENTED_EDGE('',*,*,#1684,.T.);
#1710=EDGE_LOOP('',(#1701,#1702,#1708,#1709));
#1711=FACE_BOUND('',#1710,.T.);
#1712=ADVANCED_FACE('',(#1711),#1700,.T.);
#1713=CARTESIAN_POINT('',(-1.,28.,16.));
#1714=DIRECTION('',(-1.,0.,0.));
#1715=DIRECTION('',(-0.,-1.,0.));
#1716=AXIS2_PLACEMENT_3D('',#1713,#1714,#1715);
#1717=PLANE('',#1716);
#1718=ORIENTED_EDGE('',*,*,#1564,.T.);
#1719=ORIENTED_EDGE('',*,*,#1626,.F.);
#1720=CARTESIAN_POINT('',(-1.,-1.,17.));
#1721=DIRECTION('',(0.,1.,0.));
#1722=VECTOR('',#1721,58.);
#1723=LINE('',#1720,#1722);
#1724=EDGE_CURVE('',#1422,#1615,#1723,.T.);
#1725=ORIENTED_EDGE('',*,*,#1724,.F.);
#1726=ORIENTED_EDGE('',*,*,#1427,.T.);
#1727=EDGE_LOOP('',(#1718,#1719,#1725,#1726));
#1728=FACE_BOUND('',#1727,.T.);
#1729=ADVANCED_FACE('',(#1728),#1717,.F.);
#1730=CARTESIAN_POINT('',(0.,0.,17.));
#1731=DIRECTION('',(0.,0.,1.));
#1732=DIRECTION('',(1.,0.,0.));
#1733=AXIS2_PLACEMENT_3D('',#1730,#1731,#1732);
#1734=PLANE('',#1733);
#1735=ORIENTED_EDGE('',*,*,#1666,.F.);
#1736=ORIENTED_EDGE('',*,*,#1690,.F.);
#1737=ORIENTED_EDGE('',*,*,#1707,.F.);
#1738=ORIENTED_EDGE('',*,*,#1293,.F.);
#1739=EDGE_LOOP('',(#1735,#1736,#1737,#1738));
#1740=FACE_BOUND('',#1739,.T.);
#1741=ORIENTED_EDGE('',*,*,#1620,.T.);
#1742=ORIENTED_EDGE('',*,*,#1642,.T.);
#1743=ORIENTED_EDGE('',*,*,#1435,.T.);
#1744=ORIENTED_EDGE('',*,*,#1724,.T.);
#1745=EDGE_LOOP('',(#1741,#1742,#1743,#1744));
#1746=FACE_BOUND('',#1745,.T.);
#1747=ADVANCED_FACE('',(#1740,#1746),#1734,.T.);
#1748=CARTESIAN_POINT('',(61.,-2.5,10.));
#1749=DIRECTION('',(1.,0.,0.));
#1750=DIRECTION('',(0.,0.,-1.));
#1751=AXIS2_PLACEMENT_3D('',#1748,#1749,#1750);
#1752=PLANE('',#1751);
#1753=ORIENTED_EDGE('',*,*,#1541,.T.);
#1754=ORIENTED_EDGE('',*,*,#1269,.F.);
#1755=CARTESIAN_POINT('',(61.,-1.,9.));
#1756=DIRECTION('',(0.,-1.,0.));
#1757=VECTOR('',#1756,3.);
#1758=LINE('',#1755,#1757);
#1759=EDGE_CURVE('',#1396,#1254,#1758,.T.);
#1760=ORIENTED_EDGE('',*,*,#1759,.F.);
#1761=ORIENTED_EDGE('',*,*,#1457,.T.);
#1762=EDGE_LOOP('',(#1753,#1754,#1760,#1761));
#1763=FACE_BOUND('',#1762,.T.);
#1764=ADVANCED_FACE('',(#1763),#1752,.F.);
#1765=CARTESIAN_POINT('',(40.,-2.5,10.));
#1766=DIRECTION('',(1.,0.,0.));
#1767=DIRECTION('',(0.,0.,-1.));
#1768=AXIS2_PLACEMENT_3D('',#1765,#1766,#1767);
#1769=PLANE('',#1768);
#1770=ORIENTED_EDGE('',*,*,#1571,.F.);
#1771=ORIENTED_EDGE('',*,*,#1411,.F.);
#1772=CARTESIAN_POINT('',(40.,-1.,9.));
#1773=DIRECTION('',(0.,-1.,0.));
#1774=VECTOR('',#1773,3.);
#1775=LINE('',#1772,#1774);
#1776=EDGE_CURVE('',#1398,#1256,#1775,.T.);
#1777=ORIENTED_EDGE('',*,*,#1776,.T.);
#1778=ORIENTED_EDGE('',*,*,#1315,.T.);
#1779=EDGE_LOOP('',(#1770,#1771,#1777,#1778));
#1780=FACE_BOUND('',#1779,.T.);
#1781=ADVANCED_FACE('',(#1780),#1769,.T.);
#1782=CARTESIAN_POINT('',(0.,0.,9.));
#1783=DIRECTION('',(0.,0.,1.));
#1784=DIRECTION('',(1.,0.,0.));
#1785=AXIS2_PLACEMENT_3D('',#1782,#1783,#1784);
#1786=PLANE('',#1785);
#1787=ORIENTED_EDGE('',*,*,#1759,.T.);
#1788=ORIENTED_EDGE('',*,*,#1261,.T.);
#1789=ORIENTED_EDGE('',*,*,#1776,.F.);
#1790=ORIENTED_EDGE('',*,*,#1403,.F.);
#1791=EDGE_LOOP('',(#1787,#1788,#1789,#1790));
#1792=FACE_BOUND('',#1791,.T.);
#1793=ADVANCED_FACE('',(#1792),#1786,.F.);
#1794=CARTESIAN_POINT('',(18.,0.5,1.));
#1795=DIRECTION('',(-0.,0.,1.));
#1796=DIRECTION('',(1.,0.,0.));
#1797=AXIS2_PLACEMENT_3D('',#1794,#1795,#1796);
#1798=PLANE('',#1797);
#1799=ORIENTED_EDGE('',*,*,#1361,.F.);
#1800=CARTESIAN_POINT('',(25.,-4.,1.));
#1801=DIRECTION('',(0.,1.,-0.));
#1802=VECTOR('',#1801,3.);
#1803=LINE('',#1800,#1802);
#1804=EDGE_CURVE('',#1347,#1462,#1803,.T.);
#1805=ORIENTED_EDGE('',*,*,#1804,.T.);
#1806=ORIENTED_EDGE('',*,*,#1469,.T.);
#1807=CARTESIAN_POINT('',(11.,-1.,1.));
#1808=DIRECTION('',(-0.,-1.,0.));
#1809=VECTOR('',#1808,3.);
#1810=LINE('',#1807,#1809);
#1811=EDGE_CURVE('',#1464,#1356,#1810,.T.);
#1812=ORIENTED_EDGE('',*,*,#1811,.T.);
#1813=EDGE_LOOP('',(#1799,#1805,#1806,#1812));
#1814=FACE_BOUND('',#1813,.T.);
#1815=ADVANCED_FACE('',(#1814),#1798,.T.);
#1816=CARTESIAN_POINT('',(25.5,0.5,5.));
#1817=DIRECTION('',(-1.,0.,-0.));
#1818=DIRECTION('',(-0.,0.,1.));
#1819=AXIS2_PLACEMENT_3D('',#1816,#1817,#1818);
#1820=PLANE('',#1819);
#1821=ORIENTED_EDGE('',*,*,#1486,.T.);
#1822=CARTESIAN_POINT('',(25.5,-1.,1.5));
#1823=DIRECTION('',(-0.,-1.,0.));
#1824=VECTOR('',#1823,3.);
#1825=LINE('',#1822,#1824);
#1826=EDGE_CURVE('',#1472,#1339,#1825,.T.);
#1827=ORIENTED_EDGE('',*,*,#1826,.T.);
#1828=ORIENTED_EDGE('',*,*,#1344,.F.);
#1829=CARTESIAN_POINT('',(25.5,-4.,8.5));
#1830=DIRECTION('',(0.,1.,-0.));
#1831=VECTOR('',#1830,3.);
#1832=LINE('',#1829,#1831);
#1833=EDGE_CURVE('',#1330,#1481,#1832,.T.);
#1834=ORIENTED_EDGE('',*,*,#1833,.T.);
#1835=EDGE_LOOP('',(#1821,#1827,#1828,#1834));
#1836=FACE_BOUND('',#1835,.T.);
#1837=ADVANCED_FACE('',(#1836),#1820,.T.);
#1838=CARTESIAN_POINT('',(18.,0.5,9.));
#1839=DIRECTION('',(0.,0.,-1.));
#1840=DIRECTION('',(-1.,0.,0.));
#1841=AXIS2_PLACEMENT_3D('',#1838,#1839,#1840);
#1842=PLANE('',#1841);
#1843=ORIENTED_EDGE('',*,*,#1327,.F.);
#1844=CARTESIAN_POINT('',(11.,-4.,9.));
#1845=DIRECTION('',(0.,1.,-0.));
#1846=VECTOR('',#1845,3.);
#1847=LINE('',#1844,#1846);
#1848=EDGE_CURVE('',#1320,#1498,#1847,.T.);
#1849=ORIENTED_EDGE('',*,*,#1848,.T.);
#1850=ORIENTED_EDGE('',*,*,#1503,.T.);
#1851=CARTESIAN_POINT('',(25.,-1.,9.));
#1852=DIRECTION('',(-0.,-1.,0.));
#1853=VECTOR('',#1852,3.);
#1854=LINE('',#1851,#1853);
#1855=EDGE_CURVE('',#1489,#1322,#1854,.T.);
#1856=ORIENTED_EDGE('',*,*,#1855,.T.);
#1857=EDGE_LOOP('',(#1843,#1849,#1850,#1856));
#1858=FACE_BOUND('',#1857,.T.);
#1859=ADVANCED_FACE('',(#1858),#1842,.T.);
#1860=CARTESIAN_POINT('',(10.5,0.5,5.));
#1861=DIRECTION('',(1.,-0.,0.));
#1862=DIRECTION('',(0.,1.,0.));
#1863=AXIS2_PLACEMENT_3D('',#1860,#1861,#1862);
#1864=PLANE('',#1863);
#1865=ORIENTED_EDGE('',*,*,#1520,.T.);
#1866=CARTESIAN_POINT('',(10.5,-1.,8.5));
#1867=DIRECTION('',(-0.,-1.,0.));
#1868=VECTOR('',#1867,3.);
#1869=LINE('',#1866,#1868);
#1870=EDGE_CURVE('',#1506,#1373,#1869,.T.);
#1871=ORIENTED_EDGE('',*,*,#1870,.T.);
#1872=ORIENTED_EDGE('',*,*,#1378,.F.);
#1873=CARTESIAN_POINT('',(10.5,-4.,1.5));
#1874=DIRECTION('',(0.,1.,-0.));
#1875=VECTOR('',#1874,3.);
#1876=LINE('',#1873,#1875);
#1877=EDGE_CURVE('',#1364,#1515,#1876,.T.);
#1878=ORIENTED_EDGE('',*,*,#1877,.T.);
#1879=EDGE_LOOP('',(#1865,#1871,#1872,#1878));
#1880=FACE_BOUND('',#1879,.T.);
#1881=ADVANCED_FACE('',(#1880),#1864,.T.);
#1882=CARTESIAN_POINT('',(11.,0.5,8.5));
#1883=DIRECTION('',(0.,1.,0.));
#1884=DIRECTION('',(-1.,0.,0.));
#1885=AXIS2_PLACEMENT_3D('',#1882,#1883,#1884);
#1886=CYLINDRICAL_SURFACE('',#1885,0.5);
#1887=ORIENTED_EDGE('',*,*,#1512,.F.);
#1888=ORIENTED_EDGE('',*,*,#1848,.F.);
#1889=ORIENTED_EDGE('',*,*,#1385,.F.);
#1890=ORIENTED_EDGE('',*,*,#1870,.F.);
#1891=EDGE_LOOP('',(#1887,#1888,#1889,#1890));
#1892=FACE_BOUND('',#1891,.T.);
#1893=ADVANCED_FACE('',(#1892),#1886,.F.);
#1894=CARTESIAN_POINT('',(25.,0.5,1.5));
#1895=DIRECTION('',(0.,1.,0.));
#1896=DIRECTION('',(-1.,0.,0.));
#1897=AXIS2_PLACEMENT_3D('',#1894,#1895,#1896);
#1898=CYLINDRICAL_SURFACE('',#1897,0.5);
#1899=ORIENTED_EDGE('',*,*,#1478,.F.);
#1900=ORIENTED_EDGE('',*,*,#1804,.F.);
#1901=ORIENTED_EDGE('',*,*,#1353,.F.);
#1902=ORIENTED_EDGE('',*,*,#1826,.F.);
#1903=EDGE_LOOP('',(#1899,#1900,#1901,#1902));
#1904=FACE_BOUND('',#1903,.T.);
#1905=ADVANCED_FACE('',(#1904),#1898,.F.);
#1906=CARTESIAN_POINT('',(11.,0.5,1.5));
#1907=DIRECTION('',(0.,1.,0.));
#1908=DIRECTION('',(-1.,0.,0.));
#1909=AXIS2_PLACEMENT_3D('',#1906,#1907,#1908);
#1910=CYLINDRICAL_SURFACE('',#1909,0.5);
#1911=ORIENTED_EDGE('',*,*,#1527,.F.);
#1912=ORIENTED_EDGE('',*,*,#1877,.F.);
#1913=ORIENTED_EDGE('',*,*,#1370,.F.);
#1914=ORIENTED_EDGE('',*,*,#1811,.F.);
#1915=EDGE_LOOP('',(#1911,#1912,#1913,#1914));
#1916=FACE_BOUND('',#1915,.T.);
#1917=ADVANCED_FACE('',(#1916),#1910,.F.);
#1918=CARTESIAN_POINT('',(25.,0.5,8.5));
#1919=DIRECTION('',(0.,1.,0.));
#1920=DIRECTION('',(-1.,0.,0.));
#1921=AXIS2_PLACEMENT_3D('',#1918,#1919,#1920);
#1922=CYLINDRICAL_SURFACE('',#1921,0.5);
#1923=ORIENTED_EDGE('',*,*,#1495,.F.);
#1924=ORIENTED_EDGE('',*,*,#1833,.F.);
#1925=ORIENTED_EDGE('',*,*,#1336,.F.);
#1926=ORIENTED_EDGE('',*,*,#1855,.F.);
#1927=EDGE_LOOP('',(#1923,#1924,#1925,#1926));
#1928=FACE_BOUND('',#1927,.T.);
#1929=ADVANCED_FACE('',(#1928),#1922,.F.);
#1930=CLOSED_SHELL('',(#1389,#1531,#1599,#1630,#1647,#1671,#1695,#1712,#1729,#1747,#1764,#1781,#1793,#1815,#1837,#1859,#1881,#1893,#1905,#1917,#1929));
#1931=MANIFOLD_SOLID_BREP('Body 02',#1930);
#1247=STYLED_ITEM('',(#728),#1931);
#1933=CARTESIAN_POINT('',(49.,-1.,2.));
#1934=DIRECTION('',(0.,-1.,0.));
#1935=DIRECTION('',(0.,0.,-1.));
#1936=AXIS2_PLACEMENT_3D('',#1933,#1934,#1935);
#1937=PLANE('',#1936);
#1938=CARTESIAN_POINT('',(99.,-1.,2.));
#1939=VERTEX_POINT('',#1938);
#1940=CARTESIAN_POINT('',(61.,-1.,2.));
#1941=VERTEX_POINT('',#1940);
#1942=CARTESIAN_POINT('',(99.,-1.,2.));
#1943=DIRECTION('',(-1.,0.,0.));
#1944=VECTOR('',#1943,38.);
#1945=LINE('',#1942,#1944);
#1946=EDGE_CURVE('',#1939,#1941,#1945,.T.);
#1947=ORIENTED_EDGE('',*,*,#1946,.T.);
#1948=CARTESIAN_POINT('',(61.,-1.,0.));
#1949=VERTEX_POINT('',#1948);
#1950=CARTESIAN_POINT('',(61.,-1.,2.));
#1951=DIRECTION('',(0.,0.,-1.));
#1952=VECTOR('',#1951,2.);
#1953=LINE('',#1950,#1952);
#1954=EDGE_CURVE('',#1941,#1949,#1953,.T.);
#1955=ORIENTED_EDGE('',*,*,#1954,.T.);
#1956=CARTESIAN_POINT('',(99.,-1.,0.));
#1957=VERTEX_POINT('',#1956);
#1958=CARTESIAN_POINT('',(99.,-1.,0.));
#1959=DIRECTION('',(-1.,0.,0.));
#1960=VECTOR('',#1959,38.);
#1961=LINE('',#1958,#1960);
#1962=EDGE_CURVE('',#1957,#1949,#1961,.T.);
#1963=ORIENTED_EDGE('',*,*,#1962,.F.);
#1964=CARTESIAN_POINT('',(99.,-1.,2.));
#1965=DIRECTION('',(0.,0.,-1.));
#1966=VECTOR('',#1965,2.);
#1967=LINE('',#1964,#1966);
#1968=EDGE_CURVE('',#1939,#1957,#1967,.T.);
#1969=ORIENTED_EDGE('',*,*,#1968,.F.);
#1970=EDGE_LOOP('',(#1947,#1955,#1963,#1969));
#1971=FACE_BOUND('',#1970,.T.);
#1972=ADVANCED_FACE('',(#1971),#1937,.T.);
#1973=CARTESIAN_POINT('',(0.,0.,0.));
#1974=DIRECTION('',(0.,0.,1.));
#1975=DIRECTION('',(1.,0.,0.));
#1976=AXIS2_PLACEMENT_3D('',#1973,#1974,#1975);
#1977=PLANE('',#1976);
#1978=CARTESIAN_POINT('',(54.,46.7,0.));
#1979=VERTEX_POINT('',#1978);
#1980=CARTESIAN_POINT('',(44.,46.7,0.));
#1981=VERTEX_POINT('',#1980);
#1982=CARTESIAN_POINT('',(49.,46.7,0.));
#1983=DIRECTION('',(0.,0.,1.));
#1984=DIRECTION('',(1.,0.,-0.));
#1985=AXIS2_PLACEMENT_3D('',#1982,#1983,#1984);
#1986=CIRCLE('',#1985,5.);
#1987=EDGE_CURVE('',#1979,#1981,#1986,.T.);
#1988=ORIENTED_EDGE('',*,*,#1987,.T.);
#1989=CARTESIAN_POINT('',(49.,46.7,0.));
#1990=DIRECTION('',(0.,0.,1.));
#1991=DIRECTION('',(1.,0.,-0.));
#1992=AXIS2_PLACEMENT_3D('',#1989,#1990,#1991);
#1993=CIRCLE('',#1992,5.);
#1994=EDGE_CURVE('',#1981,#1979,#1993,.T.);
#1995=ORIENTED_EDGE('',*,*,#1994,.T.);
#1996=EDGE_LOOP('',(#1988,#1995));
#1997=FACE_BOUND('',#1996,.T.);
#1998=CARTESIAN_POINT('',(61.,12.,0.));
#1999=VERTEX_POINT('',#1998);
#2000=CARTESIAN_POINT('',(61.,12.,0.));
#2001=DIRECTION('',(0.,-1.,0.));
#2002=VECTOR('',#2001,13.);
#2003=LINE('',#2000,#2002);
#2004=EDGE_CURVE('',#1999,#1949,#2003,.T.);
#2005=ORIENTED_EDGE('',*,*,#2004,.F.);
#2006=CARTESIAN_POINT('',(40.,12.,0.));
#2007=VERTEX_POINT('',#2006);
#2008=CARTESIAN_POINT('',(40.,12.,0.));
#2009=DIRECTION('',(1.,0.,-0.));
#2010=VECTOR('',#2009,21.);
#2011=LINE('',#2008,#2010);
#2012=EDGE_CURVE('',#2007,#1999,#2011,.T.);
#2013=ORIENTED_EDGE('',*,*,#2012,.F.);
#2014=CARTESIAN_POINT('',(40.,-1.,0.));
#2015=VERTEX_POINT('',#2014);
#2016=CARTESIAN_POINT('',(40.,12.,0.));
#2017=DIRECTION('',(-0.,-1.,0.));
#2018=VECTOR('',#2017,13.);
#2019=LINE('',#2016,#2018);
#2020=EDGE_CURVE('',#2007,#2015,#2019,.T.);
#2021=ORIENTED_EDGE('',*,*,#2020,.T.);
#2022=CARTESIAN_POINT('',(-1.,-1.,0.));
#2023=VERTEX_POINT('',#2022);
#2024=CARTESIAN_POINT('',(40.,-1.,0.));
#2025=DIRECTION('',(-1.,0.,0.));
#2026=VECTOR('',#2025,41.);
#2027=LINE('',#2024,#2026);
#2028=EDGE_CURVE('',#2015,#2023,#2027,.T.);
#2029=ORIENTED_EDGE('',*,*,#2028,.T.);
#2030=CARTESIAN_POINT('',(-1.,57.,0.));
#2031=VERTEX_POINT('',#2030);
#2032=CARTESIAN_POINT('',(-1.,-1.,0.));
#2033=DIRECTION('',(0.,1.,0.));
#2034=VECTOR('',#2033,58.);
#2035=LINE('',#2032,#2034);
#2036=EDGE_CURVE('',#2023,#2031,#2035,.T.);
#2037=ORIENTED_EDGE('',*,*,#2036,.T.);
#2038=CARTESIAN_POINT('',(99.,57.,0.));
#2039=VERTEX_POINT('',#2038);
#2040=CARTESIAN_POINT('',(-1.,57.,0.));
#2041=DIRECTION('',(1.,0.,-0.));
#2042=VECTOR('',#2041,100.);
#2043=LINE('',#2040,#2042);
#2044=EDGE_CURVE('',#2031,#2039,#2043,.T.);
#2045=ORIENTED_EDGE('',*,*,#2044,.T.);
#2046=CARTESIAN_POINT('',(99.,57.,0.));
#2047=DIRECTION('',(0.,-1.,0.));
#2048=VECTOR('',#2047,58.);
#2049=LINE('',#2046,#2048);
#2050=EDGE_CURVE('',#2039,#1957,#2049,.T.);
#2051=ORIENTED_EDGE('',*,*,#2050,.T.);
#2052=ORIENTED_EDGE('',*,*,#1962,.T.);
#2053=EDGE_LOOP('',(#2005,#2013,#2021,#2029,#2037,#2045,#2051,#2052));
#2054=FACE_BOUND('',#2053,.T.);
#2055=ADVANCED_FACE('',(#1997,#2054),#1977,.F.);
#2056=CARTESIAN_POINT('',(99.,28.,2.));
#2057=DIRECTION('',(1.,0.,0.));
#2058=DIRECTION('',(0.,0.,-1.));
#2059=AXIS2_PLACEMENT_3D('',#2056,#2057,#2058);
#2060=PLANE('',#2059);
#2061=ORIENTED_EDGE('',*,*,#2050,.F.);
#2062=CARTESIAN_POINT('',(99.,57.,2.));
#2063=VERTEX_POINT('',#2062);
#2064=CARTESIAN_POINT('',(99.,57.,2.));
#2065=DIRECTION('',(0.,0.,-1.));
#2066=VECTOR('',#2065,2.);
#2067=LINE('',#2064,#2066);
#2068=EDGE_CURVE('',#2063,#2039,#2067,.T.);
#2069=ORIENTED_EDGE('',*,*,#2068,.F.);
#2070=CARTESIAN_POINT('',(99.,57.,2.));
#2071=DIRECTION('',(0.,-1.,0.));
#2072=VECTOR('',#2071,58.);
#2073=LINE('',#2070,#2072);
#2074=EDGE_CURVE('',#2063,#1939,#2073,.T.);
#2075=ORIENTED_EDGE('',*,*,#2074,.T.);
#2076=ORIENTED_EDGE('',*,*,#1968,.T.);
#2077=EDGE_LOOP('',(#2061,#2069,#2075,#2076));
#2078=FACE_BOUND('',#2077,.T.);
#2079=ADVANCED_FACE('',(#2078),#2060,.T.);
#2080=CARTESIAN_POINT('',(49.,57.,2.));
#2081=DIRECTION('',(0.,1.,0.));
#2082=DIRECTION('',(0.,0.,1.));
#2083=AXIS2_PLACEMENT_3D('',#2080,#2081,#2082);
#2084=PLANE('',#2083);
#2085=ORIENTED_EDGE('',*,*,#2044,.F.);
#2086=CARTESIAN_POINT('',(-1.,57.,2.));
#2087=VERTEX_POINT('',#2086);
#2088=CARTESIAN_POINT('',(-1.,57.,2.));
#2089=DIRECTION('',(0.,0.,-1.));
#2090=VECTOR('',#2089,2.);
#2091=LINE('',#2088,#2090);
#2092=EDGE_CURVE('',#2087,#2031,#2091,.T.);
#2093=ORIENTED_EDGE('',*,*,#2092,.F.);
#2094=CARTESIAN_POINT('',(-1.,57.,2.));
#2095=DIRECTION('',(1.,0.,-0.));
#2096=VECTOR('',#2095,100.);
#2097=LINE('',#2094,#2096);
#2098=EDGE_CURVE('',#2087,#2063,#2097,.T.);
#2099=ORIENTED_EDGE('',*,*,#2098,.T.);
#2100=ORIENTED_EDGE('',*,*,#2068,.T.);
#2101=EDGE_LOOP('',(#2085,#2093,#2099,#2100));
#2102=FACE_BOUND('',#2101,.T.);
#2103=ADVANCED_FACE('',(#2102),#2084,.T.);
#2104=CARTESIAN_POINT('',(-1.,28.,2.));
#2105=DIRECTION('',(-1.,0.,0.));
#2106=DIRECTION('',(-0.,-1.,0.));
#2107=AXIS2_PLACEMENT_3D('',#2104,#2105,#2106);
#2108=PLANE('',#2107);
#2109=ORIENTED_EDGE('',*,*,#2036,.F.);
#2110=CARTESIAN_POINT('',(-1.,-1.,2.));
#2111=VERTEX_POINT('',#2110);
#2112=CARTESIAN_POINT('',(-1.,-1.,2.));
#2113=DIRECTION('',(0.,0.,-1.));
#2114=VECTOR('',#2113,2.);
#2115=LINE('',#2112,#2114);
#2116=EDGE_CURVE('',#2111,#2023,#2115,.T.);
#2117=ORIENTED_EDGE('',*,*,#2116,.F.);
#2118=CARTESIAN_POINT('',(-1.,-1.,2.));
#2119=DIRECTION('',(0.,1.,0.));
#2120=VECTOR('',#2119,58.);
#2121=LINE('',#2118,#2120);
#2122=EDGE_CURVE('',#2111,#2087,#2121,.T.);
#2123=ORIENTED_EDGE('',*,*,#2122,.T.);
#2124=ORIENTED_EDGE('',*,*,#2092,.T.);
#2125=EDGE_LOOP('',(#2109,#2117,#2123,#2124));
#2126=FACE_BOUND('',#2125,.T.);
#2127=ADVANCED_FACE('',(#2126),#2108,.T.);
#2128=CARTESIAN_POINT('',(49.,46.7,2.));
#2129=DIRECTION('',(0.,0.,-1.));
#2130=DIRECTION('',(-1.,0.,0.));
#2131=AXIS2_PLACEMENT_3D('',#2128,#2129,#2130);
#2132=CYLINDRICAL_SURFACE('',#2131,5.);
#2133=CARTESIAN_POINT('',(44.,46.7,2.));
#2134=VERTEX_POINT('',#2133);
#2135=CARTESIAN_POINT('',(44.,46.7,0.));
#2136=DIRECTION('',(-0.,-0.,1.));
#2137=VECTOR('',#2136,2.);
#2138=LINE('',#2135,#2137);
#2139=EDGE_CURVE('',#1981,#2134,#2138,.T.);
#2140=ORIENTED_EDGE('',*,*,#2139,.F.);
#2141=ORIENTED_EDGE('',*,*,#1987,.F.);
#2142=ORIENTED_EDGE('',*,*,#1994,.F.);
#2143=ORIENTED_EDGE('',*,*,#2139,.T.);
#2144=CARTESIAN_POINT('',(54.,46.7,2.));
#2145=VERTEX_POINT('',#2144);
#2146=CARTESIAN_POINT('',(49.,46.7,2.));
#2147=DIRECTION('',(0.,0.,1.));
#2148=DIRECTION('',(1.,0.,-0.));
#2149=AXIS2_PLACEMENT_3D('',#2146,#2147,#2148);
#2150=CIRCLE('',#2149,5.);
#2151=EDGE_CURVE('',#2134,#2145,#2150,.T.);
#2152=ORIENTED_EDGE('',*,*,#2151,.T.);
#2153=CARTESIAN_POINT('',(49.,46.7,2.));
#2154=DIRECTION('',(0.,0.,1.));
#2155=DIRECTION('',(1.,0.,-0.));
#2156=AXIS2_PLACEMENT_3D('',#2153,#2154,#2155);
#2157=CIRCLE('',#2156,5.);
#2158=EDGE_CURVE('',#2145,#2134,#2157,.T.);
#2159=ORIENTED_EDGE('',*,*,#2158,.T.);
#2160=EDGE_LOOP('',(#2140,#2141,#2142,#2143,#2152,#2159));
#2161=FACE_BOUND('',#2160,.T.);
#2162=ADVANCED_FACE('',(#2161),#2132,.F.);
#2163=CARTESIAN_POINT('',(49.,-1.,2.));
#2164=DIRECTION('',(0.,-1.,0.));
#2165=DIRECTION('',(0.,0.,-1.));
#2166=AXIS2_PLACEMENT_3D('',#2163,#2164,#2165);
#2167=PLANE('',#2166);
#2168=CARTESIAN_POINT('',(40.,-1.,2.));
#2169=VERTEX_POINT('',#2168);
#2170=CARTESIAN_POINT('',(40.,-1.,2.));
#2171=DIRECTION('',(0.,0.,-1.));
#2172=VECTOR('',#2171,2.);
#2173=LINE('',#2170,#2172);
#2174=EDGE_CURVE('',#2169,#2015,#2173,.T.);
#2175=ORIENTED_EDGE('',*,*,#2174,.F.);
#2176=CARTESIAN_POINT('',(40.,-1.,2.));
#2177=DIRECTION('',(-1.,0.,0.));
#2178=VECTOR('',#2177,41.);
#2179=LINE('',#2176,#2178);
#2180=EDGE_CURVE('',#2169,#2111,#2179,.T.);
#2181=ORIENTED_EDGE('',*,*,#2180,.T.);
#2182=ORIENTED_EDGE('',*,*,#2116,.T.);
#2183=ORIENTED_EDGE('',*,*,#2028,.F.);
#2184=EDGE_LOOP('',(#2175,#2181,#2182,#2183));
#2185=FACE_BOUND('',#2184,.T.);
#2186=ADVANCED_FACE('',(#2185),#2167,.T.);
#2187=CARTESIAN_POINT('',(0.,0.,2.));
#2188=DIRECTION('',(0.,0.,1.));
#2189=DIRECTION('',(1.,0.,0.));
#2190=AXIS2_PLACEMENT_3D('',#2187,#2188,#2189);
#2191=PLANE('',#2190);
#2192=CARTESIAN_POINT('',(61.,12.,2.));
#2193=VERTEX_POINT('',#2192);
#2194=CARTESIAN_POINT('',(61.,-1.,2.));
#2195=DIRECTION('',(0.,1.,0.));
#2196=VECTOR('',#2195,13.);
#2197=LINE('',#2194,#2196);
#2198=EDGE_CURVE('',#1941,#2193,#2197,.T.);
#2199=ORIENTED_EDGE('',*,*,#2198,.F.);
#2200=ORIENTED_EDGE('',*,*,#1946,.F.);
#2201=ORIENTED_EDGE('',*,*,#2074,.F.);
#2202=ORIENTED_EDGE('',*,*,#2098,.F.);
#2203=ORIENTED_EDGE('',*,*,#2122,.F.);
#2204=ORIENTED_EDGE('',*,*,#2180,.F.);
#2205=CARTESIAN_POINT('',(40.,12.,2.));
#2206=VERTEX_POINT('',#2205);
#2207=CARTESIAN_POINT('',(40.,-1.,2.));
#2208=DIRECTION('',(0.,1.,0.));
#2209=VECTOR('',#2208,13.);
#2210=LINE('',#2207,#2209);
#2211=EDGE_CURVE('',#2169,#2206,#2210,.T.);
#2212=ORIENTED_EDGE('',*,*,#2211,.T.);
#2213=CARTESIAN_POINT('',(61.,12.,2.));
#2214=DIRECTION('',(-1.,0.,0.));
#2215=VECTOR('',#2214,21.);
#2216=LINE('',#2213,#2215);
#2217=EDGE_CURVE('',#2193,#2206,#2216,.T.);
#2218=ORIENTED_EDGE('',*,*,#2217,.F.);
#2219=EDGE_LOOP('',(#2199,#2200,#2201,#2202,#2203,#2204,#2212,#2218));
#2220=FACE_BOUND('',#2219,.T.);
#2221=ORIENTED_EDGE('',*,*,#2151,.F.);
#2222=ORIENTED_EDGE('',*,*,#2158,.F.);
#2223=EDGE_LOOP('',(#2221,#2222));
#2224=FACE_BOUND('',#2223,.T.);
#2225=ADVANCED_FACE('',(#2220,#2224),#2191,.T.);
#2226=CARTESIAN_POINT('',(61.,3.5,12.1));
#2227=DIRECTION('',(1.,0.,0.));
#2228=DIRECTION('',(0.,0.,-1.));
#2229=AXIS2_PLACEMENT_3D('',#2226,#2227,#2228);
#2230=PLANE('',#2229);
#2231=ORIENTED_EDGE('',*,*,#2198,.T.);
#2232=CARTESIAN_POINT('',(61.,12.,2.));
#2233=DIRECTION('',(0.,0.,-1.));
#2234=VECTOR('',#2233,2.);
#2235=LINE('',#2232,#2234);
#2236=EDGE_CURVE('',#2193,#1999,#2235,.T.);
#2237=ORIENTED_EDGE('',*,*,#2236,.T.);
#2238=ORIENTED_EDGE('',*,*,#2004,.T.);
#2239=ORIENTED_EDGE('',*,*,#1954,.F.);
#2240=EDGE_LOOP('',(#2231,#2237,#2238,#2239));
#2241=FACE_BOUND('',#2240,.T.);
#2242=ADVANCED_FACE('',(#2241),#2230,.F.);
#2243=CARTESIAN_POINT('',(54.,12.,12.1));
#2244=DIRECTION('',(0.,1.,0.));
#2245=DIRECTION('',(0.,0.,1.));
#2246=AXIS2_PLACEMENT_3D('',#2243,#2244,#2245);
#2247=PLANE('',#2246);
#2248=ORIENTED_EDGE('',*,*,#2217,.T.);
#2249=CARTESIAN_POINT('',(40.,12.,2.));
#2250=DIRECTION('',(0.,0.,-1.));
#2251=VECTOR('',#2250,2.);
#2252=LINE('',#2249,#2251);
#2253=EDGE_CURVE('',#2206,#2007,#2252,.T.);
#2254=ORIENTED_EDGE('',*,*,#2253,.T.);
#2255=ORIENTED_EDGE('',*,*,#2012,.T.);
#2256=ORIENTED_EDGE('',*,*,#2236,.F.);
#2257=EDGE_LOOP('',(#2248,#2254,#2255,#2256));
#2258=FACE_BOUND('',#2257,.T.);
#2259=ADVANCED_FACE('',(#2258),#2247,.F.);
#2260=CARTESIAN_POINT('',(40.,3.5,12.1));
#2261=DIRECTION('',(1.,-0.,0.));
#2262=DIRECTION('',(0.,1.,0.));
#2263=AXIS2_PLACEMENT_3D('',#2260,#2261,#2262);
#2264=PLANE('',#2263);
#2265=ORIENTED_EDGE('',*,*,#2174,.T.);
#2266=ORIENTED_EDGE('',*,*,#2020,.F.);
#2267=ORIENTED_EDGE('',*,*,#2253,.F.);
#2268=ORIENTED_EDGE('',*,*,#2211,.F.);
#2269=EDGE_LOOP('',(#2265,#2266,#2267,#2268));
#2270=FACE_BOUND('',#2269,.T.);
#2271=ADVANCED_FACE('',(#2270),#2264,.T.);
#2272=CLOSED_SHELL('',(#1972,#2055,#2079,#2103,#2127,#2162,#2186,#2225,#2242,#2259,#2271));
#2273=MANIFOLD_SOLID_BREP('Body 01',#2272);
#1932=STYLED_ITEM('',(#728),#2273);
#16=SHAPE_REPRESENTATION('root',(#15),#10);
#17=ADVANCED_BREP_SHAPE_REPRESENTATION('root',(#721,#802,#876,#950,#1024,#1098,#1172,#1246,#1931,#2273),#10);
#2281=SHAPE_REPRESENTATION_RELATIONSHIP('','',#16,#17);
#2282=CARTESIAN_POINT('',(0.,0.,0.));
#2283=DIRECTION('',(0.,0.,1.));
#2284=DIRECTION('',(1.,0.,0.));
#2285=AXIS2_PLACEMENT_3D('',#2282,#2283,#2284);
#2287=MAPPED_ITEM('',#2286,#2285);
#2286=REPRESENTATION_MAP(#2285,#16);
#2288=APPLICATION_CONTEXT('Managed model based 3d engineering');
#2289=APPLICATION_PROTOCOL_DEFINITION('international standard','ap242_managed_model_based_3d_engineering',2014,#2288);
#2290=PRODUCT_CONTEXT('',#2288,'mechanical');
#2291=PRODUCT_DEFINITION_CONTEXT('part definition',#2288,'design');
#24=PRODUCT('root','root','',(#2290));
#2292=PRODUCT_RELATED_PRODUCT_CATEGORY('part','',(#24));
#2293=PRODUCT_DEFINITION_FORMATION_WITH_SPECIFIED_SOURCE('','',#24,.NOT_KNOWN.);
#25=PRODUCT_DEFINITION('design','',#2293,#2291);
#23=PRODUCT_DEFINITION_SHAPE('','',#25);
#2294=SHAPE_DEFINITION_REPRESENTATION(#23,#16);
#11=DRAUGHTING_MODEL('',(#2287),#10);
#2295=DESCRIPTIVE_REPRESENTATION_ITEM('KEY','C:\\Users\\evanl\\AppData\\Local\\Packages\\Shapr3D.Shapr3D_j403pzjkqtqbj\\TempState\\9332bc46-7123-4429-822f-45db700f5c67.tmp');
#2296=PROPERTY_DEFINITION('KEY','',#25);
#2297=REPRESENTATION('',(#2295),#10);
#2298=PROPERTY_DEFINITION_REPRESENTATION(#2296,#2297);
#2299=GENERAL_PROPERTY('','KEY','');
#2300=GENERAL_PROPERTY_ASSOCIATION('','',#2299,#2296);
#1=MECHANICAL_DESIGN_GEOMETRIC_PRESENTATION_REPRESENTATION('',(#26,#729,#803,#877,#951,#1025,#1099,#1173,#1247,#1932),#10);
ENDSEC;
END-ISO-10303-21;
