M48
; DRILL file {KiCad 9.0.0} date 2025-06-04T21:14:10-0400
; FORMAT={-:-/ absolute / inch / decimal}
; #@! TF.CreationDate,2025-06-04T21:14:10-04:00
; #@! TF.GenerationSoftware,Kicad,Pcbnew,9.0.0
; #@! TF.FileFunction,Plated,1,2,PTH
FMAT,2
INCH
; #@! TA.AperFunction,Plated,PTH,ComponentDrill
T1C0.0079
; #@! TA.AperFunction,Plated,PTH,ViaDrill
T2C0.0118
; #@! TA.AperFunction,Plated,PTH,ComponentDrill
T3C0.0236
; #@! TA.AperFunction,Plated,PTH,ComponentDrill
T4C0.0276
; #@! TA.AperFunction,Plated,PTH,ComponentDrill
T5C0.0394
%
G90
G05
T1
X6.8699Y-4.2353
X6.8699Y-4.2904
X6.8975Y-4.2077
X6.8975Y-4.2628
X6.8975Y-4.318
X6.925Y-4.2353
X6.925Y-4.2904
X6.9526Y-4.2077
X6.9526Y-4.2628
X6.9526Y-4.318
X6.9802Y-4.2353
X6.9802Y-4.2904
T2
X3.7795Y-4.8898
X3.8124Y-4.4685
X3.8189Y-4.7835
X3.8307Y-4.6811
X3.8339Y-4.2913
X3.8386Y-5.126
X3.8439Y-4.1201
X3.8583Y-4.372
X3.864Y-4.505
X3.8701Y-4.9094
X3.8762Y-4.2915
X3.9132Y-4.5443
X3.9174Y-3.8414
X3.9291Y-3.2992
X3.9528Y-4.5197
X3.9605Y-4.6635
X3.9666Y-4.7191
X3.9803Y-3.8504
X4.0197Y-5.0748
X4.0215Y-4.2294
X4.051Y-4.0719
X4.0689Y-4.3701
X4.1101Y-3.9833
X4.1299Y-5.0827
X4.1732Y-4.2205
X4.1949Y-4.3622
X4.2087Y-5.0472
X4.2165Y-4.5709
X4.2283Y-4.7323
X4.2559Y-4.8583
X4.3306Y-4.9961
X4.3701Y-4.189
X4.3701Y-4.6142
X4.4035Y-4.9557
X4.4134Y-5.0827
X4.4488Y-4.9311
X4.4506Y-5.0788
X4.4606Y-4.5984
X4.5118Y-4.9606
X4.5205Y-4.9909
X4.5235Y-4.8691
X4.5451Y-4.7323
X4.5825Y-4.9479
X4.5997Y-4.9282
X4.6022Y-3.7471
X4.6194Y-4.1805
X4.6299Y-4.9213
X4.6317Y-4.8928
X4.6496Y-3.3465
X4.6654Y-5.0551
X4.7528Y-3.998
X4.9094Y-4.7494
X4.9319Y-4.815
X5.0451Y-4.7806
X5.061Y-3.313
X5.0748Y-4.752
X5.1829Y-4.062
X5.4093Y-4.6335
X5.4487Y-3.7865
X5.5372Y-4.5837
X5.5865Y-4.6821
X5.6258Y-4.8593
X5.8128Y-3.5306
X5.862Y-3.9735
X5.9211Y-3.2353
X5.9532Y-3.5153
X6.0294Y-3.2353
X6.0748Y-3.7119
X6.0997Y-4.5711
X6.1008Y-4.1737
X6.1274Y-5.2261
X6.1278Y-4.8888
X6.1278Y-5.0955
X6.1457Y-3.6969
X6.2065Y-3.9439
X6.2459Y-4.6723
X6.2754Y-3.5699
X6.305Y-3.8947
X6.3148Y-4.1802
X6.3504Y-4.1299
X6.3607Y-4.5307
X6.3935Y-4.4429
X6.4172Y-4.4203
X6.425Y-4.2174
X6.4882Y-4.3839
X6.5434Y-5.015
X6.5747Y-4.7822
X6.5904Y-3.5601
X6.5904Y-4.4164
X6.6669Y-4.4581
X6.6684Y-3.9833
X6.6844Y-4.1561
X6.7183Y-4.4656
X6.7282Y-4.3573
X6.738Y-4.1605
X6.7421Y-4.2781
X6.7577Y-5.1841
X6.7843Y-4.3069
X6.8252Y-4.3784
X6.8266Y-4.062
X6.866Y-3.3928
X6.8708Y-4.4426
X6.8949Y-4.7821
X6.9291Y-3.75
X7.029Y-3.8022
X7.079Y-4.505
X7.0825Y-3.2648
X7.0825Y-3.7983
X7.0899Y-4.3658
X7.1022Y-4.9872
T4
X5.4883Y-3.4192
X5.4921Y-3.5071
X5.7005Y-3.4099
X5.7044Y-3.4978
T5
X3.7361Y-3.5388
X3.7361Y-3.6388
X3.7361Y-3.7388
X3.7361Y-3.8388
X3.7361Y-3.9388
X3.7361Y-4.0388
X3.7361Y-4.1388
X3.7361Y-4.2388
X3.7361Y-4.3388
X3.7361Y-4.4388
X3.7361Y-4.5388
X3.7361Y-4.6388
X3.7361Y-4.7388
X3.7361Y-4.8388
X4.0339Y-5.1811
X4.1339Y-5.1811
X4.8286Y-4.7494
X4.8286Y-4.8494
X6.3526Y-3.1664
X6.4526Y-3.1664
X6.5526Y-3.1664
X6.6526Y-3.1664
T3
G00X4.255Y-5.0687
M15
G01X4.255Y-5.0254
M16
G05
G00X4.255Y-5.2274
M15
G01X4.255Y-5.1959
M16
G05
G00X4.5951Y-5.0687
M15
G01X4.5951Y-5.0254
M16
G05
G00X4.5951Y-5.2274
M15
G01X4.5951Y-5.1959
M16
G05
M30
