%TF.GenerationSoftware,KiCad,Pcbnew,9.0.0*%
%TF.CreationDate,2025-06-14T01:49:43-04:00*%
%TF.ProjectId,thermal-pcb,74686572-6d61-46c2-9d70-63622e6b6963,rev?*%
%TF.SameCoordinates,Original*%
%TF.FileFunction,Copper,L1,Top*%
%TF.FilePolarity,Positive*%
%FSLAX46Y46*%
G04 Gerber Fmt 4.6, Leading zero omitted, Abs format (unit mm)*
G04 Created by KiCad (PCBNEW 9.0.0) date 2025-06-14 01:49:43*
%MOMM*%
%LPD*%
G01*
G04 APERTURE LIST*
G04 Aperture macros list*
%AMRoundRect*
0 Rectangle with rounded corners*
0 $1 Rounding radius*
0 $2 $3 $4 $5 $6 $7 $8 $9 X,Y pos of 4 corners*
0 Add a 4 corners polygon primitive as box body*
4,1,4,$2,$3,$4,$5,$6,$7,$8,$9,$2,$3,0*
0 Add four circle primitives for the rounded corners*
1,1,$1+$1,$2,$3*
1,1,$1+$1,$4,$5*
1,1,$1+$1,$6,$7*
1,1,$1+$1,$8,$9*
0 Add four rect primitives between the rounded corners*
20,1,$1+$1,$2,$3,$4,$5,0*
20,1,$1+$1,$4,$5,$6,$7,0*
20,1,$1+$1,$6,$7,$8,$9,0*
20,1,$1+$1,$8,$9,$2,$3,0*%
%AMRotRect*
0 Rectangle, with rotation*
0 The origin of the aperture is its center*
0 $1 length*
0 $2 width*
0 $3 Rotation angle, in degrees counterclockwise*
0 Add horizontal line*
21,1,$1,$2,0,0,$3*%
G04 Aperture macros list end*
%TA.AperFunction,SMDPad,CuDef*%
%ADD10RoundRect,0.250000X-0.375000X-0.625000X0.375000X-0.625000X0.375000X0.625000X-0.375000X0.625000X0*%
%TD*%
%TA.AperFunction,SMDPad,CuDef*%
%ADD11RoundRect,0.250000X0.375000X0.625000X-0.375000X0.625000X-0.375000X-0.625000X0.375000X-0.625000X0*%
%TD*%
%TA.AperFunction,ComponentPad*%
%ADD12R,1.700000X1.700000*%
%TD*%
%TA.AperFunction,ComponentPad*%
%ADD13O,1.700000X1.700000*%
%TD*%
%TA.AperFunction,ComponentPad*%
%ADD14R,1.905000X1.905000*%
%TD*%
%TA.AperFunction,ComponentPad*%
%ADD15C,1.905000*%
%TD*%
%TA.AperFunction,ComponentPad*%
%ADD16C,2.311400*%
%TD*%
%TA.AperFunction,HeatsinkPad*%
%ADD17C,0.600000*%
%TD*%
%TA.AperFunction,ComponentPad*%
%ADD18RotRect,1.100000X1.100000X115.000000*%
%TD*%
%TA.AperFunction,ComponentPad*%
%ADD19C,1.100000*%
%TD*%
%TA.AperFunction,HeatsinkPad*%
%ADD20O,1.000000X1.800000*%
%TD*%
%TA.AperFunction,HeatsinkPad*%
%ADD21O,1.000000X2.100000*%
%TD*%
%TA.AperFunction,ViaPad*%
%ADD22C,0.600000*%
%TD*%
%TA.AperFunction,ViaPad*%
%ADD23C,0.500000*%
%TD*%
%TA.AperFunction,Conductor*%
%ADD24C,0.400000*%
%TD*%
%TA.AperFunction,Conductor*%
%ADD25C,0.600000*%
%TD*%
%TA.AperFunction,Conductor*%
%ADD26C,0.200000*%
%TD*%
G04 APERTURE END LIST*
D10*
%TO.P,D1,1,K*%
%TO.N,PG*%
X179000000Y-80900000D03*
%TO.P,D1,2,A*%
%TO.N,Net-(D1-A)*%
X181800000Y-80900000D03*
%TD*%
D11*
%TO.P,D2,1,K*%
%TO.N,STAT2*%
X186600000Y-80926000D03*
%TO.P,D2,2,A*%
%TO.N,Net-(D2-A)*%
X183800000Y-80926000D03*
%TD*%
D12*
%TO.P,J2,1,Pin_1*%
%TO.N,VCC*%
X94896000Y-89886000D03*
D13*
%TO.P,J2,2,Pin_2*%
%TO.N,-BATT*%
X94896000Y-92426000D03*
%TO.P,J2,3,Pin_3*%
%TO.N,LCD_CS*%
X94896000Y-94965999D03*
%TO.P,J2,4,Pin_4*%
%TO.N,LCD_REST*%
X94896000Y-97506000D03*
%TO.P,J2,5,Pin_5*%
%TO.N,LCD_DC*%
X94896000Y-100046000D03*
%TO.P,J2,6,Pin_6*%
%TO.N,LCD_SDI*%
X94896000Y-102586000D03*
%TO.P,J2,7,Pin_7*%
%TO.N,LCD_SCK*%
X94896000Y-105126000D03*
%TO.P,J2,8,Pin_8*%
%TO.N,LCD_LED*%
X94896000Y-107666001D03*
%TO.P,J2,9,Pin_9*%
%TO.N,LCD_SDO*%
X94896000Y-110206000D03*
%TO.P,J2,10,Pin_10*%
%TO.N,LCD_T_CLK*%
X94896000Y-112746000D03*
%TO.P,J2,11,Pin_11*%
%TO.N,LCD_T_CS*%
X94896000Y-115286000D03*
%TO.P,J2,12,Pin_12*%
%TO.N,LCD_T_DIN*%
X94896000Y-117825999D03*
%TO.P,J2,13,Pin_13*%
%TO.N,LCD_T_DO*%
X94896000Y-120366000D03*
%TO.P,J2,14,Pin_14*%
%TO.N,LCD_T_IRQ*%
X94896000Y-122906000D03*
%TD*%
D14*
%TO.P,SW1,1,1*%
%TO.N,unconnected-(SW1-Pad1)*%
X141500001Y-131694000D03*
D15*
%TO.P,SW1,2,2*%
%TO.N,unconnected-(SW1-Pad2)*%
X145500001Y-131694000D03*
%TO.P,SW1,3,3*%
%TO.N,unconnected-(SW1-Pad3)*%
X149500001Y-131694000D03*
%TO.P,SW1,4,4*%
%TO.N,Net-(Q2-D)*%
X149500000Y-129194001D03*
%TO.P,SW1,5,5*%
%TO.N,Net-(J5-Pin_1)*%
X145500001Y-129194000D03*
%TO.P,SW1,6,6*%
%TO.N,unconnected-(SW1-Pad6)*%
X141500001Y-129194000D03*
D16*
%TO.P,SW1,7*%
%TO.N,N/C*%
X137400000Y-130444000D03*
%TO.P,SW1,8*%
X153600002Y-130444000D03*
%TD*%
D10*
%TO.P,D3,1,K*%
%TO.N,STAT1*%
X174250000Y-80900000D03*
%TO.P,D3,2,A*%
%TO.N,Net-(D3-A)*%
X177050000Y-80900000D03*
%TD*%
D12*
%TO.P,J4,1,Pin_1*%
%TO.N,-BATT*%
X161356000Y-80426000D03*
D13*
%TO.P,J4,2,Pin_2*%
%TO.N,RXD*%
X163896000Y-80426000D03*
%TO.P,J4,3,Pin_3*%
%TO.N,TXD*%
X166435999Y-80426000D03*
%TO.P,J4,4,Pin_4*%
%TO.N,VCC*%
X168976000Y-80426000D03*
%TD*%
D17*
%TO.P,U1,41,GND*%
%TO.N,-BATT*%
X175196000Y-109676000D03*
X176596000Y-109676000D03*
X174496000Y-108976000D03*
X175896000Y-108976000D03*
X177296000Y-108976000D03*
X175196000Y-108276000D03*
X176596000Y-108276000D03*
X174496000Y-107576000D03*
X175896000Y-107576000D03*
X177296000Y-107576000D03*
X175196000Y-106876000D03*
X176596000Y-106876000D03*
%TD*%
D12*
%TO.P,J5,1,Pin_1*%
%TO.N,Net-(J5-Pin_1)*%
X123850000Y-95950000D03*
D13*
%TO.P,J5,2,Pin_2*%
%TO.N,-BATT*%
X123850000Y-93410000D03*
%TD*%
D18*
%TO.P,U5,1,SDA*%
%TO.N,I2C_SDA*%
X144892348Y-88843556D03*
D19*
%TO.P,U5,2,VDD*%
%TO.N,VCC*%
X139499580Y-89080045D03*
%TO.P,U5,3,GND*%
%TO.N,-BATT*%
X139402100Y-86847302D03*
%TO.P,U5,4,SCL*%
%TO.N,I2C_SCL*%
X144792420Y-86611955D03*
%TD*%
D12*
%TO.P,J1,1,Pin_1*%
%TO.N,Net-(J1-Pin_1)*%
X105000000Y-131600000D03*
D13*
%TO.P,J1,2,Pin_2*%
%TO.N,-BATT*%
X102460000Y-131600000D03*
%TD*%
D20*
%TO.P,J3,S1,SHIELD*%
%TO.N,-BATT*%
X116716000Y-132375000D03*
D21*
X116716000Y-128195000D03*
D20*
X108076000Y-132375000D03*
D21*
X108076000Y-128195000D03*
%TD*%
D22*
%TO.N,+BATT*%
X117646000Y-124276000D03*
X138650000Y-119850000D03*
X116396000Y-125676000D03*
X117600000Y-125000000D03*
X116833500Y-125176000D03*
%TO.N,Net-(JP11-B)*%
X113000000Y-125250000D03*
X97500000Y-130199999D03*
%TO.N,VBUS*%
X114600000Y-126000000D03*
X111848000Y-125876000D03*
X115949999Y-119695001D03*
X108100000Y-123400000D03*
D23*
%TO.N,VCC*%
X160146000Y-98926000D03*
X173396000Y-103176000D03*
D22*
X151210500Y-89289500D03*
%TO.N,-BATT*%
X182800000Y-90550000D03*
D23*
X111000000Y-117200000D03*
X97382091Y-109000000D03*
X170646000Y-113426000D03*
D22*
X140646000Y-116426000D03*
X106900000Y-128200000D03*
X179896000Y-82926000D03*
X128550000Y-84150000D03*
D23*
X102896000Y-103426000D03*
D22*
X168500000Y-87750000D03*
X156750000Y-117000000D03*
X100400000Y-114800000D03*
D23*
X104396000Y-101176000D03*
D22*
X180083377Y-110891049D03*
X117250000Y-104750000D03*
D23*
X96000000Y-124200000D03*
D22*
X118100000Y-85000000D03*
X99800000Y-83800000D03*
X106000000Y-107200000D03*
D23*
X169377856Y-101176000D03*
X98000000Y-111050000D03*
X97300000Y-118900000D03*
X98146000Y-114426000D03*
D22*
X153146000Y-82176000D03*
D23*
X155646000Y-124176000D03*
D22*
X107400000Y-116650000D03*
D23*
X120250000Y-99250000D03*
D22*
X148896000Y-100926000D03*
X98300000Y-124700000D03*
X145750000Y-119750000D03*
D23*
X113250000Y-116800000D03*
X155636858Y-132742065D03*
D22*
X171646000Y-131676000D03*
D23*
X96835800Y-113500000D03*
D22*
X154959885Y-106012718D03*
X97000000Y-121500000D03*
X102146000Y-107426000D03*
D23*
X97634544Y-104650930D03*
D22*
X102100000Y-128900000D03*
X138396000Y-96176000D03*
D23*
X114896000Y-123676000D03*
X161500000Y-132000000D03*
X171146000Y-105676000D03*
D22*
X173150000Y-83750000D03*
D23*
X170896000Y-110676000D03*
X101100000Y-97800000D03*
D22*
X107400000Y-120200000D03*
X159396000Y-90676000D03*
X117750000Y-90750000D03*
X100752246Y-119865564D03*
X150396000Y-82176000D03*
X180396000Y-126676000D03*
X118500000Y-128400000D03*
X127000000Y-123000000D03*
X111000000Y-106400000D03*
X131646000Y-103176000D03*
X103350000Y-111000000D03*
X147646000Y-89676000D03*
%TO.N,Net-(D1-A)*%
X181150000Y-83550000D03*
D23*
%TO.N,PG*%
X167396000Y-112176000D03*
D22*
X173456000Y-99000000D03*
D23*
X106550000Y-110801000D03*
D22*
%TO.N,STAT2*%
X174726000Y-99600000D03*
D23*
X157646000Y-100176000D03*
X112750000Y-106750000D03*
X169784909Y-105564909D03*
D22*
%TO.N,Net-(D2-A)*%
X183700000Y-85650000D03*
%TO.N,Net-(D3-A)*%
X176500000Y-84200000D03*
%TO.N,STAT1*%
X175996000Y-96500000D03*
X120722068Y-101548068D03*
%TO.N,I2C_SCL*%
X156100000Y-93900000D03*
X161300000Y-104900000D03*
%TO.N,LCD_SCK*%
X171350000Y-108795000D03*
D23*
%TO.N,LCD_T_CLK*%
X164800000Y-111350000D03*
%TO.N,LCD_REST*%
X173359790Y-111212219D03*
D22*
%TO.N,LCD_LED*%
X172320000Y-109395000D03*
%TO.N,LCD_T_DIN*%
X162396000Y-112850000D03*
D23*
%TO.N,LCD_SDI*%
X100596000Y-118454000D03*
D22*
X177266000Y-117484000D03*
%TO.N,LCD_T_DO*%
X99501126Y-97570873D03*
X164800000Y-107121000D03*
D23*
X99396000Y-115426000D03*
D22*
%TO.N,LCD_DC*%
X98456735Y-109005265D03*
X179806000Y-114426000D03*
%TO.N,LCD_T_IRQ*%
X160250000Y-113650000D03*
%TO.N,LCD_T_CS*%
X162996000Y-112276000D03*
%TO.N,LCD_SDO*%
X169340000Y-113235000D03*
%TO.N,LCD_CS*%
X174519000Y-112842000D03*
%TO.N,USB_D+*%
X112100000Y-129100000D03*
X166203000Y-127381000D03*
%TO.N,USB_D-*%
X113046000Y-129002527D03*
X168350000Y-121348000D03*
D23*
%TO.N,RXD*%
X172004641Y-88745359D03*
%TO.N,TXD*%
X172923909Y-88676091D03*
D22*
%TO.N,Net-(U4-OC)*%
X152750000Y-102000000D03*
X151500000Y-106250000D03*
%TO.N,Net-(JP12-A)*%
X104900000Y-129100000D03*
X114819778Y-126769222D03*
X109996000Y-126900000D03*
%TD*%
D24*
%TO.N,VBUS*%
X114245000Y-121400000D02*
X114245000Y-125645000D01*
X114245000Y-125645000D02*
X114600000Y-126000000D01*
X115949999Y-119695001D02*
X114245000Y-121400000D01*
D25*
%TO.N,+BATT*%
X118000000Y-125100000D02*
X117700000Y-125100000D01*
X123850000Y-119250000D02*
X118000000Y-125100000D01*
X138050000Y-119250000D02*
X123850000Y-119250000D01*
X117700000Y-125100000D02*
X117600000Y-125000000D01*
X138650000Y-119850000D02*
X138050000Y-119250000D01*
%TO.N,Net-(JP11-B)*%
X103299999Y-124400000D02*
X112150000Y-124400000D01*
X112150000Y-124400000D02*
X113000000Y-125250000D01*
X97500000Y-130199999D02*
X103299999Y-124400000D01*
%TO.N,VBUS*%
X114109925Y-123400000D02*
X114177463Y-123332462D01*
X108100000Y-123400000D02*
X114109925Y-123400000D01*
D24*
X114600000Y-126000000D02*
X111970000Y-126000000D01*
X111970000Y-126000000D02*
X111848000Y-125878000D01*
X111848000Y-125878000D02*
X111848000Y-125876000D01*
D25*
%TO.N,VCC*%
X173396000Y-103176000D02*
X164396000Y-103176000D01*
X140896535Y-90477000D02*
X139499580Y-89080045D01*
X164396000Y-103176000D02*
X160146000Y-98926000D01*
X150023000Y-90477000D02*
X140896535Y-90477000D01*
X151210500Y-89289500D02*
X150023000Y-90477000D01*
D26*
%TO.N,-BATT*%
X98050000Y-111000000D02*
X98000000Y-111050000D01*
X102460000Y-129260000D02*
X102460000Y-131600000D01*
X103350000Y-111000000D02*
X98050000Y-111000000D01*
X102100000Y-128900000D02*
X102460000Y-129260000D01*
%TO.N,Net-(D1-A)*%
X181150000Y-83550000D02*
X181800000Y-82900000D01*
X181800000Y-82900000D02*
X181800000Y-80900000D01*
%TO.N,PG*%
X106967000Y-110801000D02*
X106969000Y-110803000D01*
X106550000Y-110801000D02*
X106967000Y-110801000D01*
X108918600Y-110800000D02*
X166020000Y-110800000D01*
X108915600Y-110803000D02*
X108918600Y-110800000D01*
X166020000Y-110800000D02*
X167396000Y-112176000D01*
X106969000Y-110803000D02*
X108915600Y-110803000D01*
X173456000Y-99000000D02*
X178151232Y-99000000D01*
X180447000Y-84326943D02*
X179000000Y-82879943D01*
X178151232Y-99000000D02*
X180447000Y-96704232D01*
X180447000Y-96704232D02*
X180447000Y-84326943D01*
X179000000Y-82879943D02*
X179000000Y-80900000D01*
%TO.N,STAT2*%
X178118332Y-99600000D02*
X174726000Y-99600000D01*
X169646000Y-105426000D02*
X162896000Y-105426000D01*
X165506148Y-105564909D02*
X169784909Y-105564909D01*
X186600000Y-80926000D02*
X185005000Y-82521000D01*
X185005000Y-82521000D02*
X185005000Y-92713332D01*
X112750000Y-106750000D02*
X112851000Y-106851000D01*
X112851000Y-106851000D02*
X164220057Y-106851000D01*
X169784909Y-105564909D02*
X169646000Y-105426000D01*
X162896000Y-105426000D02*
X157646000Y-100176000D01*
X164220057Y-106851000D02*
X165506148Y-105564909D01*
X185005000Y-92713332D02*
X178118332Y-99600000D01*
%TO.N,Net-(D2-A)*%
X183700000Y-85650000D02*
X183800000Y-85550000D01*
X183800000Y-85550000D02*
X183800000Y-80926000D01*
%TO.N,Net-(D3-A)*%
X176500000Y-84200000D02*
X177050000Y-83650000D01*
X177050000Y-83650000D02*
X177050000Y-80900000D01*
%TO.N,STAT1*%
X174750000Y-91050000D02*
X174750000Y-81400000D01*
X174750000Y-81400000D02*
X174250000Y-80900000D01*
X155583000Y-93000000D02*
X154300000Y-94283000D01*
X154300000Y-94283000D02*
X129124700Y-94283000D01*
X176000000Y-95714000D02*
X173043000Y-92757000D01*
X173043000Y-92757000D02*
X172800000Y-93000000D01*
X176000000Y-96496000D02*
X176000000Y-95714000D01*
X129124700Y-94283000D02*
X121859632Y-101548068D01*
X173043000Y-92757000D02*
X174750000Y-91050000D01*
X121859632Y-101548068D02*
X120722068Y-101548068D01*
X175996000Y-96500000D02*
X176000000Y-96496000D01*
X172800000Y-93000000D02*
X155583000Y-93000000D01*
%TO.N,I2C_SCL*%
X156100000Y-99700000D02*
X156100000Y-93900000D01*
X161300000Y-104900000D02*
X156100000Y-99700000D01*
%TO.N,LCD_SCK*%
X171350000Y-108795000D02*
X171219000Y-108664000D01*
X99586100Y-108664000D02*
X96047700Y-105126000D01*
X96047700Y-105126000D02*
X94896000Y-105126000D01*
X171219000Y-108664000D02*
X99586100Y-108664000D01*
%TO.N,LCD_T_CLK*%
X103900001Y-111400000D02*
X103624001Y-111676000D01*
X95966000Y-111676000D02*
X94896000Y-112746000D01*
X164800000Y-111350000D02*
X164750000Y-111400000D01*
X103624001Y-111676000D02*
X95966000Y-111676000D01*
X164750000Y-111400000D02*
X103900001Y-111400000D01*
%TO.N,LCD_REST*%
X173359790Y-111212219D02*
X173359790Y-109584847D01*
X173359790Y-109584847D02*
X171896943Y-108122000D01*
X105512000Y-108122000D02*
X94896000Y-97506000D01*
X171896943Y-108122000D02*
X105512000Y-108122000D01*
%TO.N,LCD_LED*%
X99695000Y-109395000D02*
X172320000Y-109395000D01*
X97966000Y-107666000D02*
X99695000Y-109395000D01*
X94896000Y-107666000D02*
X97966000Y-107666000D01*
%TO.N,LCD_T_DIN*%
X96047700Y-117826000D02*
X94896000Y-117826000D01*
X101222700Y-112651000D02*
X162251000Y-112651000D01*
X162396000Y-112850000D02*
X162396000Y-112796000D01*
X101222700Y-112651000D02*
X96047700Y-117826000D01*
X162396000Y-112796000D02*
X162251000Y-112651000D01*
%TO.N,LCD_SDI*%
X176296000Y-118454000D02*
X100596000Y-118454000D01*
X177266000Y-117484000D02*
X176296000Y-118454000D01*
%TO.N,LCD_T_DO*%
X109040000Y-107320000D02*
X99501126Y-97781126D01*
X99396000Y-115866000D02*
X99396000Y-115426000D01*
X164601000Y-107320000D02*
X109040000Y-107320000D01*
X99501126Y-97781126D02*
X99501126Y-97570873D01*
X94896000Y-120366000D02*
X99396000Y-115866000D01*
X164800000Y-107121000D02*
X164601000Y-107320000D01*
%TO.N,LCD_DC*%
X168400000Y-109800000D02*
X172045000Y-113445000D01*
X178262000Y-113445000D02*
X179243000Y-114426000D01*
X98456735Y-109005265D02*
X98456735Y-109335265D01*
X98456735Y-109335265D02*
X98921470Y-109800000D01*
X163635000Y-109800000D02*
X168400000Y-109800000D01*
X98921470Y-109800000D02*
X163633100Y-109800000D01*
X163634050Y-109800950D02*
X163635000Y-109800000D01*
X172045000Y-113445000D02*
X178262000Y-113445000D01*
X179243000Y-114426000D02*
X179806000Y-114426000D01*
X163633100Y-109800000D02*
X163634050Y-109800950D01*
%TO.N,LCD_T_IRQ*%
X94896000Y-122426000D02*
X94896000Y-122906000D01*
X102240800Y-115081000D02*
X94896000Y-122426000D01*
X158819000Y-115081000D02*
X102240800Y-115081000D01*
X160250000Y-113650000D02*
X158819000Y-115081000D01*
%TO.N,LCD_T_CS*%
X99083700Y-112250000D02*
X96047700Y-115286000D01*
X162654000Y-112250000D02*
X99083700Y-112250000D01*
X162996000Y-112276000D02*
X162680000Y-112276000D01*
X96047700Y-115286000D02*
X94896000Y-115286000D01*
X162680000Y-112276000D02*
X162654000Y-112250000D01*
%TO.N,LCD_SDO*%
X169340000Y-113074000D02*
X166517000Y-110251000D01*
X169340000Y-113235000D02*
X169340000Y-113074000D01*
X94941000Y-110251000D02*
X94896000Y-110206000D01*
X166517000Y-110251000D02*
X94941000Y-110251000D01*
%TO.N,LCD_CS*%
X172176000Y-107721000D02*
X108802800Y-107721000D01*
X108802800Y-107721000D02*
X96047700Y-94966000D01*
X174519000Y-110064000D02*
X172176000Y-107721000D01*
X174519000Y-112842000D02*
X174519000Y-110064000D01*
X96047700Y-94966000D02*
X94896000Y-94966000D01*
%TO.N,USB_D+*%
X113000000Y-129900000D02*
X131600000Y-129900000D01*
X112100000Y-129100000D02*
X112200000Y-129100000D01*
X134000000Y-127500000D02*
X166084000Y-127500000D01*
X166084000Y-127500000D02*
X166203000Y-127381000D01*
X112200000Y-129100000D02*
X113000000Y-129900000D01*
X131600000Y-129900000D02*
X134000000Y-127500000D01*
%TO.N,USB_D-*%
X163198000Y-126500000D02*
X116400000Y-126500000D01*
X168350000Y-121348000D02*
X163198000Y-126500000D01*
X116400000Y-126500000D02*
X113897473Y-129002527D01*
X113897473Y-129002527D02*
X113046000Y-129002527D01*
%TO.N,RXD*%
X172004641Y-88534641D02*
X163896000Y-80426000D01*
X172004641Y-88745359D02*
X172004641Y-88534641D01*
%TO.N,TXD*%
X172713191Y-88676091D02*
X166435999Y-82398899D01*
X172923909Y-88676091D02*
X172713191Y-88676091D01*
X166435999Y-82398899D02*
X166435999Y-80426000D01*
D24*
%TO.N,Net-(U4-OC)*%
X152750000Y-102000000D02*
X151500000Y-103250000D01*
X151500000Y-103250000D02*
X151500000Y-106250000D01*
D25*
%TO.N,Net-(JP12-A)*%
X109996000Y-126900000D02*
X109696000Y-126600000D01*
X104900000Y-129000000D02*
X104900000Y-129100000D01*
X109996000Y-126900000D02*
X114689000Y-126900000D01*
X107300000Y-126600000D02*
X104900000Y-129000000D01*
X114689000Y-126900000D02*
X114819778Y-126769222D01*
X109696000Y-126600000D02*
X107300000Y-126600000D01*
%TD*%
%TA.AperFunction,Conductor*%
%TO.N,+BATT*%
G36*
X119786956Y-123115619D02*
G01*
X119804436Y-123148799D01*
X119900000Y-124200000D01*
X120050651Y-125910969D01*
X120071364Y-126146202D01*
X120060107Y-126181976D01*
X120026851Y-126199311D01*
X120022553Y-126199500D01*
X116360435Y-126199500D01*
X116284013Y-126219977D01*
X116284010Y-126219978D01*
X116215488Y-126259540D01*
X116132162Y-126342866D01*
X116097514Y-126357218D01*
X116062866Y-126342866D01*
X115665617Y-125945617D01*
X115651265Y-125910969D01*
X115652727Y-125899090D01*
X116139736Y-123951055D01*
X116162062Y-123920924D01*
X116170207Y-123917008D01*
X117889917Y-123278259D01*
X117902462Y-123275402D01*
X119751134Y-123104517D01*
X119786956Y-123115619D01*
G37*
%TD.AperFunction*%
%TD*%
%TA.AperFunction,Conductor*%
%TO.N,-BATT*%
G36*
X160009803Y-79196185D02*
G01*
X160055558Y-79248989D01*
X160065502Y-79318147D01*
X160058946Y-79343833D01*
X160012403Y-79468620D01*
X160012401Y-79468627D01*
X160006000Y-79528155D01*
X160006000Y-80176000D01*
X160922988Y-80176000D01*
X160890075Y-80233007D01*
X160856000Y-80360174D01*
X160856000Y-80491826D01*
X160890075Y-80618993D01*
X160922988Y-80676000D01*
X160006000Y-80676000D01*
X160006000Y-81323844D01*
X160012401Y-81383372D01*
X160012403Y-81383379D01*
X160062645Y-81518086D01*
X160062649Y-81518093D01*
X160148809Y-81633187D01*
X160148812Y-81633190D01*
X160263906Y-81719350D01*
X160263913Y-81719354D01*
X160398620Y-81769596D01*
X160398627Y-81769598D01*
X160458155Y-81775999D01*
X160458172Y-81776000D01*
X161106000Y-81776000D01*
X161106000Y-80859012D01*
X161163007Y-80891925D01*
X161290174Y-80926000D01*
X161421826Y-80926000D01*
X161548993Y-80891925D01*
X161606000Y-80859012D01*
X161606000Y-81776000D01*
X162253828Y-81776000D01*
X162253844Y-81775999D01*
X162313372Y-81769598D01*
X162313379Y-81769596D01*
X162448086Y-81719354D01*
X162448093Y-81719350D01*
X162563187Y-81633190D01*
X162563190Y-81633187D01*
X162649350Y-81518093D01*
X162649354Y-81518086D01*
X162698422Y-81386529D01*
X162740293Y-81330595D01*
X162805757Y-81306178D01*
X162874030Y-81321030D01*
X162902285Y-81342181D01*
X163016213Y-81456109D01*
X163188179Y-81581048D01*
X163188181Y-81581049D01*
X163188184Y-81581051D01*
X163377588Y-81677557D01*
X163579757Y-81743246D01*
X163789713Y-81776500D01*
X163789714Y-81776500D01*
X164002286Y-81776500D01*
X164002287Y-81776500D01*
X164212243Y-81743246D01*
X164254523Y-81729507D01*
X164324362Y-81727511D01*
X164380522Y-81759757D01*
X171217822Y-88597057D01*
X171251307Y-88658380D01*
X171254141Y-88684738D01*
X171254141Y-88819277D01*
X171254141Y-88819279D01*
X171254140Y-88819279D01*
X171282981Y-88964266D01*
X171282984Y-88964276D01*
X171339553Y-89100847D01*
X171339560Y-89100860D01*
X171421689Y-89223774D01*
X171421692Y-89223778D01*
X171526221Y-89328307D01*
X171526225Y-89328310D01*
X171649139Y-89410439D01*
X171649152Y-89410446D01*
X171782104Y-89465516D01*
X171785728Y-89467017D01*
X171785732Y-89467017D01*
X171785733Y-89467018D01*
X171930720Y-89495859D01*
X171930723Y-89495859D01*
X172078561Y-89495859D01*
X172176103Y-89476455D01*
X172223554Y-89467017D01*
X172360136Y-89410443D01*
X172448726Y-89351248D01*
X172515403Y-89330371D01*
X172565069Y-89339790D01*
X172677754Y-89386465D01*
X172704996Y-89397749D01*
X172705000Y-89397749D01*
X172705001Y-89397750D01*
X172849988Y-89426591D01*
X172849991Y-89426591D01*
X172997829Y-89426591D01*
X173095371Y-89407187D01*
X173142822Y-89397749D01*
X173279404Y-89341175D01*
X173402325Y-89259042D01*
X173506860Y-89154507D01*
X173588993Y-89031586D01*
X173645567Y-88895004D01*
X173660630Y-88819279D01*
X173674409Y-88750011D01*
X173674409Y-88602170D01*
X173645568Y-88457183D01*
X173645567Y-88457182D01*
X173645567Y-88457178D01*
X173626186Y-88410387D01*
X173588996Y-88320602D01*
X173588989Y-88320589D01*
X173506860Y-88197675D01*
X173506857Y-88197671D01*
X173402328Y-88093142D01*
X173402324Y-88093139D01*
X173279410Y-88011010D01*
X173279397Y-88011003D01*
X173142826Y-87954434D01*
X173142816Y-87954431D01*
X172997829Y-87925591D01*
X172997827Y-87925591D01*
X172863288Y-87925591D01*
X172796249Y-87905906D01*
X172775607Y-87889272D01*
X167072818Y-82186483D01*
X167039333Y-82125160D01*
X167036499Y-82098802D01*
X167036499Y-81711718D01*
X167056184Y-81644679D01*
X167104206Y-81601233D01*
X167143814Y-81581052D01*
X167143814Y-81581051D01*
X167143815Y-81581051D01*
X167235192Y-81514661D01*
X167315785Y-81456109D01*
X167315787Y-81456106D01*
X167315791Y-81456104D01*
X167466103Y-81305792D01*
X167466105Y-81305788D01*
X167466108Y-81305786D01*
X167591047Y-81133821D01*
X167591050Y-81133816D01*
X167595512Y-81125056D01*
X167643483Y-81074260D01*
X167711303Y-81057462D01*
X167777439Y-81079996D01*
X167816483Y-81125052D01*
X167820949Y-81133817D01*
X167945890Y-81305786D01*
X168096213Y-81456109D01*
X168268179Y-81581048D01*
X168268181Y-81581049D01*
X168268184Y-81581051D01*
X168457588Y-81677557D01*
X168659757Y-81743246D01*
X168869713Y-81776500D01*
X168869714Y-81776500D01*
X169082286Y-81776500D01*
X169082287Y-81776500D01*
X169292243Y-81743246D01*
X169494412Y-81677557D01*
X169683816Y-81581051D01*
X169740894Y-81539582D01*
X169855786Y-81456109D01*
X169855788Y-81456106D01*
X169855792Y-81456104D01*
X170006104Y-81305792D01*
X170006106Y-81305788D01*
X170006109Y-81305786D01*
X170131048Y-81133820D01*
X170131050Y-81133817D01*
X170131051Y-81133816D01*
X170227557Y-80944412D01*
X170293246Y-80742243D01*
X170326500Y-80532287D01*
X170326500Y-80319713D01*
X170293246Y-80109757D01*
X170227557Y-79907588D01*
X170131051Y-79718184D01*
X170131049Y-79718181D01*
X170131048Y-79718179D01*
X170006109Y-79546213D01*
X169855789Y-79395893D01*
X169854493Y-79394786D01*
X169854137Y-79394241D01*
X169852347Y-79392451D01*
X169852723Y-79392074D01*
X169816302Y-79336277D01*
X169815807Y-79266409D01*
X169853164Y-79207365D01*
X169916512Y-79177890D01*
X169935029Y-79176500D01*
X190771500Y-79176500D01*
X190838539Y-79196185D01*
X190884294Y-79248989D01*
X190895500Y-79300500D01*
X190895500Y-82652000D01*
X190875815Y-82719039D01*
X190823011Y-82764794D01*
X190771500Y-82776000D01*
X185898597Y-82776000D01*
X185831558Y-82756315D01*
X185785803Y-82703511D01*
X185775859Y-82634353D01*
X185804884Y-82570797D01*
X185810916Y-82564319D01*
X186041457Y-82333777D01*
X186102778Y-82300294D01*
X186141735Y-82298102D01*
X186174991Y-82301500D01*
X187025008Y-82301499D01*
X187025016Y-82301498D01*
X187025019Y-82301498D01*
X187086838Y-82295183D01*
X187127797Y-82290999D01*
X187294334Y-82235814D01*
X187443656Y-82143712D01*
X187567712Y-82019656D01*
X187659814Y-81870334D01*
X187714999Y-81703797D01*
X187725500Y-81601009D01*
X187725499Y-80250992D01*
X187717838Y-80176000D01*
X187714999Y-80148203D01*
X187714998Y-80148200D01*
X187674472Y-80025901D01*
X187659814Y-79981666D01*
X187567712Y-79832344D01*
X187443656Y-79708288D01*
X187294334Y-79616186D01*
X187127797Y-79561001D01*
X187127795Y-79561000D01*
X187025010Y-79550500D01*
X186174998Y-79550500D01*
X186174980Y-79550501D01*
X186072203Y-79561000D01*
X186072200Y-79561001D01*
X185905668Y-79616185D01*
X185905663Y-79616187D01*
X185756342Y-79708289D01*
X185632289Y-79832342D01*
X185540187Y-79981663D01*
X185540186Y-79981666D01*
X185485001Y-80148203D01*
X185485001Y-80148204D01*
X185485000Y-80148204D01*
X185474500Y-80250983D01*
X185474500Y-81150901D01*
X185454815Y-81217940D01*
X185438181Y-81238582D01*
X185137180Y-81539582D01*
X185075857Y-81573067D01*
X185006165Y-81568083D01*
X184950232Y-81526211D01*
X184925815Y-81460747D01*
X184925499Y-81451925D01*
X184925499Y-80250992D01*
X184917838Y-80176000D01*
X184914999Y-80148203D01*
X184914998Y-80148200D01*
X184874472Y-80025901D01*
X184859814Y-79981666D01*
X184767712Y-79832344D01*
X184643656Y-79708288D01*
X184494334Y-79616186D01*
X184327797Y-79561001D01*
X184327795Y-79561000D01*
X184225010Y-79550500D01*
X183374998Y-79550500D01*
X183374980Y-79550501D01*
X183272203Y-79561000D01*
X183272200Y-79561001D01*
X183105668Y-79616185D01*
X183105663Y-79616187D01*
X182956344Y-79708288D01*
X182900679Y-79763952D01*
X182839355Y-79797436D01*
X182769664Y-79792450D01*
X182725318Y-79763950D01*
X182643657Y-79682289D01*
X182643656Y-79682288D01*
X182494334Y-79590186D01*
X182327797Y-79535001D01*
X182327795Y-79535000D01*
X182225010Y-79524500D01*
X181374998Y-79524500D01*
X181374980Y-79524501D01*
X181272203Y-79535000D01*
X181272200Y-79535001D01*
X181105668Y-79590185D01*
X181105663Y-79590187D01*
X180956342Y-79682289D01*
X180832289Y-79806342D01*
X180740187Y-79955663D01*
X180740186Y-79955666D01*
X180685001Y-80122203D01*
X180685001Y-80122204D01*
X180685000Y-80122204D01*
X180674500Y-80224983D01*
X180674500Y-81575001D01*
X180674501Y-81575018D01*
X180685000Y-81677796D01*
X180685001Y-81677799D01*
X180712160Y-81759757D01*
X180740186Y-81844334D01*
X180832288Y-81993656D01*
X180956344Y-82117712D01*
X181105666Y-82209814D01*
X181114498Y-82212740D01*
X181171944Y-82252508D01*
X181198771Y-82317022D01*
X181199500Y-82330448D01*
X181199500Y-82599903D01*
X181190854Y-82629345D01*
X181184331Y-82659332D01*
X181180577Y-82664346D01*
X181179815Y-82666942D01*
X181163184Y-82687580D01*
X181147254Y-82703511D01*
X181135338Y-82715427D01*
X181074014Y-82748911D01*
X181071850Y-82749361D01*
X180916508Y-82780261D01*
X180916498Y-82780264D01*
X180770827Y-82840602D01*
X180770814Y-82840609D01*
X180639711Y-82928210D01*
X180639707Y-82928213D01*
X180528213Y-83039707D01*
X180528210Y-83039711D01*
X180440609Y-83170814D01*
X180440606Y-83170820D01*
X180423611Y-83211850D01*
X180379769Y-83266253D01*
X180313475Y-83288317D01*
X180245776Y-83271037D01*
X180221369Y-83252077D01*
X179636819Y-82667527D01*
X179622115Y-82640599D01*
X179605523Y-82614781D01*
X179604631Y-82608580D01*
X179603334Y-82606204D01*
X179600500Y-82579846D01*
X179600500Y-82330448D01*
X179620185Y-82263409D01*
X179672989Y-82217654D01*
X179685488Y-82212744D01*
X179694334Y-82209814D01*
X179843656Y-82117712D01*
X179967712Y-81993656D01*
X180059814Y-81844334D01*
X180114999Y-81677797D01*
X180125500Y-81575009D01*
X180125499Y-80224992D01*
X180114999Y-80122203D01*
X180059814Y-79955666D01*
X179967712Y-79806344D01*
X179843656Y-79682288D01*
X179694334Y-79590186D01*
X179527797Y-79535001D01*
X179527795Y-79535000D01*
X179425010Y-79524500D01*
X178574998Y-79524500D01*
X178574980Y-79524501D01*
X178472203Y-79535000D01*
X178472200Y-79535001D01*
X178305668Y-79590185D01*
X178305663Y-79590187D01*
X178156342Y-79682289D01*
X178112680Y-79725951D01*
X178051357Y-79759435D01*
X177981665Y-79754450D01*
X177937320Y-79725951D01*
X177893657Y-79682289D01*
X177893656Y-79682288D01*
X177744334Y-79590186D01*
X177577797Y-79535001D01*
X177577795Y-79535000D01*
X177475010Y-79524500D01*
X176624998Y-79524500D01*
X176624980Y-79524501D01*
X176522203Y-79535000D01*
X176522200Y-79535001D01*
X176355668Y-79590185D01*
X176355663Y-79590187D01*
X176206342Y-79682289D01*
X176082289Y-79806342D01*
X175990187Y-79955663D01*
X175990186Y-79955666D01*
X175935001Y-80122203D01*
X175935001Y-80122204D01*
X175935000Y-80122204D01*
X175924500Y-80224983D01*
X175924500Y-81575001D01*
X175924501Y-81575018D01*
X175935000Y-81677796D01*
X175935001Y-81677799D01*
X175962160Y-81759757D01*
X175990186Y-81844334D01*
X176082288Y-81993656D01*
X176206344Y-82117712D01*
X176355666Y-82209814D01*
X176364498Y-82212740D01*
X176421944Y-82252508D01*
X176448771Y-82317022D01*
X176449500Y-82330448D01*
X176449500Y-83292098D01*
X176429815Y-83359137D01*
X176377011Y-83404892D01*
X176349692Y-83413715D01*
X176266508Y-83430261D01*
X176266498Y-83430264D01*
X176120827Y-83490602D01*
X176120814Y-83490609D01*
X175989711Y-83578210D01*
X175989707Y-83578213D01*
X175878213Y-83689707D01*
X175878210Y-83689711D01*
X175790609Y-83820814D01*
X175790602Y-83820827D01*
X175730264Y-83966498D01*
X175730261Y-83966510D01*
X175699500Y-84121153D01*
X175699500Y-84278846D01*
X175730261Y-84433489D01*
X175730264Y-84433501D01*
X175790602Y-84579172D01*
X175790609Y-84579185D01*
X175878210Y-84710288D01*
X175878213Y-84710292D01*
X175989707Y-84821786D01*
X175989711Y-84821789D01*
X176120814Y-84909390D01*
X176120827Y-84909397D01*
X176266498Y-84969735D01*
X176266503Y-84969737D01*
X176421153Y-85000499D01*
X176421156Y-85000500D01*
X176421158Y-85000500D01*
X176578844Y-85000500D01*
X176578845Y-85000499D01*
X176733497Y-84969737D01*
X176879179Y-84909394D01*
X177010289Y-84821789D01*
X177121789Y-84710289D01*
X177209394Y-84579179D01*
X177269737Y-84433497D01*
X177300500Y-84278842D01*
X177300500Y-84278839D01*
X177300637Y-84278151D01*
X177309402Y-84261394D01*
X177313422Y-84242915D01*
X177332162Y-84217880D01*
X177333021Y-84216240D01*
X177334532Y-84214702D01*
X177408504Y-84140729D01*
X177408506Y-84140729D01*
X177418714Y-84130520D01*
X177418716Y-84130520D01*
X177530520Y-84018716D01*
X177609577Y-83881784D01*
X177640235Y-83767366D01*
X177650500Y-83729058D01*
X177650500Y-83570943D01*
X177650500Y-82330448D01*
X177670185Y-82263409D01*
X177722989Y-82217654D01*
X177735488Y-82212744D01*
X177744334Y-82209814D01*
X177893656Y-82117712D01*
X177937319Y-82074049D01*
X177998642Y-82040564D01*
X178068334Y-82045548D01*
X178112681Y-82074049D01*
X178156344Y-82117712D01*
X178305666Y-82209814D01*
X178314498Y-82212740D01*
X178371944Y-82252508D01*
X178398771Y-82317022D01*
X178399500Y-82330448D01*
X178399500Y-82793273D01*
X178399499Y-82793291D01*
X178399499Y-82958997D01*
X178399498Y-82958997D01*
X178440423Y-83111728D01*
X178469358Y-83161843D01*
X178469359Y-83161847D01*
X178469360Y-83161847D01*
X178519479Y-83248657D01*
X178519481Y-83248660D01*
X178638349Y-83367528D01*
X178638355Y-83367533D01*
X179810181Y-84539359D01*
X179843666Y-84600682D01*
X179846500Y-84627040D01*
X179846500Y-96404135D01*
X179826815Y-96471174D01*
X179810181Y-96491816D01*
X177938816Y-98363181D01*
X177877493Y-98396666D01*
X177851135Y-98399500D01*
X174035766Y-98399500D01*
X173968727Y-98379815D01*
X173966875Y-98378602D01*
X173835185Y-98290609D01*
X173835172Y-98290602D01*
X173689501Y-98230264D01*
X173689489Y-98230261D01*
X173534845Y-98199500D01*
X173534842Y-98199500D01*
X173377158Y-98199500D01*
X173377155Y-98199500D01*
X173222510Y-98230261D01*
X173222498Y-98230264D01*
X173076827Y-98290602D01*
X173076814Y-98290609D01*
X172945711Y-98378210D01*
X172945707Y-98378213D01*
X172834213Y-98489707D01*
X172834210Y-98489711D01*
X172746609Y-98620814D01*
X172746602Y-98620827D01*
X172686264Y-98766498D01*
X172686261Y-98766510D01*
X172655500Y-98921153D01*
X172655500Y-99078846D01*
X172686261Y-99233489D01*
X172686264Y-99233501D01*
X172746602Y-99379172D01*
X172746609Y-99379185D01*
X172834210Y-99510288D01*
X172834213Y-99510292D01*
X172945707Y-99621786D01*
X172945711Y-99621789D01*
X173076814Y-99709390D01*
X173076827Y-99709397D01*
X173184826Y-99754131D01*
X173222503Y-99769737D01*
X173377153Y-99800499D01*
X173377156Y-99800500D01*
X173377158Y-99800500D01*
X173534844Y-99800500D01*
X173534845Y-99800499D01*
X173689497Y-99769737D01*
X173784646Y-99730324D01*
X173854116Y-99722856D01*
X173916595Y-99754131D01*
X173952247Y-99814220D01*
X173953716Y-99820695D01*
X173956261Y-99833489D01*
X173956264Y-99833501D01*
X174016602Y-99979172D01*
X174016609Y-99979185D01*
X174104210Y-100110288D01*
X174104213Y-100110292D01*
X174215707Y-100221786D01*
X174215711Y-100221789D01*
X174346814Y-100309390D01*
X174346827Y-100309397D01*
X174492498Y-100369735D01*
X174492503Y-100369737D01*
X174647153Y-100400499D01*
X174647156Y-100400500D01*
X174647158Y-100400500D01*
X174804844Y-100400500D01*
X174804845Y-100400499D01*
X174959497Y-100369737D01*
X175105179Y-100309394D01*
X175105185Y-100309390D01*
X175236875Y-100221398D01*
X175303553Y-100200520D01*
X175305766Y-100200500D01*
X178031663Y-100200500D01*
X178031679Y-100200501D01*
X178039275Y-100200501D01*
X178197386Y-100200501D01*
X178197389Y-100200501D01*
X178350117Y-100159577D01*
X178400236Y-100130639D01*
X178487048Y-100080520D01*
X178598852Y-99968716D01*
X178598852Y-99968714D01*
X178609060Y-99958507D01*
X178609061Y-99958504D01*
X184894321Y-93673245D01*
X184955642Y-93639762D01*
X185025334Y-93644746D01*
X185081267Y-93686618D01*
X185105684Y-93752082D01*
X185106000Y-93760928D01*
X185106000Y-130776000D01*
X190771500Y-130776000D01*
X190838539Y-130795685D01*
X190884294Y-130848489D01*
X190895500Y-130900000D01*
X190895500Y-134051500D01*
X190875815Y-134118539D01*
X190823011Y-134164294D01*
X190771500Y-134175500D01*
X94020500Y-134175500D01*
X93953461Y-134155815D01*
X93907706Y-134103011D01*
X93896500Y-134051500D01*
X93896500Y-131350000D01*
X101132769Y-131350000D01*
X102026988Y-131350000D01*
X101994075Y-131407007D01*
X101960000Y-131534174D01*
X101960000Y-131665826D01*
X101994075Y-131792993D01*
X102026988Y-131850000D01*
X101132769Y-131850000D01*
X101143242Y-131916126D01*
X101143242Y-131916129D01*
X101208904Y-132118217D01*
X101305379Y-132307557D01*
X101430272Y-132479459D01*
X101430276Y-132479464D01*
X101580535Y-132629723D01*
X101580540Y-132629727D01*
X101752442Y-132754620D01*
X101941782Y-132851095D01*
X102143871Y-132916757D01*
X102210000Y-132927231D01*
X102210000Y-132033012D01*
X102267007Y-132065925D01*
X102394174Y-132100000D01*
X102525826Y-132100000D01*
X102652993Y-132065925D01*
X102710000Y-132033012D01*
X102710000Y-132927230D01*
X102776126Y-132916757D01*
X102776129Y-132916757D01*
X102978217Y-132851095D01*
X103167557Y-132754620D01*
X103339458Y-132629728D01*
X103453133Y-132516053D01*
X103514456Y-132482568D01*
X103584148Y-132487552D01*
X103640082Y-132529423D01*
X103656997Y-132560401D01*
X103706202Y-132692328D01*
X103706206Y-132692335D01*
X103792452Y-132807544D01*
X103792455Y-132807547D01*
X103907664Y-132893793D01*
X103907671Y-132893797D01*
X104042517Y-132944091D01*
X104042516Y-132944091D01*
X104049444Y-132944835D01*
X104102127Y-132950500D01*
X105897872Y-132950499D01*
X105957483Y-132944091D01*
X106092331Y-132893796D01*
X106207546Y-132807546D01*
X106293796Y-132692331D01*
X106344091Y-132557483D01*
X106350500Y-132497873D01*
X106350499Y-131876504D01*
X107076000Y-131876504D01*
X107076000Y-132125000D01*
X107776000Y-132125000D01*
X107776000Y-132625000D01*
X107076000Y-132625000D01*
X107076000Y-132873495D01*
X107114427Y-133066681D01*
X107114430Y-133066693D01*
X107189807Y-133248671D01*
X107189814Y-133248684D01*
X107299248Y-133412462D01*
X107299251Y-133412466D01*
X107438533Y-133551748D01*
X107438537Y-133551751D01*
X107602315Y-133661185D01*
X107602328Y-133661192D01*
X107784308Y-133736569D01*
X107826000Y-133744862D01*
X107826000Y-132941988D01*
X107835940Y-132959205D01*
X107891795Y-133015060D01*
X107960204Y-133054556D01*
X108036504Y-133075000D01*
X108115496Y-133075000D01*
X108191796Y-133054556D01*
X108260205Y-133015060D01*
X108316060Y-132959205D01*
X108326000Y-132941988D01*
X108326000Y-133744862D01*
X108367690Y-133736569D01*
X108367692Y-133736569D01*
X108549671Y-133661192D01*
X108549684Y-133661185D01*
X108713462Y-133551751D01*
X108713466Y-133551748D01*
X108852748Y-133412466D01*
X108852751Y-133412462D01*
X108962185Y-133248684D01*
X108962192Y-133248671D01*
X109037569Y-133066693D01*
X109037572Y-133066681D01*
X109075999Y-132873495D01*
X109076000Y-132873492D01*
X109076000Y-132625000D01*
X108376000Y-132625000D01*
X108376000Y-132125000D01*
X109076000Y-132125000D01*
X109076000Y-131876508D01*
X109075999Y-131876504D01*
X115716000Y-131876504D01*
X115716000Y-132125000D01*
X116416000Y-132125000D01*
X116416000Y-132625000D01*
X115716000Y-132625000D01*
X115716000Y-132873495D01*
X115754427Y-133066681D01*
X115754430Y-133066693D01*
X115829807Y-133248671D01*
X115829814Y-133248684D01*
X115939248Y-133412462D01*
X115939251Y-133412466D01*
X116078533Y-133551748D01*
X116078537Y-133551751D01*
X116242315Y-133661185D01*
X116242328Y-133661192D01*
X116424308Y-133736569D01*
X116466000Y-133744862D01*
X116466000Y-132941988D01*
X116475940Y-132959205D01*
X116531795Y-133015060D01*
X116600204Y-133054556D01*
X116676504Y-133075000D01*
X116755496Y-133075000D01*
X116831796Y-133054556D01*
X116900205Y-133015060D01*
X116956060Y-132959205D01*
X116966000Y-132941988D01*
X116966000Y-133744862D01*
X117007690Y-133736569D01*
X117007692Y-133736569D01*
X117189671Y-133661192D01*
X117189684Y-133661185D01*
X117353462Y-133551751D01*
X117353466Y-133551748D01*
X117492748Y-133412466D01*
X117492751Y-133412462D01*
X117602185Y-133248684D01*
X117602192Y-133248671D01*
X117677569Y-133066693D01*
X117677572Y-133066681D01*
X117715999Y-132873495D01*
X117716000Y-132873492D01*
X117716000Y-132625000D01*
X117016000Y-132625000D01*
X117016000Y-132125000D01*
X117716000Y-132125000D01*
X117716000Y-131876508D01*
X117715999Y-131876504D01*
X117677572Y-131683318D01*
X117677569Y-131683306D01*
X117602192Y-131501328D01*
X117602185Y-131501315D01*
X117492751Y-131337537D01*
X117492748Y-131337533D01*
X117353466Y-131198251D01*
X117353462Y-131198248D01*
X117189684Y-131088814D01*
X117189671Y-131088807D01*
X117007691Y-131013429D01*
X117007683Y-131013427D01*
X116966000Y-131005135D01*
X116966000Y-131808011D01*
X116956060Y-131790795D01*
X116900205Y-131734940D01*
X116831796Y-131695444D01*
X116755496Y-131675000D01*
X116676504Y-131675000D01*
X116600204Y-131695444D01*
X116531795Y-131734940D01*
X116475940Y-131790795D01*
X116466000Y-131808011D01*
X116466000Y-131005136D01*
X116465999Y-131005135D01*
X116424316Y-131013427D01*
X116424308Y-131013429D01*
X116242328Y-131088807D01*
X116242315Y-131088814D01*
X116078537Y-131198248D01*
X116078533Y-131198251D01*
X115939251Y-131337533D01*
X115939248Y-131337537D01*
X115829814Y-131501315D01*
X115829807Y-131501328D01*
X115754430Y-131683306D01*
X115754427Y-131683318D01*
X115716000Y-131876504D01*
X109075999Y-131876504D01*
X109037572Y-131683318D01*
X109037569Y-131683306D01*
X108962192Y-131501328D01*
X108962185Y-131501315D01*
X108852751Y-131337537D01*
X108852748Y-131337533D01*
X108713466Y-131198251D01*
X108713462Y-131198248D01*
X108549684Y-131088814D01*
X108549671Y-131088807D01*
X108367691Y-131013429D01*
X108367683Y-131013427D01*
X108326000Y-131005135D01*
X108326000Y-131808011D01*
X108316060Y-131790795D01*
X108260205Y-131734940D01*
X108191796Y-131695444D01*
X108115496Y-131675000D01*
X108036504Y-131675000D01*
X107960204Y-131695444D01*
X107891795Y-131734940D01*
X107835940Y-131790795D01*
X107826000Y-131808011D01*
X107826000Y-131005136D01*
X107825999Y-131005135D01*
X107784316Y-131013427D01*
X107784308Y-131013429D01*
X107602328Y-131088807D01*
X107602315Y-131088814D01*
X107438537Y-131198248D01*
X107438533Y-131198251D01*
X107299251Y-131337533D01*
X107299248Y-131337537D01*
X107189814Y-131501315D01*
X107189807Y-131501328D01*
X107114430Y-131683306D01*
X107114427Y-131683318D01*
X107076000Y-131876504D01*
X106350499Y-131876504D01*
X106350499Y-131579646D01*
X106350499Y-130702129D01*
X106350498Y-130702123D01*
X106349584Y-130693623D01*
X106344091Y-130642517D01*
X106343002Y-130639598D01*
X106293797Y-130507671D01*
X106293793Y-130507664D01*
X106207547Y-130392455D01*
X106207544Y-130392452D01*
X106092335Y-130306206D01*
X106092328Y-130306202D01*
X105957482Y-130255908D01*
X105957483Y-130255908D01*
X105897883Y-130249501D01*
X105897881Y-130249500D01*
X105897873Y-130249500D01*
X105897864Y-130249500D01*
X104102129Y-130249500D01*
X104102123Y-130249501D01*
X104042516Y-130255908D01*
X103907671Y-130306202D01*
X103907664Y-130306206D01*
X103792455Y-130392452D01*
X103792452Y-130392455D01*
X103706206Y-130507664D01*
X103706202Y-130507671D01*
X103656997Y-130639598D01*
X103615126Y-130695532D01*
X103549661Y-130719949D01*
X103481388Y-130705097D01*
X103453134Y-130683946D01*
X103339464Y-130570276D01*
X103339459Y-130570272D01*
X103167557Y-130445379D01*
X102978215Y-130348903D01*
X102776124Y-130283241D01*
X102710000Y-130272768D01*
X102710000Y-131166988D01*
X102652993Y-131134075D01*
X102525826Y-131100000D01*
X102394174Y-131100000D01*
X102267007Y-131134075D01*
X102210000Y-131166988D01*
X102210000Y-130272768D01*
X102209999Y-130272768D01*
X102143875Y-130283241D01*
X101941784Y-130348903D01*
X101752442Y-130445379D01*
X101580540Y-130570272D01*
X101580535Y-130570276D01*
X101430276Y-130720535D01*
X101430272Y-130720540D01*
X101305379Y-130892442D01*
X101208904Y-131081782D01*
X101143242Y-131283870D01*
X101143242Y-131283873D01*
X101132769Y-131350000D01*
X93896500Y-131350000D01*
X93896500Y-124092494D01*
X93916185Y-124025455D01*
X93968989Y-123979700D01*
X94038147Y-123969756D01*
X94093385Y-123992176D01*
X94188184Y-124061051D01*
X94377588Y-124157557D01*
X94579757Y-124223246D01*
X94789713Y-124256500D01*
X94789714Y-124256500D01*
X95002286Y-124256500D01*
X95002287Y-124256500D01*
X95212243Y-124223246D01*
X95414412Y-124157557D01*
X95603816Y-124061051D01*
X95729474Y-123969756D01*
X95775786Y-123936109D01*
X95775788Y-123936106D01*
X95775792Y-123936104D01*
X95926104Y-123785792D01*
X95926106Y-123785788D01*
X95926109Y-123785786D01*
X96051048Y-123613820D01*
X96051047Y-123613820D01*
X96051051Y-123613816D01*
X96147557Y-123424412D01*
X96213246Y-123222243D01*
X96246500Y-123012287D01*
X96246500Y-122799713D01*
X96213246Y-122589757D01*
X96147557Y-122387588D01*
X96065614Y-122226767D01*
X96052719Y-122158099D01*
X96078995Y-122093358D01*
X96088408Y-122082803D01*
X99647896Y-118523219D01*
X99709217Y-118489734D01*
X99778909Y-118494718D01*
X99834843Y-118536588D01*
X99857194Y-118586708D01*
X99874340Y-118672907D01*
X99874343Y-118672917D01*
X99930912Y-118809488D01*
X99930919Y-118809501D01*
X100013048Y-118932415D01*
X100013051Y-118932419D01*
X100117580Y-119036948D01*
X100117584Y-119036951D01*
X100240498Y-119119080D01*
X100240511Y-119119087D01*
X100377082Y-119175656D01*
X100377087Y-119175658D01*
X100377091Y-119175658D01*
X100377092Y-119175659D01*
X100522079Y-119204500D01*
X100522082Y-119204500D01*
X100669920Y-119204500D01*
X100789495Y-119180714D01*
X100814913Y-119175658D01*
X100951495Y-119119084D01*
X101016876Y-119075398D01*
X101083553Y-119054520D01*
X101085767Y-119054500D01*
X115183227Y-119054500D01*
X115250266Y-119074185D01*
X115296021Y-119126989D01*
X115305965Y-119196147D01*
X115286329Y-119247391D01*
X115240608Y-119315816D01*
X115240603Y-119315824D01*
X115180808Y-119460185D01*
X115153928Y-119500413D01*
X113700888Y-120953453D01*
X113700884Y-120953458D01*
X113673967Y-120993743D01*
X113667260Y-121003782D01*
X113645668Y-121036096D01*
X113624223Y-121068191D01*
X113571421Y-121195667D01*
X113571418Y-121195677D01*
X113544500Y-121331004D01*
X113544500Y-122475500D01*
X113524815Y-122542539D01*
X113472011Y-122588294D01*
X113420500Y-122599500D01*
X108021155Y-122599500D01*
X107866510Y-122630261D01*
X107866498Y-122630264D01*
X107720827Y-122690602D01*
X107720814Y-122690609D01*
X107589711Y-122778210D01*
X107589707Y-122778213D01*
X107478213Y-122889707D01*
X107478210Y-122889711D01*
X107390609Y-123020814D01*
X107390602Y-123020827D01*
X107330264Y-123166498D01*
X107330261Y-123166510D01*
X107299500Y-123321153D01*
X107299500Y-123475500D01*
X107279815Y-123542539D01*
X107227011Y-123588294D01*
X107175500Y-123599500D01*
X103221154Y-123599500D01*
X103149186Y-123613816D01*
X103149185Y-123613816D01*
X103066509Y-123630261D01*
X103066497Y-123630264D01*
X102920826Y-123690602D01*
X102920813Y-123690609D01*
X102808419Y-123765710D01*
X102789710Y-123778210D01*
X102789704Y-123778215D01*
X98431102Y-128136819D01*
X96989711Y-129578210D01*
X96957633Y-129610288D01*
X96878209Y-129689711D01*
X96790609Y-129820813D01*
X96790602Y-129820826D01*
X96730264Y-129966497D01*
X96730261Y-129966509D01*
X96699500Y-130121152D01*
X96699500Y-130278845D01*
X96730261Y-130433488D01*
X96730264Y-130433500D01*
X96790602Y-130579171D01*
X96790609Y-130579184D01*
X96878210Y-130710287D01*
X96878213Y-130710291D01*
X96989707Y-130821785D01*
X96989711Y-130821788D01*
X97120814Y-130909389D01*
X97120827Y-130909396D01*
X97266498Y-130969734D01*
X97266503Y-130969736D01*
X97421153Y-131000498D01*
X97421156Y-131000499D01*
X97421158Y-131000499D01*
X97578844Y-131000499D01*
X97578845Y-131000498D01*
X97733497Y-130969736D01*
X97879179Y-130909393D01*
X98010289Y-130821788D01*
X98121789Y-130710288D01*
X103595258Y-125236819D01*
X103656581Y-125203334D01*
X103682939Y-125200500D01*
X111104613Y-125200500D01*
X111171652Y-125220185D01*
X111217407Y-125272989D01*
X111227351Y-125342147D01*
X111207715Y-125393391D01*
X111138609Y-125496814D01*
X111138602Y-125496827D01*
X111078264Y-125642498D01*
X111078261Y-125642510D01*
X111047500Y-125797153D01*
X111047500Y-125954843D01*
X111048097Y-125960905D01*
X111045916Y-125961119D01*
X111040574Y-126020889D01*
X110997717Y-126076070D01*
X110931829Y-126099322D01*
X110925180Y-126099500D01*
X110378940Y-126099500D01*
X110311901Y-126079815D01*
X110291263Y-126063185D01*
X110206289Y-125978211D01*
X110206288Y-125978210D01*
X110206287Y-125978209D01*
X110075185Y-125890609D01*
X110075172Y-125890602D01*
X109929501Y-125830264D01*
X109929489Y-125830261D01*
X109774845Y-125799500D01*
X109774842Y-125799500D01*
X107378843Y-125799500D01*
X107221158Y-125799500D01*
X107221153Y-125799500D01*
X107066510Y-125830260D01*
X107066502Y-125830262D01*
X106920824Y-125890604D01*
X106920814Y-125890609D01*
X106789711Y-125978210D01*
X106789707Y-125978213D01*
X104925775Y-127842147D01*
X104389711Y-128378211D01*
X104358626Y-128409296D01*
X104278209Y-128489712D01*
X104190609Y-128620814D01*
X104190602Y-128620827D01*
X104130264Y-128766498D01*
X104130261Y-128766510D01*
X104099500Y-128921153D01*
X104099500Y-129178846D01*
X104130261Y-129333489D01*
X104130264Y-129333501D01*
X104190602Y-129479172D01*
X104190609Y-129479185D01*
X104278210Y-129610288D01*
X104278213Y-129610292D01*
X104389707Y-129721786D01*
X104389711Y-129721789D01*
X104520814Y-129809390D01*
X104520827Y-129809397D01*
X104629198Y-129854285D01*
X104666503Y-129869737D01*
X104821153Y-129900499D01*
X104821156Y-129900500D01*
X104821158Y-129900500D01*
X104978844Y-129900500D01*
X104978845Y-129900499D01*
X105133497Y-129869737D01*
X105279179Y-129809394D01*
X105410289Y-129721789D01*
X105521789Y-129610289D01*
X105609394Y-129479179D01*
X105639903Y-129405519D01*
X105666779Y-129365297D01*
X106442370Y-128589707D01*
X106726121Y-128305957D01*
X107050759Y-127981319D01*
X107112082Y-127947834D01*
X107138440Y-127945000D01*
X107776000Y-127945000D01*
X107776000Y-128445000D01*
X107076000Y-128445000D01*
X107076000Y-128843495D01*
X107114427Y-129036681D01*
X107114430Y-129036693D01*
X107189807Y-129218671D01*
X107189814Y-129218684D01*
X107299248Y-129382462D01*
X107299251Y-129382466D01*
X107438533Y-129521748D01*
X107438537Y-129521751D01*
X107602315Y-129631185D01*
X107602328Y-129631192D01*
X107784308Y-129706569D01*
X107826000Y-129714862D01*
X107826000Y-128911988D01*
X107835940Y-128929205D01*
X107891795Y-128985060D01*
X107960204Y-129024556D01*
X108036504Y-129045000D01*
X108115496Y-129045000D01*
X108191796Y-129024556D01*
X108260205Y-128985060D01*
X108316060Y-128929205D01*
X108326000Y-128911988D01*
X108326000Y-129714862D01*
X108367690Y-129706569D01*
X108367692Y-129706569D01*
X108549671Y-129631192D01*
X108549684Y-129631185D01*
X108713462Y-129521751D01*
X108713466Y-129521748D01*
X108852748Y-129382466D01*
X108852751Y-129382462D01*
X108962185Y-129218684D01*
X108962186Y-129218682D01*
X108966129Y-129209163D01*
X109009968Y-129154757D01*
X109076261Y-129132689D01*
X109143961Y-129149965D01*
X109149400Y-129153647D01*
X109152634Y-129155514D01*
X109152635Y-129155515D01*
X109283865Y-129231281D01*
X109430234Y-129270500D01*
X109430236Y-129270500D01*
X109581764Y-129270500D01*
X109581766Y-129270500D01*
X109728135Y-129231281D01*
X109859365Y-129155515D01*
X109966515Y-129048365D01*
X110042281Y-128917135D01*
X110081500Y-128770766D01*
X110081500Y-128619234D01*
X110042281Y-128472865D01*
X109966515Y-128341635D01*
X109859365Y-128234485D01*
X109793750Y-128196602D01*
X109728136Y-128158719D01*
X109584322Y-128120185D01*
X109581766Y-128119500D01*
X109430234Y-128119500D01*
X109283863Y-128158719D01*
X109152635Y-128234485D01*
X109152632Y-128234487D01*
X109045487Y-128341632D01*
X109045483Y-128341638D01*
X109021603Y-128383000D01*
X108971036Y-128431216D01*
X108914216Y-128445000D01*
X108376000Y-128445000D01*
X108376000Y-127945000D01*
X109076000Y-127945000D01*
X109076000Y-127546506D01*
X109075403Y-127540444D01*
X109077186Y-127540268D01*
X109078311Y-127527702D01*
X109075314Y-127506853D01*
X109081365Y-127493601D01*
X109082665Y-127479092D01*
X109095588Y-127462457D01*
X109104339Y-127443297D01*
X109116594Y-127435421D01*
X109125532Y-127423917D01*
X109145397Y-127416910D01*
X109163117Y-127405523D01*
X109187709Y-127401987D01*
X109191424Y-127400677D01*
X109198052Y-127400500D01*
X109313060Y-127400500D01*
X109380099Y-127420185D01*
X109400736Y-127436814D01*
X109457523Y-127493601D01*
X109485712Y-127521790D01*
X109616814Y-127609390D01*
X109616827Y-127609397D01*
X109762498Y-127669735D01*
X109762503Y-127669737D01*
X109917153Y-127700499D01*
X109917156Y-127700500D01*
X109917158Y-127700500D01*
X110074842Y-127700500D01*
X114050903Y-127700500D01*
X114117942Y-127720185D01*
X114163697Y-127772989D01*
X114173641Y-127842147D01*
X114144616Y-127905703D01*
X114138584Y-127912181D01*
X113696428Y-128354336D01*
X113635105Y-128387821D01*
X113565413Y-128382837D01*
X113539856Y-128369757D01*
X113425185Y-128293136D01*
X113425172Y-128293129D01*
X113279501Y-128232791D01*
X113279489Y-128232788D01*
X113124845Y-128202027D01*
X113124842Y-128202027D01*
X112967158Y-128202027D01*
X112967155Y-128202027D01*
X112812510Y-128232788D01*
X112812498Y-128232791D01*
X112666827Y-128293129D01*
X112666814Y-128293136D01*
X112560069Y-128364462D01*
X112493391Y-128385340D01*
X112443726Y-128375921D01*
X112333497Y-128330263D01*
X112333489Y-128330261D01*
X112178845Y-128299500D01*
X112178842Y-128299500D01*
X112021158Y-128299500D01*
X112021155Y-128299500D01*
X111866510Y-128330261D01*
X111866498Y-128330264D01*
X111720827Y-128390602D01*
X111720814Y-128390609D01*
X111589711Y-128478210D01*
X111589707Y-128478213D01*
X111478213Y-128589707D01*
X111478210Y-128589711D01*
X111390609Y-128720814D01*
X111390602Y-128720827D01*
X111330264Y-128866498D01*
X111330261Y-128866510D01*
X111299500Y-129021153D01*
X111299500Y-129178846D01*
X111330261Y-129333489D01*
X111330264Y-129333501D01*
X111390602Y-129479172D01*
X111390609Y-129479185D01*
X111478210Y-129610288D01*
X111478213Y-129610292D01*
X111589707Y-129721786D01*
X111589711Y-129721789D01*
X111720814Y-129809390D01*
X111720827Y-129809397D01*
X111829198Y-129854285D01*
X111866503Y-129869737D01*
X112021153Y-129900499D01*
X112021156Y-129900500D01*
X112021158Y-129900500D01*
X112099903Y-129900500D01*
X112166942Y-129920185D01*
X112187584Y-129936819D01*
X112515139Y-130264374D01*
X112515149Y-130264385D01*
X112519479Y-130268715D01*
X112519480Y-130268716D01*
X112631284Y-130380520D01*
X112664260Y-130399558D01*
X112718095Y-130430639D01*
X112718097Y-130430641D01*
X112743366Y-130445230D01*
X112768215Y-130459577D01*
X112920943Y-130500501D01*
X112920946Y-130500501D01*
X113086653Y-130500501D01*
X113086669Y-130500500D01*
X131513331Y-130500500D01*
X131513347Y-130500501D01*
X131520943Y-130500501D01*
X131679054Y-130500501D01*
X131679057Y-130500501D01*
X131831785Y-130459577D01*
X131881904Y-130430639D01*
X131968716Y-130380520D01*
X132035588Y-130313648D01*
X135743800Y-130313648D01*
X135743800Y-130574351D01*
X135782990Y-130821785D01*
X135784581Y-130831828D01*
X135865140Y-131079760D01*
X135983491Y-131312038D01*
X136136722Y-131522942D01*
X136321058Y-131707278D01*
X136531962Y-131860509D01*
X136764240Y-131978860D01*
X137012172Y-132059419D01*
X137140913Y-132079809D01*
X137269649Y-132100200D01*
X137269654Y-132100200D01*
X137530351Y-132100200D01*
X137647383Y-132081663D01*
X137787828Y-132059419D01*
X138035760Y-131978860D01*
X138268038Y-131860509D01*
X138478942Y-131707278D01*
X138663278Y-131522942D01*
X138816509Y-131312038D01*
X138934860Y-131079760D01*
X139015419Y-130831828D01*
X139046749Y-130634017D01*
X139056200Y-130574351D01*
X139056200Y-130313648D01*
X139028786Y-130140567D01*
X139015419Y-130056172D01*
X138934860Y-129808240D01*
X138816509Y-129575962D01*
X138663278Y-129365058D01*
X138478942Y-129180722D01*
X138268038Y-129027491D01*
X138035760Y-128909140D01*
X137787828Y-128828581D01*
X137787822Y-128828580D01*
X137530351Y-128787800D01*
X137530346Y-128787800D01*
X137269654Y-128787800D01*
X137269649Y-128787800D01*
X137012177Y-128828580D01*
X137012175Y-128828580D01*
X137012172Y-128828581D01*
X136764240Y-128909140D01*
X136764237Y-128909141D01*
X136764235Y-128909142D01*
X136531961Y-129027491D01*
X136411633Y-129114914D01*
X136321058Y-129180722D01*
X136321056Y-129180724D01*
X136321055Y-129180724D01*
X136136724Y-129365055D01*
X136136724Y-129365056D01*
X136136722Y-129365058D01*
X136107322Y-129405524D01*
X135983491Y-129575961D01*
X135865142Y-129808235D01*
X135865141Y-129808237D01*
X135865140Y-129808240D01*
X135784581Y-130056172D01*
X135784580Y-130056175D01*
X135784580Y-130056177D01*
X135743800Y-130313648D01*
X132035588Y-130313648D01*
X132080520Y-130268716D01*
X132080520Y-130268714D01*
X132090728Y-130258507D01*
X132090729Y-130258504D01*
X134212417Y-128136819D01*
X134273740Y-128103334D01*
X134300098Y-128100500D01*
X140255105Y-128100500D01*
X140322144Y-128120185D01*
X140367899Y-128172989D01*
X140377843Y-128242147D01*
X140355423Y-128297384D01*
X140338266Y-128321000D01*
X140257284Y-128432461D01*
X140153451Y-128636244D01*
X140082779Y-128853750D01*
X140082779Y-128853753D01*
X140047001Y-129079646D01*
X140047001Y-129308353D01*
X140082779Y-129534246D01*
X140082779Y-129534249D01*
X140153451Y-129751755D01*
X140205693Y-129854285D01*
X140257284Y-129955538D01*
X140367160Y-130106769D01*
X140390640Y-130172574D01*
X140374815Y-130240628D01*
X140324709Y-130289323D01*
X140310181Y-130295834D01*
X140305174Y-130297701D01*
X140305165Y-130297706D01*
X140189956Y-130383952D01*
X140189953Y-130383955D01*
X140103707Y-130499164D01*
X140103703Y-130499171D01*
X140053409Y-130634017D01*
X140048042Y-130683946D01*
X140047002Y-130693623D01*
X140047001Y-130693635D01*
X140047001Y-132694370D01*
X140047002Y-132694376D01*
X140053409Y-132753983D01*
X140103703Y-132888828D01*
X140103707Y-132888835D01*
X140189953Y-133004044D01*
X140189956Y-133004047D01*
X140305165Y-133090293D01*
X140305172Y-133090297D01*
X140440018Y-133140591D01*
X140440017Y-133140591D01*
X140446945Y-133141335D01*
X140499628Y-133147000D01*
X142500373Y-133146999D01*
X142559984Y-133140591D01*
X142694832Y-133090296D01*
X142810047Y-133004046D01*
X142896297Y-132888831D01*
X142946592Y-132753983D01*
X142953001Y-132694373D01*
X142953000Y-130693628D01*
X142946592Y-130634017D01*
X142926138Y-130579178D01*
X142896298Y-130499171D01*
X142896294Y-130499164D01*
X142810048Y-130383955D01*
X142810045Y-130383952D01*
X142694836Y-130297706D01*
X142694830Y-130297703D01*
X142689822Y-130295835D01*
X142633890Y-130253962D01*
X142609475Y-130188497D01*
X142624328Y-130120224D01*
X142632829Y-130106786D01*
X142742718Y-129955538D01*
X142846549Y-129751758D01*
X142846550Y-129751755D01*
X142917222Y-129534249D01*
X142917222Y-129534247D01*
X142917223Y-129534245D01*
X142953001Y-129308354D01*
X142953001Y-129079646D01*
X142917223Y-128853755D01*
X142917222Y-128853751D01*
X142917222Y-128853750D01*
X142846550Y-128636244D01*
X142771888Y-128489712D01*
X142742718Y-128432462D01*
X142644578Y-128297385D01*
X142621099Y-128231579D01*
X142636924Y-128163525D01*
X142687030Y-128114830D01*
X142744897Y-128100500D01*
X144255105Y-128100500D01*
X144322144Y-128120185D01*
X144367899Y-128172989D01*
X144377843Y-128242147D01*
X144355423Y-128297384D01*
X144338266Y-128321000D01*
X144257284Y-128432461D01*
X144153451Y-128636244D01*
X144082779Y-128853750D01*
X144082779Y-128853753D01*
X144047001Y-129079646D01*
X144047001Y-129308353D01*
X144082779Y-129534246D01*
X144082779Y-129534249D01*
X144153451Y-129751755D01*
X144205693Y-129854285D01*
X144257284Y-129955538D01*
X144391715Y-130140566D01*
X144553435Y-130302286D01*
X144610412Y-130343682D01*
X144653077Y-130399012D01*
X144659056Y-130468626D01*
X144626450Y-130530421D01*
X144610414Y-130544316D01*
X144553435Y-130585714D01*
X144553433Y-130585716D01*
X144553432Y-130585716D01*
X144391717Y-130747431D01*
X144391717Y-130747432D01*
X144391715Y-130747434D01*
X144370961Y-130776000D01*
X144257284Y-130932461D01*
X144153451Y-131136244D01*
X144082779Y-131353750D01*
X144082779Y-131353753D01*
X144059405Y-131501328D01*
X144047001Y-131579646D01*
X144047001Y-131808354D01*
X144055262Y-131860509D01*
X144082779Y-132034246D01*
X144082779Y-132034249D01*
X144153451Y-132251755D01*
X144153453Y-132251758D01*
X144257284Y-132455538D01*
X144391715Y-132640566D01*
X144553435Y-132802286D01*
X144738463Y-132936717D01*
X144870600Y-133004044D01*
X144942245Y-133040549D01*
X145159752Y-133111221D01*
X145159753Y-133111221D01*
X145159756Y-133111222D01*
X145385647Y-133147000D01*
X145385648Y-133147000D01*
X145614354Y-133147000D01*
X145614355Y-133147000D01*
X145840246Y-133111222D01*
X145840249Y-133111221D01*
X145840250Y-133111221D01*
X146057756Y-133040549D01*
X146057756Y-133040548D01*
X146057759Y-133040548D01*
X146261539Y-132936717D01*
X146446567Y-132802286D01*
X146608287Y-132640566D01*
X146742718Y-132455538D01*
X146846549Y-132251758D01*
X146917223Y-132034245D01*
X146953001Y-131808354D01*
X146953001Y-131579646D01*
X146917223Y-131353755D01*
X146917222Y-131353751D01*
X146917222Y-131353750D01*
X146846550Y-131136244D01*
X146817770Y-131079760D01*
X146742718Y-130932462D01*
X146608287Y-130747434D01*
X146446567Y-130585714D01*
X146389589Y-130544317D01*
X146346924Y-130488988D01*
X146340945Y-130419375D01*
X146373550Y-130357580D01*
X146389590Y-130343682D01*
X146446567Y-130302286D01*
X146608287Y-130140566D01*
X146742718Y-129955538D01*
X146846549Y-129751758D01*
X146846550Y-129751755D01*
X146917222Y-129534249D01*
X146917222Y-129534247D01*
X146917223Y-129534245D01*
X146953001Y-129308354D01*
X146953001Y-129079646D01*
X146917223Y-128853755D01*
X146917222Y-128853751D01*
X146917222Y-128853750D01*
X146846550Y-128636244D01*
X146771888Y-128489712D01*
X146742718Y-128432462D01*
X146644578Y-128297385D01*
X146621099Y-128231579D01*
X146636924Y-128163525D01*
X146687030Y-128114830D01*
X146744897Y-128100500D01*
X148255105Y-128100500D01*
X148322144Y-128120185D01*
X148367899Y-128172989D01*
X148377843Y-128242147D01*
X148355423Y-128297384D01*
X148314046Y-128354336D01*
X148257283Y-128432462D01*
X148153450Y-128636245D01*
X148082778Y-128853751D01*
X148082778Y-128853754D01*
X148061981Y-128985060D01*
X148047000Y-129079647D01*
X148047000Y-129308355D01*
X148055981Y-129365056D01*
X148082778Y-129534247D01*
X148082778Y-129534250D01*
X148153450Y-129751756D01*
X148213564Y-129869735D01*
X148257283Y-129955539D01*
X148391714Y-130140567D01*
X148553434Y-130302287D01*
X148610412Y-130343684D01*
X148653076Y-130399011D01*
X148659055Y-130468625D01*
X148626450Y-130530420D01*
X148610412Y-130544317D01*
X148553435Y-130585713D01*
X148391717Y-130747431D01*
X148391717Y-130747432D01*
X148391715Y-130747434D01*
X148370961Y-130776000D01*
X148257284Y-130932461D01*
X148153451Y-131136244D01*
X148082779Y-131353750D01*
X148082779Y-131353753D01*
X148059405Y-131501328D01*
X148047001Y-131579646D01*
X148047001Y-131808354D01*
X148055262Y-131860509D01*
X148082779Y-132034246D01*
X148082779Y-132034249D01*
X148153451Y-132251755D01*
X148153453Y-132251758D01*
X148257284Y-132455538D01*
X148391715Y-132640566D01*
X148553435Y-132802286D01*
X148738463Y-132936717D01*
X148870600Y-133004044D01*
X148942245Y-133040549D01*
X149159752Y-133111221D01*
X149159753Y-133111221D01*
X149159756Y-133111222D01*
X149385647Y-133147000D01*
X149385648Y-133147000D01*
X149614354Y-133147000D01*
X149614355Y-133147000D01*
X149840246Y-133111222D01*
X149840249Y-133111221D01*
X149840250Y-133111221D01*
X150057756Y-133040549D01*
X150057756Y-133040548D01*
X150057759Y-133040548D01*
X150261539Y-132936717D01*
X150446567Y-132802286D01*
X150608287Y-132640566D01*
X150742718Y-132455538D01*
X150846549Y-132251758D01*
X150917223Y-132034245D01*
X150953001Y-131808354D01*
X150953001Y-131579646D01*
X150917223Y-131353755D01*
X150917222Y-131353751D01*
X150917222Y-131353750D01*
X150846550Y-131136244D01*
X150817770Y-131079760D01*
X150742718Y-130932462D01*
X150608287Y-130747434D01*
X150446567Y-130585714D01*
X150389589Y-130544317D01*
X150375908Y-130526575D01*
X150358830Y-130512071D01*
X150354985Y-130499441D01*
X150346924Y-130488988D01*
X150345006Y-130466665D01*
X150338481Y-130445230D01*
X150342074Y-130432526D01*
X150340945Y-130419375D01*
X150351400Y-130399558D01*
X150357500Y-130377998D01*
X150369609Y-130365047D01*
X150373550Y-130357580D01*
X150380347Y-130351097D01*
X150384785Y-130347173D01*
X150430929Y-130313648D01*
X151943802Y-130313648D01*
X151943802Y-130574351D01*
X151982992Y-130821785D01*
X151984583Y-130831828D01*
X152065142Y-131079760D01*
X152183493Y-131312038D01*
X152336724Y-131522942D01*
X152521060Y-131707278D01*
X152731964Y-131860509D01*
X152964242Y-131978860D01*
X153212174Y-132059419D01*
X153340915Y-132079809D01*
X153469651Y-132100200D01*
X153469656Y-132100200D01*
X153730353Y-132100200D01*
X153847385Y-132081663D01*
X153987830Y-132059419D01*
X154235762Y-131978860D01*
X154468040Y-131860509D01*
X154678944Y-131707278D01*
X154863280Y-131522942D01*
X155016511Y-131312038D01*
X155134862Y-131079760D01*
X155215421Y-130831828D01*
X155246751Y-130634017D01*
X155256202Y-130574351D01*
X155256202Y-130313648D01*
X155228788Y-130140567D01*
X155215421Y-130056172D01*
X155134862Y-129808240D01*
X155016511Y-129575962D01*
X154863280Y-129365058D01*
X154678944Y-129180722D01*
X154468040Y-129027491D01*
X154235762Y-128909140D01*
X153987830Y-128828581D01*
X153987824Y-128828580D01*
X153730353Y-128787800D01*
X153730348Y-128787800D01*
X153469656Y-128787800D01*
X153469651Y-128787800D01*
X153212179Y-128828580D01*
X153212177Y-128828580D01*
X153212174Y-128828581D01*
X152964242Y-128909140D01*
X152964239Y-128909141D01*
X152964237Y-128909142D01*
X152731963Y-129027491D01*
X152611635Y-129114914D01*
X152521060Y-129180722D01*
X152521058Y-129180724D01*
X152521057Y-129180724D01*
X152336726Y-129365055D01*
X152336726Y-129365056D01*
X152336724Y-129365058D01*
X152307324Y-129405524D01*
X152183493Y-129575961D01*
X152065144Y-129808235D01*
X152065143Y-129808237D01*
X152065142Y-129808240D01*
X151984583Y-130056172D01*
X151984582Y-130056175D01*
X151984582Y-130056177D01*
X151943802Y-130313648D01*
X150430929Y-130313648D01*
X150446566Y-130302287D01*
X150608286Y-130140567D01*
X150742717Y-129955539D01*
X150846548Y-129751759D01*
X150866709Y-129689710D01*
X150917221Y-129534250D01*
X150917221Y-129534249D01*
X150917222Y-129534246D01*
X150953000Y-129308355D01*
X150953000Y-129079647D01*
X150917222Y-128853756D01*
X150917221Y-128853752D01*
X150917221Y-128853751D01*
X150846549Y-128636245D01*
X150838690Y-128620821D01*
X150742717Y-128432463D01*
X150644576Y-128297384D01*
X150621097Y-128231579D01*
X150636922Y-128163526D01*
X150687028Y-128114831D01*
X150744895Y-128100500D01*
X165823555Y-128100500D01*
X165871006Y-128109938D01*
X165969503Y-128150737D01*
X165969506Y-128150737D01*
X165969511Y-128150739D01*
X166124153Y-128181499D01*
X166124156Y-128181500D01*
X166124158Y-128181500D01*
X166281844Y-128181500D01*
X166281845Y-128181499D01*
X166436497Y-128150737D01*
X166582179Y-128090394D01*
X166713289Y-128002789D01*
X166824789Y-127891289D01*
X166912394Y-127760179D01*
X166972452Y-127615186D01*
X172599500Y-127615186D01*
X172599500Y-127884813D01*
X172629686Y-128152719D01*
X172629687Y-128152728D01*
X172629688Y-128152732D01*
X172632152Y-128163526D01*
X172689684Y-128415594D01*
X172689687Y-128415602D01*
X172778734Y-128670082D01*
X172895714Y-128912994D01*
X172895716Y-128912997D01*
X173039162Y-129141289D01*
X173142204Y-129270500D01*
X173192442Y-129333497D01*
X173207266Y-129352085D01*
X173397915Y-129542734D01*
X173608711Y-129710838D01*
X173837003Y-129854284D01*
X173837005Y-129854285D01*
X173869094Y-129869738D01*
X174079921Y-129971267D01*
X174271049Y-130038145D01*
X174334397Y-130060312D01*
X174334405Y-130060315D01*
X174334408Y-130060315D01*
X174334409Y-130060316D01*
X174597268Y-130120312D01*
X174865187Y-130150499D01*
X174865188Y-130150500D01*
X174865191Y-130150500D01*
X175134812Y-130150500D01*
X175134812Y-130150499D01*
X175402732Y-130120312D01*
X175665591Y-130060316D01*
X175920079Y-129971267D01*
X176162997Y-129854284D01*
X176391289Y-129710838D01*
X176602085Y-129542734D01*
X176792734Y-129352085D01*
X176960838Y-129141289D01*
X177104284Y-128912997D01*
X177221267Y-128670079D01*
X177310316Y-128415591D01*
X177370312Y-128152732D01*
X177400500Y-127884809D01*
X177400500Y-127615191D01*
X177370312Y-127347268D01*
X177310316Y-127084409D01*
X177221267Y-126829921D01*
X177104284Y-126587003D01*
X176960838Y-126358711D01*
X176792734Y-126147915D01*
X176602085Y-125957266D01*
X176599045Y-125954842D01*
X176442828Y-125830263D01*
X176391289Y-125789162D01*
X176162997Y-125645716D01*
X176162994Y-125645714D01*
X175920082Y-125528734D01*
X175665602Y-125439687D01*
X175665594Y-125439684D01*
X175430211Y-125385960D01*
X175402732Y-125379688D01*
X175402728Y-125379687D01*
X175402719Y-125379686D01*
X175134813Y-125349500D01*
X175134809Y-125349500D01*
X174865191Y-125349500D01*
X174865186Y-125349500D01*
X174597280Y-125379686D01*
X174597268Y-125379688D01*
X174334405Y-125439684D01*
X174334397Y-125439687D01*
X174079917Y-125528734D01*
X173837005Y-125645714D01*
X173608712Y-125789161D01*
X173397915Y-125957265D01*
X173207265Y-126147915D01*
X173039161Y-126358712D01*
X172895714Y-126587005D01*
X172778734Y-126829917D01*
X172689687Y-127084397D01*
X172689684Y-127084405D01*
X172629688Y-127347268D01*
X172629686Y-127347280D01*
X172599500Y-127615186D01*
X166972452Y-127615186D01*
X166972737Y-127614497D01*
X167002980Y-127462457D01*
X167003500Y-127459844D01*
X167003500Y-127302155D01*
X167003499Y-127302153D01*
X166983673Y-127202482D01*
X166972737Y-127147503D01*
X166972735Y-127147498D01*
X166912397Y-127001827D01*
X166912390Y-127001814D01*
X166824789Y-126870711D01*
X166824786Y-126870707D01*
X166713292Y-126759213D01*
X166713288Y-126759210D01*
X166582185Y-126671609D01*
X166582172Y-126671602D01*
X166436501Y-126611264D01*
X166436489Y-126611261D01*
X166281845Y-126580500D01*
X166281842Y-126580500D01*
X166124158Y-126580500D01*
X166124155Y-126580500D01*
X165969510Y-126611261D01*
X165969498Y-126611264D01*
X165823827Y-126671602D01*
X165823814Y-126671609D01*
X165692711Y-126759210D01*
X165692707Y-126759213D01*
X165588740Y-126863181D01*
X165527417Y-126896666D01*
X165501059Y-126899500D01*
X163947096Y-126899500D01*
X163880057Y-126879815D01*
X163834302Y-126827011D01*
X163824358Y-126757853D01*
X163853383Y-126694297D01*
X163859415Y-126687819D01*
X165884812Y-124662422D01*
X168364662Y-122182572D01*
X168425983Y-122149089D01*
X168428150Y-122148638D01*
X168486085Y-122137113D01*
X168583497Y-122117737D01*
X168729179Y-122057394D01*
X168860289Y-121969789D01*
X168971789Y-121858289D01*
X169059394Y-121727179D01*
X169119737Y-121581497D01*
X169150500Y-121426842D01*
X169150500Y-121269158D01*
X169150500Y-121269155D01*
X169150499Y-121269153D01*
X169119737Y-121114503D01*
X169073876Y-121003783D01*
X169059397Y-120968827D01*
X169059390Y-120968814D01*
X168971789Y-120837711D01*
X168971786Y-120837707D01*
X168860292Y-120726213D01*
X168860288Y-120726210D01*
X168729185Y-120638609D01*
X168729172Y-120638602D01*
X168583501Y-120578264D01*
X168583489Y-120578261D01*
X168428845Y-120547500D01*
X168428842Y-120547500D01*
X168271158Y-120547500D01*
X168271155Y-120547500D01*
X168116510Y-120578261D01*
X168116498Y-120578264D01*
X167970827Y-120638602D01*
X167970814Y-120638609D01*
X167839711Y-120726210D01*
X167839707Y-120726213D01*
X167728213Y-120837707D01*
X167728210Y-120837711D01*
X167640609Y-120968814D01*
X167640602Y-120968827D01*
X167580264Y-121114498D01*
X167580261Y-121114508D01*
X167549361Y-121269850D01*
X167516976Y-121331761D01*
X167515425Y-121333339D01*
X162985584Y-125863181D01*
X162924261Y-125896666D01*
X162897903Y-125899500D01*
X120670659Y-125899500D01*
X120603620Y-125879815D01*
X120557865Y-125827011D01*
X120547137Y-125786376D01*
X120403563Y-124155777D01*
X120403431Y-124154312D01*
X120381550Y-123913624D01*
X120395084Y-123845077D01*
X120417357Y-123814719D01*
X124145259Y-120086819D01*
X124206582Y-120053334D01*
X124232940Y-120050500D01*
X137667060Y-120050500D01*
X137734099Y-120070185D01*
X137754741Y-120086819D01*
X138028211Y-120360289D01*
X138132115Y-120464193D01*
X138139712Y-120471790D01*
X138270814Y-120559390D01*
X138270827Y-120559397D01*
X138416498Y-120619735D01*
X138416503Y-120619737D01*
X138416507Y-120619737D01*
X138416508Y-120619738D01*
X138571154Y-120650500D01*
X138571157Y-120650500D01*
X138728844Y-120650500D01*
X138728845Y-120650499D01*
X138883497Y-120619737D01*
X139029179Y-120559394D01*
X139160289Y-120471789D01*
X139271789Y-120360289D01*
X139359394Y-120229179D01*
X139369290Y-120205289D01*
X139415612Y-120093455D01*
X139419737Y-120083497D01*
X139450500Y-119928842D01*
X139450500Y-119771158D01*
X139450500Y-119771155D01*
X139450499Y-119771153D01*
X139419738Y-119616510D01*
X139419737Y-119616503D01*
X139419593Y-119616156D01*
X139359397Y-119470827D01*
X139359390Y-119470814D01*
X139271790Y-119339712D01*
X139247894Y-119315816D01*
X139198257Y-119266179D01*
X139164774Y-119204859D01*
X139169758Y-119135167D01*
X139211629Y-119079233D01*
X139277093Y-119054816D01*
X139285940Y-119054500D01*
X176209331Y-119054500D01*
X176209347Y-119054501D01*
X176216943Y-119054501D01*
X176375054Y-119054501D01*
X176375057Y-119054501D01*
X176527785Y-119013577D01*
X176584123Y-118981050D01*
X176664716Y-118934520D01*
X176776520Y-118822716D01*
X176776520Y-118822714D01*
X176786724Y-118812511D01*
X176786727Y-118812506D01*
X177280662Y-118318572D01*
X177341983Y-118285089D01*
X177344150Y-118284638D01*
X177402085Y-118273113D01*
X177499497Y-118253737D01*
X177645179Y-118193394D01*
X177776289Y-118105789D01*
X177887789Y-117994289D01*
X177975394Y-117863179D01*
X178035737Y-117717497D01*
X178066500Y-117562842D01*
X178066500Y-117405158D01*
X178066500Y-117405155D01*
X178066499Y-117405153D01*
X178035738Y-117250510D01*
X178035738Y-117250508D01*
X178035737Y-117250503D01*
X178035735Y-117250498D01*
X177975397Y-117104827D01*
X177975390Y-117104814D01*
X177887789Y-116973711D01*
X177887786Y-116973707D01*
X177776292Y-116862213D01*
X177776288Y-116862210D01*
X177645185Y-116774609D01*
X177645172Y-116774602D01*
X177499501Y-116714264D01*
X177499489Y-116714261D01*
X177344845Y-116683500D01*
X177344842Y-116683500D01*
X177187158Y-116683500D01*
X177187155Y-116683500D01*
X177032510Y-116714261D01*
X177032498Y-116714264D01*
X176886827Y-116774602D01*
X176886814Y-116774609D01*
X176755711Y-116862210D01*
X176755707Y-116862213D01*
X176644213Y-116973707D01*
X176644210Y-116973711D01*
X176556609Y-117104814D01*
X176556602Y-117104827D01*
X176496264Y-117250498D01*
X176496261Y-117250508D01*
X176465361Y-117405850D01*
X176432976Y-117467761D01*
X176431425Y-117469339D01*
X176083584Y-117817181D01*
X176022261Y-117850666D01*
X175995903Y-117853500D01*
X101085767Y-117853500D01*
X101018728Y-117833815D01*
X101016876Y-117832602D01*
X100951501Y-117788919D01*
X100951488Y-117788912D01*
X100814917Y-117732343D01*
X100814907Y-117732340D01*
X100728685Y-117715189D01*
X100666774Y-117682804D01*
X100632200Y-117622087D01*
X100635941Y-117552318D01*
X100665195Y-117505892D01*
X100735821Y-117435265D01*
X102453220Y-115717820D01*
X102514542Y-115684334D01*
X102540902Y-115681500D01*
X158732331Y-115681500D01*
X158732347Y-115681501D01*
X158739943Y-115681501D01*
X158898054Y-115681501D01*
X158898057Y-115681501D01*
X159050785Y-115640577D01*
X159117181Y-115602243D01*
X159187716Y-115561520D01*
X159299520Y-115449716D01*
X159299520Y-115449714D01*
X159309724Y-115439511D01*
X159309727Y-115439506D01*
X160264665Y-114484570D01*
X160325984Y-114451088D01*
X160328151Y-114450637D01*
X160328840Y-114450500D01*
X160328842Y-114450500D01*
X160483497Y-114419737D01*
X160629179Y-114359394D01*
X160760289Y-114271789D01*
X160871789Y-114160289D01*
X160959394Y-114029179D01*
X161019737Y-113883497D01*
X161050500Y-113728842D01*
X161050500Y-113571158D01*
X161050500Y-113571155D01*
X161050499Y-113571153D01*
X161030734Y-113471789D01*
X161019737Y-113416503D01*
X161019732Y-113416490D01*
X161018219Y-113411502D01*
X161017592Y-113341635D01*
X161054837Y-113282520D01*
X161118130Y-113252926D01*
X161136878Y-113251500D01*
X161635241Y-113251500D01*
X161702280Y-113271185D01*
X161738343Y-113306609D01*
X161774210Y-113360289D01*
X161885707Y-113471786D01*
X161885711Y-113471789D01*
X162016814Y-113559390D01*
X162016827Y-113559397D01*
X162149099Y-113614185D01*
X162162503Y-113619737D01*
X162317153Y-113650499D01*
X162317156Y-113650500D01*
X162317158Y-113650500D01*
X162474844Y-113650500D01*
X162474845Y-113650499D01*
X162629497Y-113619737D01*
X162775179Y-113559394D01*
X162906289Y-113471789D01*
X163017789Y-113360289D01*
X163105394Y-113229179D01*
X163152020Y-113116611D01*
X163195859Y-113062211D01*
X163224072Y-113048560D01*
X163223869Y-113048068D01*
X163375172Y-112985397D01*
X163375172Y-112985396D01*
X163375179Y-112985394D01*
X163506289Y-112897789D01*
X163617789Y-112786289D01*
X163705394Y-112655179D01*
X163705711Y-112654415D01*
X163728611Y-112599128D01*
X163765737Y-112509497D01*
X163796500Y-112354842D01*
X163796500Y-112197158D01*
X163796500Y-112197155D01*
X163796499Y-112197153D01*
X163786860Y-112148691D01*
X163793087Y-112079100D01*
X163835950Y-112023922D01*
X163901840Y-112000678D01*
X163908477Y-112000500D01*
X164386160Y-112000500D01*
X164438520Y-112013614D01*
X164438878Y-112012753D01*
X164444504Y-112015083D01*
X164444505Y-112015084D01*
X164581087Y-112071658D01*
X164581091Y-112071658D01*
X164581092Y-112071659D01*
X164726079Y-112100500D01*
X164726082Y-112100500D01*
X164873920Y-112100500D01*
X164981500Y-112079100D01*
X165018913Y-112071658D01*
X165155495Y-112015084D01*
X165278416Y-111932951D01*
X165382951Y-111828416D01*
X165465084Y-111705495D01*
X165521658Y-111568913D01*
X165535305Y-111500308D01*
X165550019Y-111472177D01*
X165563209Y-111443297D01*
X165566098Y-111441440D01*
X165567690Y-111438397D01*
X165595282Y-111422684D01*
X165621987Y-111405523D01*
X165626580Y-111404862D01*
X165628406Y-111403823D01*
X165656922Y-111400500D01*
X165719903Y-111400500D01*
X165786942Y-111420185D01*
X165807584Y-111436819D01*
X166625064Y-112254299D01*
X166658549Y-112315622D01*
X166659000Y-112317788D01*
X166674340Y-112394907D01*
X166674343Y-112394917D01*
X166730912Y-112531488D01*
X166730919Y-112531501D01*
X166813048Y-112654415D01*
X166813051Y-112654419D01*
X166917580Y-112758948D01*
X166917584Y-112758951D01*
X167040498Y-112841080D01*
X167040511Y-112841087D01*
X167150919Y-112886819D01*
X167177087Y-112897658D01*
X167177091Y-112897658D01*
X167177092Y-112897659D01*
X167322079Y-112926500D01*
X167322082Y-112926500D01*
X167469920Y-112926500D01*
X167567462Y-112907096D01*
X167614913Y-112897658D01*
X167743248Y-112844500D01*
X167751488Y-112841087D01*
X167751488Y-112841086D01*
X167751495Y-112841084D01*
X167874416Y-112758951D01*
X167937386Y-112695980D01*
X167998707Y-112662497D01*
X168068399Y-112667481D01*
X168112747Y-112695982D01*
X168503181Y-113086416D01*
X168536666Y-113147739D01*
X168539500Y-113174097D01*
X168539500Y-113313846D01*
X168570261Y-113468489D01*
X168570264Y-113468501D01*
X168630602Y-113614172D01*
X168630609Y-113614185D01*
X168718210Y-113745288D01*
X168718213Y-113745292D01*
X168829707Y-113856786D01*
X168829711Y-113856789D01*
X168960814Y-113944390D01*
X168960827Y-113944397D01*
X169089169Y-113997557D01*
X169106503Y-114004737D01*
X169229411Y-114029185D01*
X169261153Y-114035499D01*
X169261156Y-114035500D01*
X169261158Y-114035500D01*
X169418844Y-114035500D01*
X169418845Y-114035499D01*
X169573497Y-114004737D01*
X169719179Y-113944394D01*
X169850289Y-113856789D01*
X169961789Y-113745289D01*
X170049394Y-113614179D01*
X170109737Y-113468497D01*
X170140500Y-113313842D01*
X170140500Y-113156158D01*
X170140500Y-113156155D01*
X170140499Y-113156153D01*
X170121818Y-113062239D01*
X170109737Y-113001503D01*
X170103066Y-112985397D01*
X170049397Y-112855827D01*
X170049390Y-112855814D01*
X169961789Y-112724711D01*
X169961786Y-112724707D01*
X169850292Y-112613213D01*
X169850288Y-112613210D01*
X169719185Y-112525609D01*
X169719176Y-112525604D01*
X169608234Y-112479651D01*
X169568006Y-112452771D01*
X167727416Y-110612181D01*
X167693931Y-110550858D01*
X167698915Y-110481166D01*
X167740787Y-110425233D01*
X167806251Y-110400816D01*
X167815097Y-110400500D01*
X168099903Y-110400500D01*
X168166942Y-110420185D01*
X168187584Y-110436819D01*
X171560139Y-113809374D01*
X171560149Y-113809385D01*
X171564479Y-113813715D01*
X171564480Y-113813716D01*
X171676284Y-113925520D01*
X171676286Y-113925521D01*
X171676290Y-113925524D01*
X171801057Y-113997557D01*
X171813216Y-114004577D01*
X171924678Y-114034443D01*
X171965942Y-114045500D01*
X171965943Y-114045500D01*
X177961903Y-114045500D01*
X178028942Y-114065185D01*
X178049583Y-114081818D01*
X178874284Y-114906520D01*
X178874286Y-114906521D01*
X178874290Y-114906524D01*
X179011209Y-114985573D01*
X179011216Y-114985577D01*
X179163943Y-115026501D01*
X179226236Y-115026501D01*
X179293275Y-115046186D01*
X179295127Y-115047399D01*
X179426814Y-115135390D01*
X179426827Y-115135397D01*
X179572498Y-115195735D01*
X179572503Y-115195737D01*
X179727153Y-115226499D01*
X179727156Y-115226500D01*
X179727158Y-115226500D01*
X179884844Y-115226500D01*
X179884845Y-115226499D01*
X180039497Y-115195737D01*
X180185179Y-115135394D01*
X180316289Y-115047789D01*
X180427789Y-114936289D01*
X180515394Y-114805179D01*
X180575737Y-114659497D01*
X180606500Y-114504842D01*
X180606500Y-114347158D01*
X180606500Y-114347155D01*
X180606499Y-114347153D01*
X180588347Y-114255896D01*
X180575737Y-114192503D01*
X180523001Y-114065185D01*
X180515397Y-114046827D01*
X180515390Y-114046814D01*
X180427789Y-113915711D01*
X180427786Y-113915707D01*
X180316292Y-113804213D01*
X180316288Y-113804210D01*
X180185185Y-113716609D01*
X180185172Y-113716602D01*
X180039501Y-113656264D01*
X180039489Y-113656261D01*
X179884845Y-113625500D01*
X179884842Y-113625500D01*
X179727158Y-113625500D01*
X179727155Y-113625500D01*
X179572510Y-113656261D01*
X179572498Y-113656264D01*
X179472269Y-113697780D01*
X179402799Y-113705249D01*
X179340320Y-113673973D01*
X179337136Y-113670900D01*
X178749590Y-113083355D01*
X178749588Y-113083352D01*
X178630717Y-112964481D01*
X178630716Y-112964480D01*
X178543401Y-112914069D01*
X178543400Y-112914068D01*
X178493790Y-112885425D01*
X178493789Y-112885424D01*
X178481263Y-112882067D01*
X178341057Y-112844499D01*
X178182943Y-112844499D01*
X178175347Y-112844499D01*
X178175331Y-112844500D01*
X175437444Y-112844500D01*
X175370405Y-112824815D01*
X175324650Y-112772011D01*
X175315827Y-112744691D01*
X175303261Y-112681521D01*
X175288737Y-112608503D01*
X175256842Y-112531501D01*
X175228397Y-112462827D01*
X175228390Y-112462814D01*
X175140398Y-112331125D01*
X175119520Y-112264447D01*
X175119500Y-112262234D01*
X175119500Y-109984942D01*
X175116625Y-109974215D01*
X175116625Y-109974214D01*
X175116623Y-109974208D01*
X175098157Y-109905289D01*
X175078577Y-109832216D01*
X175078573Y-109832209D01*
X174999524Y-109695290D01*
X174999521Y-109695286D01*
X174999520Y-109695284D01*
X174887716Y-109583480D01*
X174887715Y-109583479D01*
X174883385Y-109579149D01*
X174883374Y-109579139D01*
X172663590Y-107359355D01*
X172663588Y-107359352D01*
X172544717Y-107240481D01*
X172544716Y-107240480D01*
X172449452Y-107185480D01*
X172449451Y-107185479D01*
X172407783Y-107161422D01*
X172351881Y-107146443D01*
X172255057Y-107120499D01*
X172096943Y-107120499D01*
X172089347Y-107120499D01*
X172089331Y-107120500D01*
X165717848Y-107120500D01*
X165650809Y-107100815D01*
X165605054Y-107048011D01*
X165596231Y-107020692D01*
X165569738Y-106887508D01*
X165569737Y-106887507D01*
X165569737Y-106887503D01*
X165527780Y-106786209D01*
X165509397Y-106741827D01*
X165509390Y-106741814D01*
X165433382Y-106628060D01*
X165412504Y-106561382D01*
X165430989Y-106494002D01*
X165448799Y-106471492D01*
X165718564Y-106201728D01*
X165779887Y-106168243D01*
X165806245Y-106165409D01*
X169295142Y-106165409D01*
X169362181Y-106185094D01*
X169364033Y-106186307D01*
X169429407Y-106229989D01*
X169429420Y-106229996D01*
X169552672Y-106281048D01*
X169565996Y-106286567D01*
X169566000Y-106286567D01*
X169566001Y-106286568D01*
X169710988Y-106315409D01*
X169710991Y-106315409D01*
X169858829Y-106315409D01*
X169956371Y-106296005D01*
X170003822Y-106286567D01*
X170140404Y-106229993D01*
X170263325Y-106147860D01*
X170367860Y-106043325D01*
X170449993Y-105920404D01*
X170506567Y-105783822D01*
X170523141Y-105700500D01*
X170535409Y-105638829D01*
X170535409Y-105490988D01*
X170506568Y-105346001D01*
X170506567Y-105346000D01*
X170506567Y-105345996D01*
X170478888Y-105279172D01*
X170449996Y-105209420D01*
X170449989Y-105209407D01*
X170367860Y-105086493D01*
X170367857Y-105086489D01*
X170263328Y-104981960D01*
X170263324Y-104981957D01*
X170140410Y-104899828D01*
X170140397Y-104899821D01*
X170003826Y-104843252D01*
X170003816Y-104843249D01*
X169858829Y-104814409D01*
X169858827Y-104814409D01*
X169710991Y-104814409D01*
X169710989Y-104814409D01*
X169667218Y-104823116D01*
X169643027Y-104825499D01*
X169566943Y-104825499D01*
X169566939Y-104825499D01*
X169559332Y-104825500D01*
X169559331Y-104825499D01*
X169559331Y-104825500D01*
X163196097Y-104825500D01*
X163129058Y-104805815D01*
X163108416Y-104789181D01*
X158416934Y-100097699D01*
X158383449Y-100036376D01*
X158383025Y-100034346D01*
X158367658Y-99957087D01*
X158367656Y-99957082D01*
X158311087Y-99820511D01*
X158311080Y-99820498D01*
X158228951Y-99697584D01*
X158228948Y-99697580D01*
X158124419Y-99593051D01*
X158124415Y-99593048D01*
X158001501Y-99510919D01*
X158001488Y-99510912D01*
X157864917Y-99454343D01*
X157864907Y-99454340D01*
X157719920Y-99425500D01*
X157719918Y-99425500D01*
X157572082Y-99425500D01*
X157572080Y-99425500D01*
X157427092Y-99454340D01*
X157427082Y-99454343D01*
X157290511Y-99510912D01*
X157290498Y-99510919D01*
X157167584Y-99593048D01*
X157167580Y-99593051D01*
X157092615Y-99668017D01*
X157031292Y-99701502D01*
X156961600Y-99696518D01*
X156917253Y-99668017D01*
X156736819Y-99487583D01*
X156703334Y-99426260D01*
X156700500Y-99399902D01*
X156700500Y-98847153D01*
X159345500Y-98847153D01*
X159345500Y-99004846D01*
X159376261Y-99159489D01*
X159376264Y-99159501D01*
X159436602Y-99305172D01*
X159436609Y-99305185D01*
X159524210Y-99436288D01*
X159524213Y-99436292D01*
X163885707Y-103797786D01*
X163885711Y-103797789D01*
X164016814Y-103885390D01*
X164016818Y-103885392D01*
X164016821Y-103885394D01*
X164162503Y-103945738D01*
X164289251Y-103970949D01*
X164317153Y-103976499D01*
X164317157Y-103976500D01*
X164317158Y-103976500D01*
X173474844Y-103976500D01*
X173474845Y-103976499D01*
X173629497Y-103945737D01*
X173775179Y-103885394D01*
X173906289Y-103797789D01*
X174017789Y-103686289D01*
X174105394Y-103555179D01*
X174165737Y-103409497D01*
X174196500Y-103254842D01*
X174196500Y-103097158D01*
X174196500Y-103097155D01*
X174196499Y-103097153D01*
X174165738Y-102942510D01*
X174165737Y-102942503D01*
X174165735Y-102942498D01*
X174105397Y-102796827D01*
X174105390Y-102796814D01*
X174017789Y-102665711D01*
X174017786Y-102665707D01*
X173906292Y-102554213D01*
X173906288Y-102554210D01*
X173775185Y-102466609D01*
X173775172Y-102466602D01*
X173629501Y-102406264D01*
X173629489Y-102406261D01*
X173474845Y-102375500D01*
X173474842Y-102375500D01*
X164778940Y-102375500D01*
X164711901Y-102355815D01*
X164691259Y-102339181D01*
X160656292Y-98304213D01*
X160656288Y-98304210D01*
X160525185Y-98216609D01*
X160525172Y-98216602D01*
X160379501Y-98156264D01*
X160379489Y-98156261D01*
X160224845Y-98125500D01*
X160224842Y-98125500D01*
X160067158Y-98125500D01*
X160067155Y-98125500D01*
X159912510Y-98156261D01*
X159912498Y-98156264D01*
X159766827Y-98216602D01*
X159766814Y-98216609D01*
X159635711Y-98304210D01*
X159635707Y-98304213D01*
X159524213Y-98415707D01*
X159524210Y-98415711D01*
X159436609Y-98546814D01*
X159436602Y-98546827D01*
X159376264Y-98692498D01*
X159376261Y-98692510D01*
X159345500Y-98847153D01*
X156700500Y-98847153D01*
X156700500Y-94479765D01*
X156720185Y-94412726D01*
X156721398Y-94410874D01*
X156809390Y-94279185D01*
X156809390Y-94279184D01*
X156809394Y-94279179D01*
X156816439Y-94262172D01*
X156839181Y-94207266D01*
X156869737Y-94133497D01*
X156900500Y-93978842D01*
X156900500Y-93821158D01*
X156900500Y-93821155D01*
X156900499Y-93821153D01*
X156886086Y-93748691D01*
X156892313Y-93679100D01*
X156935176Y-93623922D01*
X157001066Y-93600678D01*
X157007703Y-93600500D01*
X172713331Y-93600500D01*
X172713347Y-93600501D01*
X172720943Y-93600501D01*
X172879056Y-93600501D01*
X172879057Y-93600501D01*
X172934678Y-93585597D01*
X173004528Y-93587259D01*
X173054454Y-93617690D01*
X174200284Y-94763520D01*
X175323186Y-95886421D01*
X175356671Y-95947744D01*
X175351687Y-96017436D01*
X175338608Y-96042992D01*
X175286608Y-96120816D01*
X175286602Y-96120827D01*
X175226264Y-96266498D01*
X175226261Y-96266510D01*
X175195500Y-96421153D01*
X175195500Y-96578846D01*
X175226261Y-96733489D01*
X175226264Y-96733501D01*
X175286602Y-96879172D01*
X175286609Y-96879185D01*
X175374210Y-97010288D01*
X175374213Y-97010292D01*
X175485707Y-97121786D01*
X175485711Y-97121789D01*
X175616814Y-97209390D01*
X175616827Y-97209397D01*
X175762498Y-97269735D01*
X175762503Y-97269737D01*
X175884938Y-97294091D01*
X175917153Y-97300499D01*
X175917156Y-97300500D01*
X175917158Y-97300500D01*
X176074844Y-97300500D01*
X176074845Y-97300499D01*
X176229497Y-97269737D01*
X176375179Y-97209394D01*
X176506289Y-97121789D01*
X176617789Y-97010289D01*
X176705394Y-96879179D01*
X176765737Y-96733497D01*
X176796500Y-96578842D01*
X176796500Y-96421158D01*
X176796500Y-96421155D01*
X176796499Y-96421153D01*
X176765738Y-96266510D01*
X176765737Y-96266503D01*
X176705488Y-96121047D01*
X176705397Y-96120827D01*
X176705390Y-96120814D01*
X176621398Y-95995111D01*
X176615747Y-95977064D01*
X176605523Y-95961155D01*
X176601071Y-95930193D01*
X176600520Y-95928433D01*
X176600500Y-95926220D01*
X176600500Y-95803060D01*
X176600501Y-95803047D01*
X176600501Y-95634944D01*
X176590409Y-95597280D01*
X176559577Y-95482216D01*
X176559573Y-95482209D01*
X176480524Y-95345290D01*
X176480518Y-95345282D01*
X175242438Y-94107202D01*
X173979915Y-92844680D01*
X173946431Y-92783358D01*
X173951415Y-92713666D01*
X173979916Y-92669319D01*
X174555994Y-92093241D01*
X175230520Y-91418716D01*
X175309577Y-91281784D01*
X175350501Y-91129057D01*
X175350501Y-90970942D01*
X175350501Y-90963347D01*
X175350500Y-90963329D01*
X175350500Y-81741561D01*
X175356794Y-81702557D01*
X175364999Y-81677797D01*
X175375500Y-81575009D01*
X175375499Y-80224992D01*
X175364999Y-80122203D01*
X175309814Y-79955666D01*
X175217712Y-79806344D01*
X175093656Y-79682288D01*
X174944334Y-79590186D01*
X174777797Y-79535001D01*
X174777795Y-79535000D01*
X174675010Y-79524500D01*
X173824998Y-79524500D01*
X173824980Y-79524501D01*
X173722203Y-79535000D01*
X173722200Y-79535001D01*
X173555668Y-79590185D01*
X173555663Y-79590187D01*
X173406342Y-79682289D01*
X173282289Y-79806342D01*
X173190187Y-79955663D01*
X173190186Y-79955666D01*
X173135001Y-80122203D01*
X173135001Y-80122204D01*
X173135000Y-80122204D01*
X173124500Y-80224983D01*
X173124500Y-81575001D01*
X173124501Y-81575018D01*
X173135000Y-81677796D01*
X173135001Y-81677799D01*
X173162160Y-81759757D01*
X173190186Y-81844334D01*
X173282288Y-81993656D01*
X173406344Y-82117712D01*
X173555666Y-82209814D01*
X173722203Y-82264999D01*
X173824991Y-82275500D01*
X174025500Y-82275499D01*
X174092539Y-82295183D01*
X174138294Y-82347987D01*
X174149500Y-82399499D01*
X174149500Y-90749902D01*
X174129815Y-90816941D01*
X174113181Y-90837583D01*
X172674284Y-92276481D01*
X172587584Y-92363181D01*
X172526261Y-92396666D01*
X172499903Y-92399500D01*
X167593255Y-92399500D01*
X167526216Y-92379815D01*
X167480461Y-92327011D01*
X167470517Y-92257853D01*
X167499542Y-92194297D01*
X167539453Y-92163780D01*
X167651391Y-92109873D01*
X167662997Y-92104284D01*
X167891289Y-91960838D01*
X168102085Y-91792734D01*
X168292734Y-91602085D01*
X168460838Y-91391289D01*
X168604284Y-91162997D01*
X168721267Y-90920079D01*
X168810316Y-90665591D01*
X168870312Y-90402732D01*
X168900500Y-90134809D01*
X168900500Y-89865191D01*
X168870312Y-89597268D01*
X168810316Y-89334409D01*
X168721267Y-89079921D01*
X168604284Y-88837003D01*
X168460838Y-88608711D01*
X168292734Y-88397915D01*
X168102085Y-88207266D01*
X167891289Y-88039162D01*
X167662997Y-87895716D01*
X167662994Y-87895714D01*
X167420082Y-87778734D01*
X167165602Y-87689687D01*
X167165594Y-87689684D01*
X166936932Y-87637494D01*
X166902732Y-87629688D01*
X166902728Y-87629687D01*
X166902719Y-87629686D01*
X166634813Y-87599500D01*
X166634809Y-87599500D01*
X166365191Y-87599500D01*
X166365186Y-87599500D01*
X166097280Y-87629686D01*
X166097268Y-87629688D01*
X165834405Y-87689684D01*
X165834397Y-87689687D01*
X165579917Y-87778734D01*
X165337005Y-87895714D01*
X165108712Y-88039161D01*
X164897915Y-88207265D01*
X164707265Y-88397915D01*
X164539161Y-88608712D01*
X164395714Y-88837005D01*
X164278734Y-89079917D01*
X164189687Y-89334397D01*
X164189684Y-89334405D01*
X164129688Y-89597268D01*
X164129686Y-89597280D01*
X164099500Y-89865186D01*
X164099500Y-90134813D01*
X164129686Y-90402719D01*
X164129688Y-90402731D01*
X164189684Y-90665594D01*
X164189687Y-90665602D01*
X164278734Y-90920082D01*
X164395714Y-91162994D01*
X164406273Y-91179798D01*
X164539162Y-91391289D01*
X164707266Y-91602085D01*
X164897915Y-91792734D01*
X165108711Y-91960838D01*
X165337003Y-92104284D01*
X165337005Y-92104285D01*
X165460547Y-92163780D01*
X165512406Y-92210602D01*
X165530719Y-92278029D01*
X165509671Y-92344653D01*
X165455945Y-92389322D01*
X165406745Y-92399500D01*
X155669669Y-92399500D01*
X155669653Y-92399499D01*
X155662057Y-92399499D01*
X155503943Y-92399499D01*
X155396587Y-92428265D01*
X155351210Y-92440424D01*
X155351209Y-92440425D01*
X155301096Y-92469359D01*
X155301095Y-92469360D01*
X155257689Y-92494420D01*
X155214285Y-92519479D01*
X155214282Y-92519481D01*
X155102478Y-92631286D01*
X154087584Y-93646181D01*
X154026261Y-93679666D01*
X153999903Y-93682500D01*
X129211370Y-93682500D01*
X129211354Y-93682499D01*
X129203758Y-93682499D01*
X129045643Y-93682499D01*
X128969279Y-93702961D01*
X128892914Y-93723423D01*
X128892909Y-93723426D01*
X128755990Y-93802475D01*
X128755982Y-93802481D01*
X125261070Y-97297394D01*
X125197394Y-97361070D01*
X121647216Y-100911249D01*
X121585893Y-100944734D01*
X121559535Y-100947568D01*
X121301834Y-100947568D01*
X121234795Y-100927883D01*
X121232943Y-100926670D01*
X121101253Y-100838677D01*
X121101240Y-100838670D01*
X120955569Y-100778332D01*
X120955557Y-100778329D01*
X120800913Y-100747568D01*
X120800910Y-100747568D01*
X120643226Y-100747568D01*
X120643223Y-100747568D01*
X120488578Y-100778329D01*
X120488566Y-100778332D01*
X120342895Y-100838670D01*
X120342882Y-100838677D01*
X120211779Y-100926278D01*
X120211775Y-100926281D01*
X120100281Y-101037775D01*
X120100278Y-101037779D01*
X120012677Y-101168882D01*
X120012670Y-101168895D01*
X119952332Y-101314566D01*
X119952329Y-101314578D01*
X119921568Y-101469221D01*
X119921568Y-101626914D01*
X119952329Y-101781557D01*
X119952332Y-101781569D01*
X120012670Y-101927240D01*
X120012677Y-101927253D01*
X120100278Y-102058356D01*
X120100281Y-102058360D01*
X120211775Y-102169854D01*
X120211779Y-102169857D01*
X120342882Y-102257458D01*
X120342895Y-102257465D01*
X120488566Y-102317803D01*
X120488571Y-102317805D01*
X120596035Y-102339181D01*
X120643221Y-102348567D01*
X120643224Y-102348568D01*
X120643226Y-102348568D01*
X120800912Y-102348568D01*
X120800913Y-102348567D01*
X120955565Y-102317805D01*
X121101247Y-102257462D01*
X121137125Y-102233489D01*
X121232943Y-102169466D01*
X121299621Y-102148588D01*
X121301834Y-102148568D01*
X121772963Y-102148568D01*
X121772979Y-102148569D01*
X121780575Y-102148569D01*
X121938686Y-102148569D01*
X121938689Y-102148569D01*
X122091417Y-102107645D01*
X122160797Y-102067588D01*
X122228348Y-102028588D01*
X122340152Y-101916784D01*
X122340152Y-101916782D01*
X122350356Y-101906579D01*
X122350359Y-101906574D01*
X129337117Y-94919819D01*
X129398440Y-94886334D01*
X129424798Y-94883500D01*
X154213331Y-94883500D01*
X154213347Y-94883501D01*
X154220943Y-94883501D01*
X154379054Y-94883501D01*
X154379057Y-94883501D01*
X154531785Y-94842577D01*
X154581904Y-94813639D01*
X154668716Y-94763520D01*
X154780520Y-94651716D01*
X154780520Y-94651714D01*
X154790728Y-94641507D01*
X154790730Y-94641504D01*
X155189806Y-94242427D01*
X155251127Y-94208944D01*
X155320819Y-94213928D01*
X155376752Y-94255800D01*
X155381217Y-94262172D01*
X155387595Y-94271911D01*
X155390606Y-94279179D01*
X155478211Y-94410289D01*
X155478250Y-94410328D01*
X155479232Y-94411827D01*
X155489198Y-94444715D01*
X155499480Y-94477551D01*
X155499490Y-94478677D01*
X155499495Y-94478693D01*
X155499490Y-94478708D01*
X155499500Y-94479765D01*
X155499500Y-99613330D01*
X155499499Y-99613348D01*
X155499499Y-99779054D01*
X155499498Y-99779054D01*
X155499499Y-99779057D01*
X155540423Y-99931785D01*
X155567786Y-99979179D01*
X155567786Y-99979180D01*
X155619475Y-100068709D01*
X155619481Y-100068717D01*
X155738349Y-100187585D01*
X155738355Y-100187590D01*
X160465425Y-104914660D01*
X160498910Y-104975983D01*
X160499361Y-104978149D01*
X160530261Y-105133491D01*
X160530264Y-105133501D01*
X160590602Y-105279172D01*
X160590609Y-105279185D01*
X160678210Y-105410288D01*
X160678213Y-105410292D01*
X160789707Y-105521786D01*
X160789711Y-105521789D01*
X160920814Y-105609390D01*
X160920827Y-105609397D01*
X161066498Y-105669735D01*
X161066503Y-105669737D01*
X161221153Y-105700499D01*
X161221156Y-105700500D01*
X161221158Y-105700500D01*
X161378844Y-105700500D01*
X161378845Y-105700499D01*
X161533497Y-105669737D01*
X161679179Y-105609394D01*
X161810289Y-105521789D01*
X161841090Y-105490988D01*
X161888741Y-105443338D01*
X161950064Y-105409853D01*
X162019756Y-105414837D01*
X162064103Y-105443338D01*
X162415478Y-105794713D01*
X162415480Y-105794716D01*
X162527284Y-105906520D01*
X162574232Y-105933625D01*
X162629464Y-105965513D01*
X162664209Y-105985574D01*
X162664210Y-105985574D01*
X162664215Y-105985577D01*
X162743143Y-106006725D01*
X162802803Y-106043090D01*
X162833332Y-106105937D01*
X162825037Y-106175313D01*
X162780552Y-106229190D01*
X162714000Y-106250465D01*
X162711049Y-106250500D01*
X152418046Y-106250500D01*
X152351007Y-106230815D01*
X152305252Y-106178011D01*
X152296429Y-106150691D01*
X152283344Y-106084912D01*
X152269737Y-106016503D01*
X152235408Y-105933625D01*
X152209939Y-105872136D01*
X152200500Y-105824684D01*
X152200500Y-103591518D01*
X152220185Y-103524479D01*
X152236815Y-103503841D01*
X152944586Y-102796069D01*
X152984810Y-102769192D01*
X153039435Y-102746566D01*
X153129173Y-102709397D01*
X153129176Y-102709395D01*
X153129179Y-102709394D01*
X153260289Y-102621789D01*
X153371789Y-102510289D01*
X153459394Y-102379179D01*
X153519737Y-102233497D01*
X153550500Y-102078842D01*
X153550500Y-101921158D01*
X153550500Y-101921155D01*
X153550499Y-101921153D01*
X153536246Y-101849500D01*
X153519737Y-101766503D01*
X153519191Y-101765184D01*
X153459397Y-101620827D01*
X153459390Y-101620814D01*
X153371789Y-101489711D01*
X153371786Y-101489707D01*
X153260292Y-101378213D01*
X153260288Y-101378210D01*
X153129185Y-101290609D01*
X153129172Y-101290602D01*
X152983501Y-101230264D01*
X152983489Y-101230261D01*
X152828845Y-101199500D01*
X152828842Y-101199500D01*
X152671158Y-101199500D01*
X152671155Y-101199500D01*
X152516510Y-101230261D01*
X152516498Y-101230264D01*
X152370827Y-101290602D01*
X152370814Y-101290609D01*
X152239711Y-101378210D01*
X152239707Y-101378213D01*
X152128213Y-101489707D01*
X152128210Y-101489711D01*
X152040609Y-101620814D01*
X152040604Y-101620823D01*
X151980809Y-101765184D01*
X151953929Y-101805412D01*
X150955890Y-102803451D01*
X150955884Y-102803458D01*
X150918967Y-102858710D01*
X150918967Y-102858711D01*
X150899096Y-102888450D01*
X150879225Y-102918188D01*
X150879221Y-102918195D01*
X150826421Y-103045667D01*
X150826418Y-103045677D01*
X150799500Y-103181004D01*
X150799500Y-105824684D01*
X150790061Y-105872136D01*
X150730264Y-106016498D01*
X150730261Y-106016510D01*
X150703571Y-106150691D01*
X150671186Y-106212602D01*
X150610471Y-106247176D01*
X150581954Y-106250500D01*
X140443681Y-106250500D01*
X140376642Y-106230815D01*
X140330887Y-106178011D01*
X140320943Y-106108853D01*
X140349968Y-106045297D01*
X140356000Y-106038819D01*
X140410934Y-105983885D01*
X140542734Y-105852085D01*
X140710838Y-105641289D01*
X140854284Y-105412997D01*
X140971267Y-105170079D01*
X141060316Y-104915591D01*
X141120312Y-104652732D01*
X141150500Y-104384809D01*
X141150500Y-104115191D01*
X141120312Y-103847268D01*
X141060316Y-103584409D01*
X140971267Y-103329921D01*
X140854284Y-103087003D01*
X140710838Y-102858711D01*
X140542734Y-102647915D01*
X140352085Y-102457266D01*
X140141289Y-102289162D01*
X139912997Y-102145716D01*
X139912994Y-102145714D01*
X139670082Y-102028734D01*
X139415602Y-101939687D01*
X139415594Y-101939684D01*
X139218446Y-101894687D01*
X139152732Y-101879688D01*
X139152728Y-101879687D01*
X139152719Y-101879686D01*
X138884813Y-101849500D01*
X138884809Y-101849500D01*
X138615191Y-101849500D01*
X138615186Y-101849500D01*
X138347280Y-101879686D01*
X138347268Y-101879688D01*
X138084405Y-101939684D01*
X138084397Y-101939687D01*
X137829917Y-102028734D01*
X137587005Y-102145714D01*
X137358712Y-102289161D01*
X137147915Y-102457265D01*
X136957265Y-102647915D01*
X136833225Y-102803458D01*
X136789162Y-102858711D01*
X136761809Y-102902243D01*
X136645714Y-103087005D01*
X136528734Y-103329917D01*
X136439687Y-103584397D01*
X136439684Y-103584405D01*
X136379688Y-103847268D01*
X136379686Y-103847280D01*
X136349500Y-104115186D01*
X136349500Y-104384813D01*
X136379686Y-104652719D01*
X136379688Y-104652731D01*
X136439684Y-104915594D01*
X136439687Y-104915602D01*
X136528734Y-105170082D01*
X136645714Y-105412994D01*
X136645716Y-105412997D01*
X136789162Y-105641289D01*
X136902823Y-105783816D01*
X136957265Y-105852084D01*
X137144000Y-106038819D01*
X137177485Y-106100142D01*
X137172501Y-106169834D01*
X137130629Y-106225767D01*
X137065165Y-106250184D01*
X137056319Y-106250500D01*
X113363229Y-106250500D01*
X113296190Y-106230815D01*
X113275547Y-106214180D01*
X113228419Y-106167051D01*
X113228415Y-106167048D01*
X113105501Y-106084919D01*
X113105488Y-106084912D01*
X112968917Y-106028343D01*
X112968907Y-106028340D01*
X112823920Y-105999500D01*
X112823918Y-105999500D01*
X112676082Y-105999500D01*
X112676080Y-105999500D01*
X112531092Y-106028340D01*
X112531082Y-106028343D01*
X112394511Y-106084912D01*
X112394498Y-106084919D01*
X112271584Y-106167048D01*
X112271580Y-106167051D01*
X112167051Y-106271580D01*
X112167048Y-106271584D01*
X112084919Y-106394498D01*
X112084912Y-106394511D01*
X112028343Y-106531082D01*
X112028340Y-106531094D01*
X112010717Y-106619691D01*
X111978332Y-106681602D01*
X111917617Y-106716176D01*
X111889100Y-106719500D01*
X109340097Y-106719500D01*
X109273058Y-106699815D01*
X109252416Y-106683181D01*
X100334776Y-97765541D01*
X100301291Y-97704218D01*
X100300840Y-97653666D01*
X100301626Y-97649714D01*
X100301626Y-97492028D01*
X100301625Y-97492026D01*
X100270863Y-97337376D01*
X100242846Y-97269737D01*
X100210523Y-97191700D01*
X100210516Y-97191687D01*
X100122915Y-97060584D01*
X100122912Y-97060580D01*
X100011418Y-96949086D01*
X100011414Y-96949083D01*
X99880311Y-96861482D01*
X99880298Y-96861475D01*
X99734627Y-96801137D01*
X99734615Y-96801134D01*
X99579971Y-96770373D01*
X99579968Y-96770373D01*
X99422284Y-96770373D01*
X99422281Y-96770373D01*
X99267636Y-96801134D01*
X99267624Y-96801137D01*
X99121953Y-96861475D01*
X99121935Y-96861485D01*
X99009030Y-96936926D01*
X98942353Y-96957804D01*
X98874973Y-96939319D01*
X98852459Y-96921506D01*
X98778835Y-96847883D01*
X97796131Y-95865186D01*
X109099500Y-95865186D01*
X109099500Y-96134813D01*
X109129686Y-96402719D01*
X109129687Y-96402728D01*
X109129688Y-96402732D01*
X109133893Y-96421155D01*
X109189684Y-96665594D01*
X109189687Y-96665602D01*
X109278734Y-96920082D01*
X109395714Y-97162994D01*
X109395716Y-97162997D01*
X109539162Y-97391289D01*
X109707266Y-97602085D01*
X109897915Y-97792734D01*
X110108711Y-97960838D01*
X110155953Y-97990522D01*
X110337005Y-98104285D01*
X110417975Y-98143278D01*
X110579921Y-98221267D01*
X110771049Y-98288145D01*
X110834397Y-98310312D01*
X110834405Y-98310315D01*
X110834408Y-98310315D01*
X110834409Y-98310316D01*
X111097268Y-98370312D01*
X111365187Y-98400499D01*
X111365188Y-98400500D01*
X111365191Y-98400500D01*
X111634812Y-98400500D01*
X111634812Y-98400499D01*
X111902732Y-98370312D01*
X112165591Y-98310316D01*
X112420079Y-98221267D01*
X112662997Y-98104284D01*
X112891289Y-97960838D01*
X113102085Y-97792734D01*
X113292734Y-97602085D01*
X113460838Y-97391289D01*
X113604284Y-97162997D01*
X113721267Y-96920079D01*
X113810316Y-96665591D01*
X113870312Y-96402732D01*
X113900500Y-96134809D01*
X113900500Y-95865191D01*
X113870312Y-95597268D01*
X113810316Y-95334409D01*
X113721267Y-95079921D01*
X113707886Y-95052135D01*
X122499500Y-95052135D01*
X122499500Y-96847870D01*
X122499501Y-96847876D01*
X122505908Y-96907483D01*
X122556202Y-97042328D01*
X122556206Y-97042335D01*
X122642452Y-97157544D01*
X122642455Y-97157547D01*
X122757664Y-97243793D01*
X122757671Y-97243797D01*
X122892517Y-97294091D01*
X122892516Y-97294091D01*
X122899444Y-97294835D01*
X122952127Y-97300500D01*
X124747872Y-97300499D01*
X124807483Y-97294091D01*
X124942331Y-97243796D01*
X125057546Y-97157546D01*
X125143796Y-97042331D01*
X125194091Y-96907483D01*
X125200500Y-96847873D01*
X125200499Y-95052128D01*
X125194091Y-94992517D01*
X125166976Y-94919819D01*
X125143797Y-94857671D01*
X125143793Y-94857664D01*
X125057547Y-94742455D01*
X125057544Y-94742452D01*
X124942335Y-94656206D01*
X124942328Y-94656202D01*
X124810401Y-94606997D01*
X124754467Y-94565126D01*
X124730050Y-94499662D01*
X124744902Y-94431389D01*
X124766053Y-94403133D01*
X124879728Y-94289458D01*
X125004620Y-94117557D01*
X125101095Y-93928217D01*
X125166757Y-93726129D01*
X125166757Y-93726126D01*
X125177231Y-93660000D01*
X124283012Y-93660000D01*
X124315925Y-93602993D01*
X124350000Y-93475826D01*
X124350000Y-93344174D01*
X124315925Y-93217007D01*
X124283012Y-93160000D01*
X125177231Y-93160000D01*
X125166757Y-93093873D01*
X125166757Y-93093870D01*
X125101095Y-92891782D01*
X125004620Y-92702442D01*
X124879727Y-92530540D01*
X124879723Y-92530535D01*
X124729464Y-92380276D01*
X124729459Y-92380272D01*
X124557557Y-92255379D01*
X124368215Y-92158903D01*
X124166124Y-92093241D01*
X124100000Y-92082768D01*
X124100000Y-92976988D01*
X124042993Y-92944075D01*
X123915826Y-92910000D01*
X123784174Y-92910000D01*
X123657007Y-92944075D01*
X123600000Y-92976988D01*
X123600000Y-92082768D01*
X123599999Y-92082768D01*
X123533875Y-92093241D01*
X123331784Y-92158903D01*
X123142442Y-92255379D01*
X122970540Y-92380272D01*
X122970535Y-92380276D01*
X122820276Y-92530535D01*
X122820272Y-92530540D01*
X122695379Y-92702442D01*
X122598904Y-92891782D01*
X122533242Y-93093870D01*
X122533242Y-93093873D01*
X122522769Y-93160000D01*
X123416988Y-93160000D01*
X123384075Y-93217007D01*
X123350000Y-93344174D01*
X123350000Y-93475826D01*
X123384075Y-93602993D01*
X123416988Y-93660000D01*
X122522769Y-93660000D01*
X122533242Y-93726126D01*
X122533242Y-93726129D01*
X122598904Y-93928217D01*
X122695379Y-94117557D01*
X122820272Y-94289459D01*
X122820276Y-94289464D01*
X122933946Y-94403134D01*
X122967431Y-94464457D01*
X122962447Y-94534149D01*
X122920575Y-94590082D01*
X122889598Y-94606997D01*
X122757671Y-94656202D01*
X122757664Y-94656206D01*
X122642455Y-94742452D01*
X122642452Y-94742455D01*
X122556206Y-94857664D01*
X122556202Y-94857671D01*
X122505908Y-94992517D01*
X122499501Y-95052116D01*
X122499501Y-95052123D01*
X122499500Y-95052135D01*
X113707886Y-95052135D01*
X113604284Y-94837003D01*
X113460838Y-94608711D01*
X113292734Y-94397915D01*
X113102085Y-94207266D01*
X112891289Y-94039162D01*
X112662997Y-93895716D01*
X112662994Y-93895714D01*
X112420082Y-93778734D01*
X112165602Y-93689687D01*
X112165594Y-93689684D01*
X111946869Y-93639762D01*
X111902732Y-93629688D01*
X111902728Y-93629687D01*
X111902719Y-93629686D01*
X111634813Y-93599500D01*
X111634809Y-93599500D01*
X111365191Y-93599500D01*
X111365186Y-93599500D01*
X111097280Y-93629686D01*
X111097268Y-93629688D01*
X110834405Y-93689684D01*
X110834397Y-93689687D01*
X110579917Y-93778734D01*
X110337005Y-93895714D01*
X110108712Y-94039161D01*
X109897915Y-94207265D01*
X109707265Y-94397915D01*
X109539161Y-94608712D01*
X109395714Y-94837005D01*
X109278734Y-95079917D01*
X109189687Y-95334397D01*
X109189684Y-95334405D01*
X109129688Y-95597268D01*
X109129686Y-95597280D01*
X109099500Y-95865186D01*
X97796131Y-95865186D01*
X96481436Y-94550500D01*
X96481436Y-94550499D01*
X96481435Y-94550499D01*
X96416417Y-94485481D01*
X96416412Y-94485477D01*
X96300659Y-94418648D01*
X96300657Y-94418647D01*
X96279484Y-94406423D01*
X96279483Y-94406422D01*
X96279482Y-94406422D01*
X96255868Y-94400094D01*
X96255864Y-94400093D01*
X96155735Y-94373264D01*
X96096074Y-94336899D01*
X96077343Y-94309784D01*
X96066986Y-94289458D01*
X96051051Y-94258183D01*
X96014058Y-94207266D01*
X95926109Y-94086212D01*
X95775786Y-93935889D01*
X95603817Y-93810948D01*
X95594501Y-93806201D01*
X95543707Y-93758226D01*
X95526913Y-93690404D01*
X95549452Y-93624270D01*
X95594511Y-93585230D01*
X95603556Y-93580621D01*
X95775459Y-93455727D01*
X95775464Y-93455723D01*
X95925723Y-93305464D01*
X95925727Y-93305459D01*
X96050620Y-93133557D01*
X96147095Y-92944217D01*
X96212757Y-92742129D01*
X96212757Y-92742126D01*
X96223231Y-92676000D01*
X95329012Y-92676000D01*
X95361925Y-92618993D01*
X95396000Y-92491826D01*
X95396000Y-92360174D01*
X95361925Y-92233007D01*
X95329012Y-92176000D01*
X96223231Y-92176000D01*
X96212757Y-92109873D01*
X96212757Y-92109870D01*
X96147095Y-91907782D01*
X96050620Y-91718442D01*
X95925727Y-91546540D01*
X95925723Y-91546535D01*
X95812053Y-91432865D01*
X95778568Y-91371542D01*
X95783552Y-91301850D01*
X95825424Y-91245917D01*
X95856400Y-91229002D01*
X95988331Y-91179796D01*
X96103546Y-91093546D01*
X96189796Y-90978331D01*
X96240091Y-90843483D01*
X96246500Y-90783873D01*
X96246499Y-88988128D01*
X96246497Y-88988105D01*
X96246029Y-88983747D01*
X96246028Y-88983742D01*
X96245258Y-88976575D01*
X138449080Y-88976575D01*
X138449080Y-89183514D01*
X138489448Y-89386457D01*
X138489450Y-89386465D01*
X138565130Y-89569173D01*
X138568639Y-89577643D01*
X138605598Y-89632957D01*
X138683604Y-89749702D01*
X138829922Y-89896020D01*
X138829925Y-89896022D01*
X139001982Y-90010986D01*
X139193160Y-90090175D01*
X139386544Y-90128641D01*
X139448455Y-90161025D01*
X139450034Y-90162577D01*
X140386242Y-91098786D01*
X140386246Y-91098789D01*
X140517349Y-91186390D01*
X140517353Y-91186392D01*
X140517356Y-91186394D01*
X140663038Y-91246738D01*
X140817688Y-91277499D01*
X140817692Y-91277500D01*
X140817693Y-91277500D01*
X150101844Y-91277500D01*
X150101845Y-91277499D01*
X150256497Y-91246737D01*
X150402179Y-91186394D01*
X150533289Y-91098789D01*
X151832289Y-89799789D01*
X151919894Y-89668679D01*
X151980238Y-89522997D01*
X152011000Y-89368342D01*
X152011000Y-89210657D01*
X151980238Y-89056002D01*
X151919894Y-88910321D01*
X151919892Y-88910318D01*
X151919890Y-88910314D01*
X151832289Y-88779209D01*
X151720790Y-88667710D01*
X151589685Y-88580109D01*
X151589675Y-88580104D01*
X151443998Y-88519762D01*
X151443990Y-88519760D01*
X151289347Y-88489000D01*
X151289343Y-88489000D01*
X151131658Y-88489000D01*
X151131653Y-88489000D01*
X150977010Y-88519760D01*
X150977002Y-88519762D01*
X150831324Y-88580104D01*
X150831314Y-88580109D01*
X150700211Y-88667710D01*
X150700207Y-88667713D01*
X149727741Y-89640181D01*
X149666418Y-89673666D01*
X149640060Y-89676500D01*
X146063568Y-89676500D01*
X145996529Y-89656815D01*
X145950774Y-89604011D01*
X145940830Y-89534853D01*
X145969855Y-89471297D01*
X145975195Y-89465516D01*
X145989302Y-89451183D01*
X146030440Y-89409388D01*
X146098410Y-89282526D01*
X146110704Y-89223774D01*
X146127887Y-89141656D01*
X146124642Y-89100847D01*
X146116480Y-88998186D01*
X146097096Y-88941452D01*
X146091064Y-88928517D01*
X145807588Y-88320602D01*
X145591752Y-87857740D01*
X145560751Y-87806422D01*
X145458180Y-87705464D01*
X145458177Y-87705461D01*
X145411978Y-87680709D01*
X145362182Y-87631698D01*
X145346789Y-87563545D01*
X145370685Y-87497889D01*
X145401648Y-87468307D01*
X145462075Y-87427932D01*
X145608397Y-87281610D01*
X145723361Y-87109553D01*
X145802550Y-86918375D01*
X145842920Y-86715420D01*
X145842920Y-86508490D01*
X145802550Y-86305535D01*
X145723361Y-86114357D01*
X145608397Y-85942300D01*
X145608395Y-85942297D01*
X145462077Y-85795979D01*
X145361598Y-85728842D01*
X145290018Y-85681014D01*
X145098840Y-85601825D01*
X145098832Y-85601823D01*
X144895889Y-85561455D01*
X144895885Y-85561455D01*
X144688955Y-85561455D01*
X144688950Y-85561455D01*
X144486007Y-85601823D01*
X144485999Y-85601825D01*
X144294823Y-85681013D01*
X144122762Y-85795979D01*
X143976444Y-85942297D01*
X143861478Y-86114358D01*
X143782290Y-86305534D01*
X143782288Y-86305542D01*
X143741920Y-86508485D01*
X143741920Y-86715424D01*
X143782288Y-86918367D01*
X143782290Y-86918375D01*
X143861478Y-87109551D01*
X143976444Y-87281612D01*
X144122762Y-87427930D01*
X144122765Y-87427932D01*
X144294822Y-87542896D01*
X144486000Y-87622085D01*
X144486002Y-87622085D01*
X144486004Y-87622086D01*
X144490541Y-87622988D01*
X144493059Y-87623489D01*
X144554971Y-87655871D01*
X144589548Y-87716585D01*
X144585812Y-87786355D01*
X144544948Y-87843028D01*
X144521278Y-87857489D01*
X143906529Y-88144153D01*
X143855215Y-88175152D01*
X143855212Y-88175154D01*
X143754257Y-88277722D01*
X143686287Y-88404584D01*
X143686284Y-88404590D01*
X143656808Y-88545455D01*
X143668216Y-88688926D01*
X143668216Y-88688928D01*
X143687601Y-88745664D01*
X143937943Y-89282521D01*
X144037424Y-89495859D01*
X144039400Y-89500095D01*
X144049892Y-89569173D01*
X144021372Y-89632957D01*
X143962896Y-89671196D01*
X143927018Y-89676500D01*
X141279475Y-89676500D01*
X141212436Y-89656815D01*
X141191794Y-89640181D01*
X140582112Y-89030499D01*
X140548627Y-88969176D01*
X140548176Y-88967009D01*
X140547632Y-88964276D01*
X140509710Y-88773625D01*
X140430521Y-88582447D01*
X140315557Y-88410390D01*
X140315555Y-88410387D01*
X140169237Y-88264069D01*
X140036162Y-88175152D01*
X139997178Y-88149104D01*
X139985225Y-88144153D01*
X139806000Y-88069915D01*
X139805991Y-88069912D01*
X139793619Y-88067451D01*
X139731709Y-88035063D01*
X139697138Y-87974346D01*
X139700881Y-87904576D01*
X139741751Y-87847906D01*
X139770364Y-87831274D01*
X139899455Y-87777803D01*
X139899468Y-87777796D01*
X140071435Y-87662891D01*
X140071439Y-87662888D01*
X140217685Y-87516642D01*
X140274896Y-87431018D01*
X139551518Y-87167730D01*
X139551517Y-87167731D01*
X139285114Y-87899668D01*
X139297794Y-87954552D01*
X139274220Y-88020325D01*
X139218829Y-88062911D01*
X139198202Y-88068912D01*
X139193161Y-88069914D01*
X139193159Y-88069915D01*
X139001983Y-88149103D01*
X138829922Y-88264069D01*
X138683604Y-88410387D01*
X138568638Y-88582448D01*
X138489450Y-88773624D01*
X138489448Y-88773632D01*
X138449080Y-88976575D01*
X96245258Y-88976575D01*
X96240091Y-88928516D01*
X96189797Y-88793671D01*
X96189793Y-88793664D01*
X96103547Y-88678455D01*
X96103544Y-88678452D01*
X95988335Y-88592206D01*
X95988328Y-88592202D01*
X95853482Y-88541908D01*
X95853483Y-88541908D01*
X95793883Y-88535501D01*
X95793881Y-88535500D01*
X95793873Y-88535500D01*
X95793865Y-88535500D01*
X94020500Y-88535500D01*
X93953461Y-88515815D01*
X93907706Y-88463011D01*
X93896500Y-88411500D01*
X93896500Y-86743887D01*
X138352100Y-86743887D01*
X138352100Y-86950722D01*
X138392448Y-87153568D01*
X138392450Y-87153576D01*
X138471600Y-87344660D01*
X138471605Y-87344670D01*
X138586510Y-87516637D01*
X138586513Y-87516641D01*
X138732763Y-87662891D01*
X138818381Y-87720098D01*
X139081670Y-86996720D01*
X139081669Y-86996719D01*
X138596847Y-86820259D01*
X138544549Y-86801224D01*
X139052100Y-86801224D01*
X139052100Y-86893380D01*
X139075952Y-86982397D01*
X139122030Y-87062207D01*
X139187195Y-87127372D01*
X139267005Y-87173450D01*
X139356022Y-87197302D01*
X139448178Y-87197302D01*
X139537195Y-87173450D01*
X139617005Y-87127372D01*
X139682170Y-87062207D01*
X139728248Y-86982397D01*
X139752100Y-86893380D01*
X139752100Y-86801224D01*
X139728248Y-86712207D01*
X139719978Y-86697882D01*
X139722528Y-86697882D01*
X139722529Y-86697883D01*
X140449742Y-86962566D01*
X140452099Y-86950725D01*
X140452100Y-86950716D01*
X140452100Y-86743885D01*
X140452099Y-86743881D01*
X140411751Y-86541035D01*
X140411749Y-86541027D01*
X140332599Y-86349943D01*
X140332594Y-86349933D01*
X140217689Y-86177966D01*
X140217686Y-86177962D01*
X140071439Y-86031715D01*
X140071435Y-86031712D01*
X139985817Y-85974503D01*
X139722528Y-86697882D01*
X139719978Y-86697882D01*
X139682170Y-86632397D01*
X139617005Y-86567232D01*
X139537195Y-86521154D01*
X139448178Y-86497302D01*
X139356022Y-86497302D01*
X139267005Y-86521154D01*
X139187195Y-86567232D01*
X139122030Y-86632397D01*
X139075952Y-86712207D01*
X139052100Y-86801224D01*
X138544549Y-86801224D01*
X138354456Y-86732036D01*
X138352100Y-86743887D01*
X93896500Y-86743887D01*
X93896500Y-86263583D01*
X138529301Y-86263583D01*
X139252680Y-86526872D01*
X139252681Y-86526871D01*
X139517364Y-85799658D01*
X139505518Y-85797302D01*
X139298679Y-85797302D01*
X139095833Y-85837650D01*
X139095825Y-85837652D01*
X138904741Y-85916802D01*
X138904731Y-85916807D01*
X138732764Y-86031712D01*
X138732760Y-86031715D01*
X138586517Y-86177959D01*
X138586511Y-86177965D01*
X138529301Y-86263583D01*
X93896500Y-86263583D01*
X93896500Y-79300500D01*
X93916185Y-79233461D01*
X93968989Y-79187706D01*
X94020500Y-79176500D01*
X159942764Y-79176500D01*
X160009803Y-79196185D01*
G37*
%TD.AperFunction*%
%TA.AperFunction,Conductor*%
G36*
X133317941Y-127120185D02*
G01*
X133363696Y-127172989D01*
X133373640Y-127242147D01*
X133344615Y-127305703D01*
X133338583Y-127312181D01*
X131387584Y-129263181D01*
X131326261Y-129296666D01*
X131299903Y-129299500D01*
X117754290Y-129299500D01*
X117687251Y-129279815D01*
X117641496Y-129227011D01*
X117631552Y-129157853D01*
X117639729Y-129128047D01*
X117677570Y-129036689D01*
X117677572Y-129036681D01*
X117715999Y-128843495D01*
X117716000Y-128843492D01*
X117716000Y-128445000D01*
X117016000Y-128445000D01*
X117016000Y-127945000D01*
X117716000Y-127945000D01*
X117716000Y-127546508D01*
X117715999Y-127546504D01*
X117677572Y-127353318D01*
X117677569Y-127353306D01*
X117643872Y-127271952D01*
X117636403Y-127202482D01*
X117667679Y-127140003D01*
X117727768Y-127104352D01*
X117758433Y-127100500D01*
X133250902Y-127100500D01*
X133317941Y-127120185D01*
G37*
%TD.AperFunction*%
%TA.AperFunction,Conductor*%
G36*
X122681099Y-119074185D02*
G01*
X122726854Y-119126989D01*
X122736798Y-119196147D01*
X122707773Y-119259703D01*
X122701741Y-119266181D01*
X119364018Y-122603902D01*
X119302695Y-122637387D01*
X119287751Y-122639695D01*
X117855939Y-122772047D01*
X117834027Y-122775539D01*
X117790213Y-122782522D01*
X117790207Y-122782523D01*
X117790203Y-122782524D01*
X117777670Y-122785378D01*
X117777652Y-122785383D01*
X117713910Y-122804389D01*
X115994192Y-123443141D01*
X115951166Y-123461429D01*
X115943033Y-123465340D01*
X115857146Y-123517740D01*
X115832590Y-123542539D01*
X115755907Y-123619978D01*
X115755904Y-123619981D01*
X115755903Y-123619983D01*
X115733575Y-123650117D01*
X115703737Y-123695252D01*
X115703732Y-123695262D01*
X115649329Y-123828451D01*
X115282912Y-125294115D01*
X115267770Y-125319921D01*
X115254862Y-125346903D01*
X115250280Y-125349733D01*
X115247555Y-125354378D01*
X115220871Y-125367899D01*
X115195419Y-125383622D01*
X115190034Y-125383525D01*
X115185231Y-125385960D01*
X115155476Y-125382909D01*
X115125561Y-125382375D01*
X115118821Y-125379150D01*
X115115725Y-125378833D01*
X115093723Y-125367142D01*
X115000609Y-125304925D01*
X114955804Y-125251313D01*
X114945500Y-125201823D01*
X114945500Y-123586719D01*
X114947883Y-123562527D01*
X114977963Y-123411307D01*
X114977963Y-123253617D01*
X114947883Y-123102398D01*
X114945500Y-123078206D01*
X114945500Y-121741518D01*
X114965185Y-121674479D01*
X114981814Y-121653841D01*
X116144585Y-120491070D01*
X116184809Y-120464193D01*
X116239434Y-120441567D01*
X116329172Y-120404398D01*
X116329175Y-120404396D01*
X116329178Y-120404395D01*
X116460288Y-120316790D01*
X116571788Y-120205290D01*
X116659393Y-120074180D01*
X116719736Y-119928498D01*
X116750499Y-119773843D01*
X116750499Y-119616159D01*
X116750499Y-119616156D01*
X116750498Y-119616154D01*
X116719736Y-119461504D01*
X116717292Y-119455604D01*
X116659396Y-119315828D01*
X116659394Y-119315824D01*
X116659393Y-119315822D01*
X116626224Y-119266181D01*
X116613669Y-119247391D01*
X116592791Y-119180714D01*
X116611275Y-119113334D01*
X116663254Y-119066643D01*
X116716771Y-119054500D01*
X122614060Y-119054500D01*
X122681099Y-119074185D01*
G37*
%TD.AperFunction*%
%TA.AperFunction,Conductor*%
G36*
X159388992Y-113259096D02*
G01*
X159415644Y-113263173D01*
X159422012Y-113268792D01*
X159430161Y-113271185D01*
X159447815Y-113291559D01*
X159468035Y-113309400D01*
X159470354Y-113317571D01*
X159475916Y-113323989D01*
X159479753Y-113350674D01*
X159487117Y-113376613D01*
X159485243Y-113388861D01*
X159485860Y-113393147D01*
X159481781Y-113411502D01*
X159480260Y-113416512D01*
X159449362Y-113571848D01*
X159416977Y-113633759D01*
X159415426Y-113635337D01*
X158606584Y-114444181D01*
X158545261Y-114477666D01*
X158518903Y-114480500D01*
X102319853Y-114480500D01*
X102319849Y-114480499D01*
X102240792Y-114480500D01*
X102161743Y-114480500D01*
X102161739Y-114480500D01*
X102161734Y-114480501D01*
X102161727Y-114480503D01*
X102095766Y-114498178D01*
X102009728Y-114521232D01*
X102009727Y-114521232D01*
X102009016Y-114521423D01*
X102009010Y-114521426D01*
X102009008Y-114521427D01*
X101976134Y-114540407D01*
X101976045Y-114540458D01*
X101975888Y-114540548D01*
X101872082Y-114600481D01*
X101872080Y-114600482D01*
X101872079Y-114600484D01*
X101872076Y-114600487D01*
X101835523Y-114637039D01*
X101757169Y-114715395D01*
X101757160Y-114715404D01*
X96407757Y-120064953D01*
X96405341Y-120066272D01*
X96403920Y-120068629D01*
X96374863Y-120082915D01*
X96346435Y-120098439D01*
X96343688Y-120098242D01*
X96341219Y-120099457D01*
X96309043Y-120095764D01*
X96276743Y-120093455D01*
X96274539Y-120091805D01*
X96271805Y-120091492D01*
X96246736Y-120070993D01*
X96220809Y-120051585D01*
X96219194Y-120048472D01*
X96217716Y-120047263D01*
X96202144Y-120015590D01*
X96199507Y-120007474D01*
X96197512Y-119937633D01*
X96229755Y-119881478D01*
X99764713Y-116346521D01*
X99764716Y-116346520D01*
X99876520Y-116234716D01*
X99926639Y-116147904D01*
X99955577Y-116097785D01*
X99996501Y-115945057D01*
X99996501Y-115915765D01*
X100016186Y-115848726D01*
X100017365Y-115846923D01*
X100061084Y-115781495D01*
X100117658Y-115644913D01*
X100146500Y-115499918D01*
X100146500Y-115352082D01*
X100146500Y-115352079D01*
X100117659Y-115207092D01*
X100117658Y-115207091D01*
X100117658Y-115207087D01*
X100087960Y-115135390D01*
X100061087Y-115070511D01*
X100061080Y-115070498D01*
X99978951Y-114947584D01*
X99978948Y-114947580D01*
X99964832Y-114933464D01*
X99931347Y-114872141D01*
X99936331Y-114802449D01*
X99964830Y-114758104D01*
X101435116Y-113287819D01*
X101496439Y-113254334D01*
X101522797Y-113251500D01*
X159363122Y-113251500D01*
X159388992Y-113259096D01*
G37*
%TD.AperFunction*%
%TA.AperFunction,Conductor*%
G36*
X99941642Y-112870185D02*
G01*
X99987397Y-112922989D01*
X99997341Y-112992147D01*
X99968316Y-113055703D01*
X99962284Y-113062181D01*
X96089861Y-116934602D01*
X96028538Y-116968087D01*
X95958846Y-116963103D01*
X95914499Y-116934602D01*
X95775786Y-116795889D01*
X95603817Y-116670948D01*
X95595054Y-116666483D01*
X95544258Y-116618508D01*
X95527464Y-116550687D01*
X95550002Y-116484552D01*
X95595058Y-116445513D01*
X95603816Y-116441051D01*
X95625789Y-116425086D01*
X95775786Y-116316109D01*
X95775788Y-116316106D01*
X95775792Y-116316104D01*
X95926104Y-116165792D01*
X95926106Y-116165788D01*
X95926109Y-116165786D01*
X96051050Y-115993817D01*
X96075897Y-115945054D01*
X96077342Y-115942216D01*
X96096925Y-115921481D01*
X96114170Y-115898758D01*
X96121906Y-115895031D01*
X96125316Y-115891421D01*
X96145257Y-115882047D01*
X96150413Y-115880162D01*
X96279485Y-115845577D01*
X96329604Y-115816639D01*
X96416416Y-115766520D01*
X96528220Y-115654716D01*
X96528220Y-115654714D01*
X96538428Y-115644507D01*
X96538429Y-115644504D01*
X99296116Y-112886819D01*
X99357439Y-112853334D01*
X99383797Y-112850500D01*
X99874603Y-112850500D01*
X99941642Y-112870185D01*
G37*
%TD.AperFunction*%
%TA.AperFunction,Conductor*%
G36*
X97975642Y-112296185D02*
G01*
X98021397Y-112348989D01*
X98031341Y-112418147D01*
X98002316Y-112481703D01*
X97996285Y-112488179D01*
X97030648Y-113453816D01*
X96089861Y-114394603D01*
X96028538Y-114428088D01*
X95958846Y-114423104D01*
X95914499Y-114394603D01*
X95775786Y-114255890D01*
X95603820Y-114130951D01*
X95603115Y-114130591D01*
X95595054Y-114126485D01*
X95544259Y-114078512D01*
X95527463Y-114010692D01*
X95549999Y-113944556D01*
X95595054Y-113905515D01*
X95603816Y-113901051D01*
X95664742Y-113856786D01*
X95775786Y-113776109D01*
X95775788Y-113776106D01*
X95775792Y-113776104D01*
X95926104Y-113625792D01*
X95926106Y-113625788D01*
X95926109Y-113625786D01*
X96040385Y-113468497D01*
X96051051Y-113453816D01*
X96147557Y-113264412D01*
X96213246Y-113062243D01*
X96246500Y-112852287D01*
X96246500Y-112639713D01*
X96213246Y-112429757D01*
X96213243Y-112429749D01*
X96213173Y-112429455D01*
X96213179Y-112429333D01*
X96212484Y-112424945D01*
X96213405Y-112424799D01*
X96216659Y-112359672D01*
X96257320Y-112302852D01*
X96322244Y-112277034D01*
X96333745Y-112276500D01*
X97908603Y-112276500D01*
X97975642Y-112296185D01*
G37*
%TD.AperFunction*%
%TA.AperFunction,Conductor*%
G36*
X171758377Y-110000827D02*
G01*
X171777287Y-110001165D01*
X171805504Y-110014665D01*
X171807273Y-110015185D01*
X171809125Y-110016398D01*
X171940814Y-110104390D01*
X171940827Y-110104397D01*
X172052163Y-110150513D01*
X172086503Y-110164737D01*
X172241153Y-110195499D01*
X172241156Y-110195500D01*
X172241158Y-110195500D01*
X172398844Y-110195500D01*
X172398845Y-110195499D01*
X172553497Y-110164737D01*
X172587837Y-110150512D01*
X172657305Y-110143043D01*
X172719784Y-110174317D01*
X172755438Y-110234405D01*
X172759290Y-110265073D01*
X172759290Y-110722451D01*
X172739605Y-110789490D01*
X172738393Y-110791341D01*
X172694704Y-110856727D01*
X172638133Y-110993301D01*
X172638130Y-110993311D01*
X172609290Y-111138298D01*
X172609290Y-111138301D01*
X172609290Y-111286137D01*
X172609290Y-111286139D01*
X172609289Y-111286139D01*
X172638130Y-111431126D01*
X172638133Y-111431136D01*
X172694702Y-111567707D01*
X172694709Y-111567720D01*
X172776838Y-111690634D01*
X172776841Y-111690638D01*
X172881370Y-111795167D01*
X172881374Y-111795170D01*
X173004288Y-111877299D01*
X173004301Y-111877306D01*
X173138634Y-111932948D01*
X173140877Y-111933877D01*
X173140881Y-111933877D01*
X173140882Y-111933878D01*
X173285869Y-111962719D01*
X173285872Y-111962719D01*
X173433710Y-111962719D01*
X173531252Y-111943315D01*
X173578703Y-111933877D01*
X173715285Y-111877303D01*
X173725607Y-111870405D01*
X173792285Y-111849527D01*
X173859665Y-111868010D01*
X173906356Y-111919988D01*
X173918500Y-111973507D01*
X173918500Y-112262234D01*
X173898815Y-112329273D01*
X173897602Y-112331125D01*
X173809609Y-112462814D01*
X173809602Y-112462827D01*
X173749264Y-112608498D01*
X173749261Y-112608510D01*
X173722173Y-112744691D01*
X173689788Y-112806602D01*
X173629073Y-112841176D01*
X173600556Y-112844500D01*
X172345097Y-112844500D01*
X172278058Y-112824815D01*
X172257416Y-112808181D01*
X169656416Y-110207181D01*
X169622931Y-110145858D01*
X169627915Y-110076166D01*
X169669787Y-110020233D01*
X169735251Y-109995816D01*
X169744097Y-109995500D01*
X171740234Y-109995500D01*
X171758377Y-110000827D01*
G37*
%TD.AperFunction*%
%TA.AperFunction,Conductor*%
G36*
X97732942Y-108286185D02*
G01*
X97753584Y-108302819D01*
X97807365Y-108356600D01*
X97840850Y-108417923D01*
X97835866Y-108487615D01*
X97822787Y-108513171D01*
X97747343Y-108626081D01*
X97747337Y-108626092D01*
X97686999Y-108771763D01*
X97686996Y-108771775D01*
X97656235Y-108926418D01*
X97656235Y-109084111D01*
X97686996Y-109238754D01*
X97686999Y-109238766D01*
X97747337Y-109384437D01*
X97747344Y-109384450D01*
X97796228Y-109457609D01*
X97817106Y-109524286D01*
X97798622Y-109591666D01*
X97746643Y-109638357D01*
X97693126Y-109650500D01*
X96204647Y-109650500D01*
X96137608Y-109630815D01*
X96094163Y-109582796D01*
X96051051Y-109498184D01*
X96051049Y-109498181D01*
X96051048Y-109498179D01*
X95926109Y-109326213D01*
X95775786Y-109175890D01*
X95603817Y-109050949D01*
X95595054Y-109046484D01*
X95544258Y-108998509D01*
X95527464Y-108930688D01*
X95550002Y-108864553D01*
X95595058Y-108825514D01*
X95603816Y-108821052D01*
X95625789Y-108805087D01*
X95775786Y-108696110D01*
X95775788Y-108696107D01*
X95775792Y-108696105D01*
X95926104Y-108545793D01*
X95926106Y-108545789D01*
X95926109Y-108545787D01*
X96051050Y-108373818D01*
X96059824Y-108356600D01*
X96071234Y-108334206D01*
X96119208Y-108283409D01*
X96181719Y-108266500D01*
X97665903Y-108266500D01*
X97732942Y-108286185D01*
G37*
%TD.AperFunction*%
%TA.AperFunction,Conductor*%
G36*
X96451703Y-99911384D02*
G01*
X96458181Y-99917416D01*
X104392584Y-107851819D01*
X104426069Y-107913142D01*
X104421085Y-107982834D01*
X104379213Y-108038767D01*
X104313749Y-108063184D01*
X104304903Y-108063500D01*
X99886173Y-108063500D01*
X99819134Y-108043815D01*
X99798497Y-108027186D01*
X96478407Y-104707471D01*
X96416416Y-104645480D01*
X96416399Y-104645470D01*
X96416389Y-104645460D01*
X96351497Y-104607999D01*
X96351495Y-104607997D01*
X96351495Y-104607998D01*
X96279478Y-104566419D01*
X96279455Y-104566410D01*
X96198028Y-104544596D01*
X96198022Y-104544595D01*
X96155734Y-104533264D01*
X96096073Y-104496899D01*
X96077342Y-104469783D01*
X96051050Y-104418182D01*
X95926109Y-104246213D01*
X95775786Y-104095890D01*
X95603820Y-103970951D01*
X95603115Y-103970591D01*
X95595054Y-103966485D01*
X95544259Y-103918512D01*
X95527463Y-103850692D01*
X95549999Y-103784556D01*
X95595054Y-103745515D01*
X95603816Y-103741051D01*
X95679190Y-103686289D01*
X95775786Y-103616109D01*
X95775788Y-103616106D01*
X95775792Y-103616104D01*
X95926104Y-103465792D01*
X95926106Y-103465788D01*
X95926109Y-103465786D01*
X96051048Y-103293820D01*
X96051047Y-103293820D01*
X96051051Y-103293816D01*
X96147557Y-103104412D01*
X96213246Y-102902243D01*
X96246500Y-102692287D01*
X96246500Y-102479713D01*
X96213246Y-102269757D01*
X96147557Y-102067588D01*
X96051051Y-101878184D01*
X96051049Y-101878181D01*
X96051048Y-101878179D01*
X95926109Y-101706213D01*
X95775786Y-101555890D01*
X95603820Y-101430951D01*
X95603115Y-101430591D01*
X95595054Y-101426485D01*
X95544259Y-101378512D01*
X95527463Y-101310692D01*
X95549999Y-101244556D01*
X95595054Y-101205515D01*
X95603816Y-101201051D01*
X95648093Y-101168882D01*
X95775786Y-101076109D01*
X95775788Y-101076106D01*
X95775792Y-101076104D01*
X95926104Y-100925792D01*
X95926106Y-100925788D01*
X95926109Y-100925786D01*
X96051048Y-100753820D01*
X96051047Y-100753820D01*
X96051051Y-100753816D01*
X96147557Y-100564412D01*
X96213246Y-100362243D01*
X96246500Y-100152287D01*
X96246500Y-100005097D01*
X96266185Y-99938058D01*
X96318989Y-99892303D01*
X96388147Y-99882359D01*
X96451703Y-99911384D01*
G37*
%TD.AperFunction*%
%TA.AperFunction,Conductor*%
G36*
X96045513Y-95828894D02*
G01*
X96089861Y-95857394D01*
X107542376Y-107309818D01*
X107575861Y-107371141D01*
X107570877Y-107440833D01*
X107529006Y-107496767D01*
X107463542Y-107521184D01*
X107454695Y-107521500D01*
X105812097Y-107521500D01*
X105745058Y-107501815D01*
X105724416Y-107485181D01*
X96229757Y-97990522D01*
X96196272Y-97929199D01*
X96199507Y-97864523D01*
X96213246Y-97822243D01*
X96246500Y-97612287D01*
X96246500Y-97399713D01*
X96213246Y-97189757D01*
X96147557Y-96987588D01*
X96051051Y-96798184D01*
X96051049Y-96798181D01*
X96051048Y-96798179D01*
X95926109Y-96626213D01*
X95775786Y-96475890D01*
X95603817Y-96350949D01*
X95595052Y-96346483D01*
X95544257Y-96298508D01*
X95527462Y-96230687D01*
X95550000Y-96164552D01*
X95595056Y-96125513D01*
X95603816Y-96121050D01*
X95603818Y-96121048D01*
X95603821Y-96121047D01*
X95775784Y-95996109D01*
X95775784Y-95996108D01*
X95775792Y-95996103D01*
X95914502Y-95857392D01*
X95975821Y-95823910D01*
X96045513Y-95828894D01*
G37*
%TD.AperFunction*%
%TA.AperFunction,Conductor*%
G36*
X182803974Y-82031662D02*
G01*
X182830334Y-82033548D01*
X182839387Y-82039366D01*
X182846427Y-82040898D01*
X182874681Y-82062049D01*
X182956344Y-82143712D01*
X183105666Y-82235814D01*
X183114498Y-82238740D01*
X183171944Y-82278508D01*
X183198771Y-82343022D01*
X183199500Y-82356448D01*
X183199500Y-84967059D01*
X183179815Y-85034098D01*
X183163181Y-85054740D01*
X183078213Y-85139707D01*
X183078210Y-85139711D01*
X182990609Y-85270814D01*
X182990602Y-85270827D01*
X182930264Y-85416498D01*
X182930261Y-85416510D01*
X182899500Y-85571153D01*
X182899500Y-85728846D01*
X182930261Y-85883489D01*
X182930264Y-85883501D01*
X182990602Y-86029172D01*
X182990609Y-86029185D01*
X183078210Y-86160288D01*
X183078213Y-86160292D01*
X183189707Y-86271786D01*
X183189711Y-86271789D01*
X183320814Y-86359390D01*
X183320827Y-86359397D01*
X183466498Y-86419735D01*
X183466503Y-86419737D01*
X183621153Y-86450499D01*
X183621156Y-86450500D01*
X183621158Y-86450500D01*
X183778844Y-86450500D01*
X183778845Y-86450499D01*
X183933497Y-86419737D01*
X184079179Y-86359394D01*
X184210289Y-86271789D01*
X184210289Y-86271788D01*
X184211609Y-86270907D01*
X184278286Y-86250029D01*
X184345666Y-86268513D01*
X184392357Y-86320492D01*
X184404500Y-86374009D01*
X184404500Y-92413235D01*
X184384815Y-92480274D01*
X184368181Y-92500916D01*
X181259181Y-95609916D01*
X181197858Y-95643401D01*
X181128166Y-95638417D01*
X181072233Y-95596545D01*
X181047816Y-95531081D01*
X181047500Y-95522235D01*
X181047500Y-84474500D01*
X181067185Y-84407461D01*
X181119989Y-84361706D01*
X181171500Y-84350500D01*
X181228844Y-84350500D01*
X181228845Y-84350499D01*
X181383497Y-84319737D01*
X181529179Y-84259394D01*
X181660289Y-84171789D01*
X181771789Y-84060289D01*
X181859394Y-83929179D01*
X181919737Y-83783497D01*
X181950500Y-83628842D01*
X181950638Y-83628150D01*
X181959402Y-83611393D01*
X181963423Y-83592914D01*
X181982167Y-83567875D01*
X181983023Y-83566239D01*
X181984527Y-83564707D01*
X182158506Y-83390727D01*
X182158511Y-83390724D01*
X182168714Y-83380520D01*
X182168716Y-83380520D01*
X182280520Y-83268716D01*
X182284359Y-83262065D01*
X182337813Y-83169482D01*
X182337814Y-83169480D01*
X182359574Y-83131790D01*
X182359575Y-83131789D01*
X182359575Y-83131787D01*
X182359577Y-83131785D01*
X182400501Y-82979057D01*
X182400501Y-82820943D01*
X182400501Y-82813348D01*
X182400500Y-82813330D01*
X182400500Y-82330448D01*
X182420185Y-82263409D01*
X182472989Y-82217654D01*
X182485488Y-82212744D01*
X182494334Y-82209814D01*
X182643656Y-82117712D01*
X182699319Y-82062049D01*
X182707264Y-82057710D01*
X182712690Y-82050463D01*
X182737449Y-82041228D01*
X182760642Y-82028564D01*
X182769671Y-82029209D01*
X182778154Y-82026046D01*
X182803974Y-82031662D01*
G37*
%TD.AperFunction*%
%TD*%
M02*
