%TF.GenerationSoftware,KiCad,Pcbnew,9.0.0*%
%TF.CreationDate,2025-06-04T21:14:10-04:00*%
%TF.ProjectId,thermal-pcb,74686572-6d61-46c2-9d70-63622e6b6963,rev?*%
%TF.SameCoordinates,Original*%
%TF.FileFunction,Soldermask,Bot*%
%TF.FilePolarity,Negative*%
%FSLAX46Y46*%
G04 Gerber Fmt 4.6, Leading zero omitted, Abs format (unit mm)*
G04 Created by KiCad (PCBNEW 9.0.0) date 2025-06-04 21:14:10*
%MOMM*%
%LPD*%
G01*
G04 APERTURE LIST*
G04 Aperture macros list*
%AMRoundRect*
0 Rectangle with rounded corners*
0 $1 Rounding radius*
0 $2 $3 $4 $5 $6 $7 $8 $9 X,Y pos of 4 corners*
0 Add a 4 corners polygon primitive as box body*
4,1,4,$2,$3,$4,$5,$6,$7,$8,$9,$2,$3,0*
0 Add four circle primitives for the rounded corners*
1,1,$1+$1,$2,$3*
1,1,$1+$1,$4,$5*
1,1,$1+$1,$6,$7*
1,1,$1+$1,$8,$9*
0 Add four rect primitives between the rounded corners*
20,1,$1+$1,$2,$3,$4,$5,0*
20,1,$1+$1,$4,$5,$6,$7,0*
20,1,$1+$1,$6,$7,$8,$9,0*
20,1,$1+$1,$8,$9,$2,$3,0*%
%AMRotRect*
0 Rectangle, with rotation*
0 The origin of the aperture is its center*
0 $1 length*
0 $2 width*
0 $3 Rotation angle, in degrees counterclockwise*
0 Add horizontal line*
21,1,$1,$2,0,0,$3*%
%AMFreePoly0*
4,1,23,0.500000,-0.750000,0.000000,-0.750000,0.000000,-0.745722,-0.065263,-0.745722,-0.191342,-0.711940,-0.304381,-0.646677,-0.396677,-0.554381,-0.461940,-0.441342,-0.495722,-0.315263,-0.495722,-0.250000,-0.500000,-0.250000,-0.500000,0.250000,-0.495722,0.250000,-0.495722,0.315263,-0.461940,0.441342,-0.396677,0.554381,-0.304381,0.646677,-0.191342,0.711940,-0.065263,0.745722,0.000000,0.745722,
0.000000,0.750000,0.500000,0.750000,0.500000,-0.750000,0.500000,-0.750000,$1*%
%AMFreePoly1*
4,1,23,0.000000,0.745722,0.065263,0.745722,0.191342,0.711940,0.304381,0.646677,0.396677,0.554381,0.461940,0.441342,0.495722,0.315263,0.495722,0.250000,0.500000,0.250000,0.500000,-0.250000,0.495722,-0.250000,0.495722,-0.315263,0.461940,-0.441342,0.396677,-0.554381,0.304381,-0.646677,0.191342,-0.711940,0.065263,-0.745722,0.000000,-0.745722,0.000000,-0.750000,-0.500000,-0.750000,
-0.500000,0.750000,0.000000,0.750000,0.000000,0.745722,0.000000,0.745722,$1*%
G04 Aperture macros list end*
%ADD10C,0.000000*%
%ADD11C,1.100000*%
%ADD12RotRect,1.100000X1.100000X115.000000*%
%ADD13RoundRect,0.250000X-0.375000X-0.625000X0.375000X-0.625000X0.375000X0.625000X-0.375000X0.625000X0*%
%ADD14RoundRect,0.250000X0.375000X0.625000X-0.375000X0.625000X-0.375000X-0.625000X0.375000X-0.625000X0*%
%ADD15R,1.700000X1.700000*%
%ADD16O,1.700000X1.700000*%
%ADD17C,1.500000*%
%ADD18RoundRect,0.150000X-0.512500X-0.150000X0.512500X-0.150000X0.512500X0.150000X-0.512500X0.150000X0*%
%ADD19RoundRect,0.250000X-0.262500X-0.450000X0.262500X-0.450000X0.262500X0.450000X-0.262500X0.450000X0*%
%ADD20RoundRect,0.250000X0.159099X-0.512652X0.512652X-0.159099X-0.159099X0.512652X-0.512652X0.159099X0*%
%ADD21RoundRect,0.062500X-0.350000X-0.062500X0.350000X-0.062500X0.350000X0.062500X-0.350000X0.062500X0*%
%ADD22RoundRect,0.062500X-0.062500X-0.350000X0.062500X-0.350000X0.062500X0.350000X-0.062500X0.350000X0*%
%ADD23R,2.500000X2.500000*%
%ADD24RoundRect,0.250000X0.475000X-0.250000X0.475000X0.250000X-0.475000X0.250000X-0.475000X-0.250000X0*%
%ADD25FreePoly0,0.000000*%
%ADD26FreePoly1,0.000000*%
%ADD27RoundRect,0.250000X0.262500X0.450000X-0.262500X0.450000X-0.262500X-0.450000X0.262500X-0.450000X0*%
%ADD28RoundRect,0.250000X0.250000X0.475000X-0.250000X0.475000X-0.250000X-0.475000X0.250000X-0.475000X0*%
%ADD29RoundRect,0.250000X0.503814X0.132583X0.132583X0.503814X-0.503814X-0.132583X-0.132583X-0.503814X0*%
%ADD30RoundRect,0.250000X-0.450000X0.262500X-0.450000X-0.262500X0.450000X-0.262500X0.450000X0.262500X0*%
%ADD31RoundRect,0.250000X0.132583X-0.503814X0.503814X-0.132583X-0.132583X0.503814X-0.503814X0.132583X0*%
%ADD32RoundRect,0.250000X-0.503814X-0.132583X-0.132583X-0.503814X0.503814X0.132583X0.132583X0.503814X0*%
%ADD33R,1.250000X0.700000*%
%ADD34RoundRect,0.250000X0.450000X-0.262500X0.450000X0.262500X-0.450000X0.262500X-0.450000X-0.262500X0*%
%ADD35FreePoly0,270.000000*%
%ADD36FreePoly1,270.000000*%
%ADD37R,0.900000X1.500000*%
%ADD38R,1.500000X0.900000*%
%ADD39C,0.600000*%
%ADD40R,3.900000X3.900000*%
%ADD41RoundRect,0.050000X-0.730000X-0.150000X0.730000X-0.150000X0.730000X0.150000X-0.730000X0.150000X0*%
%ADD42FreePoly0,45.000000*%
%ADD43FreePoly1,45.000000*%
%ADD44FreePoly0,180.000000*%
%ADD45FreePoly1,180.000000*%
%ADD46FreePoly0,135.000000*%
%ADD47FreePoly1,135.000000*%
%ADD48C,0.650000*%
%ADD49RoundRect,0.150000X0.150000X0.425000X-0.150000X0.425000X-0.150000X-0.425000X0.150000X-0.425000X0*%
%ADD50RoundRect,0.075000X0.075000X0.500000X-0.075000X0.500000X-0.075000X-0.500000X0.075000X-0.500000X0*%
%ADD51O,1.000000X1.800000*%
%ADD52O,1.000000X2.100000*%
%ADD53RoundRect,0.250000X-0.250000X-0.475000X0.250000X-0.475000X0.250000X0.475000X-0.250000X0.475000X0*%
%ADD54RoundRect,0.250000X0.176777X-0.707107X0.707107X-0.176777X-0.176777X0.707107X-0.707107X0.176777X0*%
%ADD55FreePoly0,90.000000*%
%ADD56FreePoly1,90.000000*%
G04 APERTURE END LIST*
D10*
%TO.C,JP1*%
G36*
X99749999Y-128500000D02*
G01*
X99449999Y-128500000D01*
X99449999Y-127000000D01*
X99749999Y-127000000D01*
X99749999Y-128500000D01*
G37*
%TO.C,JP2*%
G36*
X99750001Y-126000000D02*
G01*
X99450001Y-126000000D01*
X99450001Y-124500000D01*
X99750001Y-124500000D01*
X99750001Y-126000000D01*
G37*
%TO.C,JP11*%
G36*
X99950000Y-130900001D02*
G01*
X98450000Y-130900001D01*
X98450000Y-130600001D01*
X99950000Y-130600001D01*
X99950000Y-130900001D01*
G37*
%TO.C,JP5*%
G36*
X119636396Y-119224264D02*
G01*
X119424264Y-119436396D01*
X118363604Y-118375736D01*
X118575736Y-118163604D01*
X119636396Y-119224264D01*
G37*
%TO.C,JP6*%
G36*
X109396000Y-125750000D02*
G01*
X109096000Y-125750000D01*
X109096000Y-124250000D01*
X109396000Y-124250000D01*
X109396000Y-125750000D01*
G37*
%TO.C,JP7*%
G36*
X109550000Y-116150000D02*
G01*
X109250000Y-116150000D01*
X109250000Y-114650000D01*
X109550000Y-114650000D01*
X109550000Y-116150000D01*
G37*
%TO.C,JP3*%
G36*
X120886396Y-126575736D02*
G01*
X119825736Y-127636396D01*
X119613604Y-127424264D01*
X120674264Y-126363604D01*
X120886396Y-126575736D01*
G37*
%TO.C,JP8*%
G36*
X117650000Y-112250000D02*
G01*
X117950000Y-112250000D01*
X117950000Y-110750000D01*
X117650000Y-110750000D01*
X117650000Y-112250000D01*
G37*
%TO.C,JP10*%
G36*
X103396000Y-118826000D02*
G01*
X101896000Y-118826000D01*
X101896000Y-118526000D01*
X103396000Y-118526000D01*
X103396000Y-118826000D01*
G37*
%TO.C,JP9*%
G36*
X112150000Y-109250000D02*
G01*
X112450000Y-109250000D01*
X112450000Y-107750000D01*
X112150000Y-107750000D01*
X112150000Y-109250000D01*
G37*
%TO.C,JP12*%
G36*
X103450000Y-123750000D02*
G01*
X101950000Y-123750000D01*
X101950000Y-123450000D01*
X103450000Y-123450000D01*
X103450000Y-123750000D01*
G37*
%TO.C,JP4*%
G36*
X109446000Y-123150000D02*
G01*
X109146000Y-123150000D01*
X109146000Y-121650000D01*
X109446000Y-121650000D01*
X109446000Y-123150000D01*
G37*
%TD*%
D11*
%TO.C,U5*%
X144792420Y-86611955D03*
X139402100Y-86847302D03*
X139499580Y-89080045D03*
D12*
X144892348Y-88843556D03*
%TD*%
D13*
%TO.C,D3*%
X151496000Y-95676000D03*
X154296000Y-95676000D03*
%TD*%
D14*
%TO.C,D2*%
X114600000Y-112676000D03*
X111800000Y-112676000D03*
%TD*%
D13*
%TO.C,D1*%
X107000000Y-112650000D03*
X109800000Y-112650000D03*
%TD*%
D15*
%TO.C,J2*%
X94896000Y-89886000D03*
D16*
X94896000Y-92426000D03*
X94896000Y-94965999D03*
X94896000Y-97506000D03*
X94896000Y-100046000D03*
X94896000Y-102586000D03*
X94896000Y-105126000D03*
X94896000Y-107666001D03*
X94896000Y-110206000D03*
X94896000Y-112746000D03*
X94896000Y-115286000D03*
X94896000Y-117825999D03*
X94896000Y-120366000D03*
X94896000Y-122906000D03*
%TD*%
D17*
%TO.C,TP10*%
X157700000Y-91100000D03*
%TD*%
%TO.C,TP6*%
X144896000Y-100926000D03*
%TD*%
D18*
%TO.C,U3*%
X98262500Y-123050000D03*
X98262500Y-122100000D03*
X98262500Y-121150000D03*
X100537500Y-121150000D03*
X100537500Y-123050000D03*
%TD*%
D19*
%TO.C,R9*%
X156983500Y-95676000D03*
X158808500Y-95676000D03*
%TD*%
D17*
%TO.C,TP1*%
X153200000Y-114500000D03*
%TD*%
D20*
%TO.C,C6*%
X157528249Y-105271751D03*
X158871751Y-103928249D03*
%TD*%
D19*
%TO.C,R1*%
X120387500Y-132200000D03*
X122212500Y-132200000D03*
%TD*%
D21*
%TO.C,U2*%
X112958500Y-124676000D03*
X112958500Y-124176000D03*
X112958500Y-123676000D03*
X112958500Y-123176000D03*
X112958500Y-122676000D03*
D22*
X113896000Y-121738500D03*
X114396000Y-121738500D03*
X114896000Y-121738500D03*
X115396000Y-121738500D03*
X115896000Y-121738500D03*
D21*
X116833500Y-122676000D03*
X116833500Y-123176000D03*
X116833500Y-123676000D03*
X116833500Y-124176000D03*
X116833500Y-124676000D03*
D22*
X115896000Y-125613500D03*
X115396000Y-125613500D03*
X114896000Y-125613500D03*
X114396000Y-125613500D03*
X113896000Y-125613500D03*
D23*
X114896000Y-123676000D03*
%TD*%
D24*
%TO.C,C2*%
X96250000Y-130199999D03*
X96250000Y-128300001D03*
%TD*%
D17*
%TO.C,TP7*%
X176146000Y-93426000D03*
%TD*%
D19*
%TO.C,R12*%
X153387500Y-90400000D03*
X155212500Y-90400000D03*
%TD*%
D25*
%TO.C,JP1*%
X98950000Y-127750000D03*
D26*
X100249998Y-127750000D03*
%TD*%
D17*
%TO.C,TP11*%
X154396000Y-87900000D03*
%TD*%
D25*
%TO.C,JP2*%
X98950002Y-125250000D03*
D26*
X100250000Y-125250000D03*
%TD*%
D27*
%TO.C,R2*%
X122212500Y-130300000D03*
X120387500Y-130300000D03*
%TD*%
D17*
%TO.C,TP3*%
X118100000Y-115900000D03*
%TD*%
%TO.C,TP8*%
X150146000Y-101926000D03*
%TD*%
D28*
%TO.C,C3*%
X115949999Y-116800000D03*
X114050001Y-116800000D03*
%TD*%
D29*
%TO.C,R7*%
X115396035Y-107176035D03*
X114105565Y-105885565D03*
%TD*%
D30*
%TO.C,R5*%
X101646000Y-112263500D03*
X101646000Y-114088500D03*
%TD*%
D24*
%TO.C,C1*%
X132646000Y-123875999D03*
X132646000Y-121976001D03*
%TD*%
D29*
%TO.C,R10*%
X124790470Y-129290470D03*
X123500000Y-128000000D03*
%TD*%
D31*
%TO.C,R11*%
X121554765Y-116245235D03*
X122845235Y-114954765D03*
%TD*%
D17*
%TO.C,TP4*%
X95750000Y-132250000D03*
%TD*%
D32*
%TO.C,TH1*%
X109054765Y-118554765D03*
X110345235Y-119845235D03*
%TD*%
D33*
%TO.C,Q2*%
X129896000Y-121976000D03*
X129896000Y-123876000D03*
X127896000Y-122926000D03*
%TD*%
D34*
%TO.C,R4*%
X155600000Y-113312500D03*
X155600000Y-111487500D03*
%TD*%
D35*
%TO.C,JP11*%
X99200000Y-130100002D03*
D36*
X99200000Y-131400000D03*
%TD*%
D15*
%TO.C,J4*%
X161356000Y-80426000D03*
D16*
X163896000Y-80426000D03*
X166435999Y-80426000D03*
X168976000Y-80426000D03*
%TD*%
D37*
%TO.C,U1*%
X183616000Y-115526000D03*
X182346000Y-115526000D03*
X181076000Y-115526000D03*
X179806000Y-115526000D03*
X178536000Y-115526000D03*
X177266000Y-115526000D03*
X175996000Y-115526000D03*
X174726000Y-115526000D03*
X173456000Y-115526000D03*
X172186000Y-115526000D03*
X170916000Y-115526000D03*
X169646000Y-115526000D03*
X168376000Y-115526000D03*
X167106000Y-115526000D03*
D38*
X165856000Y-113761000D03*
X165856000Y-112491000D03*
X165856000Y-111221000D03*
X165856000Y-109951000D03*
X165856000Y-108681000D03*
X165856000Y-107411000D03*
X165856000Y-106141000D03*
X165856000Y-104871000D03*
X165856000Y-103601000D03*
X165856000Y-102331000D03*
X165856000Y-101061000D03*
X165856000Y-99791000D03*
D37*
X167106000Y-98026000D03*
X168376000Y-98026000D03*
X169646000Y-98026000D03*
X170916000Y-98026000D03*
X172186000Y-98026000D03*
X173456000Y-98026000D03*
X174726000Y-98026000D03*
X175996000Y-98026000D03*
X177266000Y-98026000D03*
X178536000Y-98026000D03*
X179806000Y-98026000D03*
X181076000Y-98026000D03*
X182346000Y-98026000D03*
X183616000Y-98026000D03*
D39*
X175196000Y-109676000D03*
X176596000Y-109676000D03*
X174496000Y-108976000D03*
X175896000Y-108976000D03*
X177296000Y-108976000D03*
X175196000Y-108276000D03*
D40*
X175896000Y-108276000D03*
D39*
X176596000Y-108276000D03*
X174496000Y-107576000D03*
X175896000Y-107576000D03*
X177296000Y-107576000D03*
X175196000Y-106876000D03*
X176596000Y-106876000D03*
%TD*%
D41*
%TO.C,Q1*%
X153016000Y-109651000D03*
X153016000Y-109001000D03*
X153016000Y-108351000D03*
X153016000Y-107701000D03*
X158776000Y-107701000D03*
X158776000Y-108351000D03*
X158776000Y-109001000D03*
X158776000Y-109651000D03*
%TD*%
D17*
%TO.C,TP9*%
X157800000Y-112000000D03*
%TD*%
D15*
%TO.C,J5*%
X122646000Y-123176000D03*
D16*
X122646000Y-120636000D03*
%TD*%
D42*
%TO.C,JP5*%
X118540381Y-119259619D03*
D43*
X119459619Y-118340381D03*
%TD*%
D19*
%TO.C,R6*%
X156983500Y-98676000D03*
X158808500Y-98676000D03*
%TD*%
%TO.C,R14*%
X147983500Y-104676000D03*
X149808500Y-104676000D03*
%TD*%
D44*
%TO.C,JP6*%
X109895999Y-125000000D03*
D45*
X108596001Y-125000000D03*
%TD*%
D15*
%TO.C,J1*%
X105000000Y-131600000D03*
D16*
X102460000Y-131600000D03*
%TD*%
D44*
%TO.C,JP7*%
X110049999Y-115400000D03*
D45*
X108750001Y-115400000D03*
%TD*%
D17*
%TO.C,TP5*%
X104396000Y-112926000D03*
%TD*%
D46*
%TO.C,JP3*%
X120709619Y-127459619D03*
D47*
X119790381Y-126540381D03*
%TD*%
D48*
%TO.C,J3*%
X115286000Y-128695000D03*
X109506000Y-128695000D03*
D49*
X115596000Y-127620000D03*
X114796000Y-127620000D03*
D50*
X113646000Y-127620000D03*
X112646000Y-127620000D03*
X112146000Y-127620000D03*
X111146000Y-127620000D03*
D49*
X109996000Y-127620000D03*
X109196000Y-127620000D03*
X109196000Y-127620000D03*
X109996000Y-127620000D03*
D50*
X110646000Y-127620000D03*
X111646000Y-127620000D03*
X113146000Y-127620000D03*
X114146000Y-127620000D03*
D49*
X114796000Y-127620000D03*
X115596000Y-127620000D03*
D51*
X116716000Y-132375000D03*
D52*
X116716000Y-128195000D03*
D51*
X108076000Y-132375000D03*
D52*
X108076000Y-128195000D03*
%TD*%
D29*
%TO.C,R8*%
X108541235Y-107321235D03*
X107250765Y-106030765D03*
%TD*%
D25*
%TO.C,JP8*%
X117150000Y-111500000D03*
D26*
X118450000Y-111500000D03*
%TD*%
D29*
%TO.C,R3*%
X104896000Y-109426000D03*
X103605530Y-108135530D03*
%TD*%
D17*
%TO.C,TP2*%
X105300000Y-121900000D03*
%TD*%
D19*
%TO.C,R13*%
X149821000Y-87900000D03*
X151646000Y-87900000D03*
%TD*%
D53*
%TO.C,C5*%
X95050000Y-125750000D03*
X96950000Y-125750000D03*
%TD*%
D28*
%TO.C,C8*%
X135846000Y-86416000D03*
X133946000Y-86416000D03*
%TD*%
D35*
%TO.C,JP10*%
X102646000Y-118026001D03*
D36*
X102646000Y-119325999D03*
%TD*%
D54*
%TO.C,F1*%
X103600000Y-128000000D03*
X105579898Y-126020102D03*
%TD*%
D24*
%TO.C,C4*%
X105200000Y-119849999D03*
X105200000Y-117950001D03*
%TD*%
D25*
%TO.C,JP9*%
X111650000Y-108500000D03*
D26*
X112950000Y-108500000D03*
%TD*%
D18*
%TO.C,U4*%
X152758500Y-104626000D03*
X152758500Y-103676000D03*
X152758500Y-102726000D03*
X155033500Y-102726000D03*
X155033500Y-103676000D03*
X155033500Y-104626000D03*
%TD*%
D55*
%TO.C,JP12*%
X102700000Y-124249999D03*
D56*
X102700000Y-122950001D03*
%TD*%
D28*
%TO.C,C9*%
X135846000Y-89426000D03*
X133946000Y-89426000D03*
%TD*%
D44*
%TO.C,JP4*%
X109945999Y-122400000D03*
D45*
X108646001Y-122400000D03*
%TD*%
D53*
%TO.C,C7*%
X128550000Y-119250000D03*
X130450000Y-119250000D03*
%TD*%
M02*
